<svg width="24" height="24" viewBox="0 0 24 24" fill="none" xmlns="http://www.w3.org/2000/svg">
<path d="M12.5 20.3399L12.2285 20.6058C12.3 20.6788 12.3979 20.7199 12.5 20.7199C12.6021 20.7199 12.7 20.6788 12.7715 20.6058L12.5 20.3399ZM4.72915 12.4071L4.4577 12.6731L4.72915 12.4071ZM20.2708 12.4071L20.5423 12.6731L20.2708 12.4071ZM11.2434 5.75713L10.972 6.02305L11.2434 5.75713ZM12.5 7.03988L12.2285 7.30579C12.3 7.37876 12.3979 7.41988 12.5 7.41988C12.6021 7.41988 12.7 7.37876 12.7715 7.30579L12.5 7.03988ZM13.7566 5.75713L13.4851 5.49122L13.7566 5.75713ZM12.7715 20.074L5.00061 12.1412L4.4577 12.6731L12.2285 20.6058L12.7715 20.074ZM19.9994 12.1412L12.2285 20.074L12.7715 20.6058L20.5423 12.6731L19.9994 12.1412ZM10.972 6.02305L12.2285 7.30579L12.7715 6.77396L11.5149 5.49122L10.972 6.02305ZM12.7715 7.30579L14.0281 6.02305L13.4851 5.49122L12.2285 6.77396L12.7715 7.30579ZM17.0137 3.99988C15.6887 3.99988 14.4196 4.53727 13.4851 5.49122L14.0281 6.02305C14.8213 5.21331 15.8954 4.75988 17.0137 4.75988V3.99988ZM21.24 9.08213C21.24 10.231 20.7929 11.3312 19.9994 12.1412L20.5423 12.6731C21.4765 11.7193 22 10.4275 22 9.08213H21.24ZM22 9.08213C22 6.28271 19.7749 3.99988 17.0137 3.99988V4.75988C19.3405 4.75988 21.24 6.6876 21.24 9.08213H22ZM7.9863 4.75988C9.10462 4.75988 10.1788 5.21332 10.972 6.02305L11.5149 5.49122C10.5804 4.53727 9.3113 3.99988 7.9863 3.99988V4.75988ZM3.76 9.08213C3.76 6.6876 5.65953 4.75988 7.9863 4.75988V3.99988C5.22509 3.99988 3 6.28271 3 9.08213H3.76ZM5.00061 12.1412C4.20713 11.3312 3.76 10.231 3.76 9.08213H3C3 10.4275 3.52347 11.7193 4.4577 12.6731L5.00061 12.1412Z" fill="#A3A3A3"/>
</svg>
