<svg width="24" height="24" viewBox="0 0 24 24" fill="none" xmlns="http://www.w3.org/2000/svg">
<path d="M12.5 20.34L12.2285 20.6059C12.3 20.6789 12.3979 20.72 12.5 20.72C12.6021 20.72 12.7 20.6789 12.7715 20.6059L12.5 20.34ZM12.5 7.04L12.2285 7.30591C12.3 7.37888 12.3979 7.42 12.5 7.42C12.6021 7.42 12.7 7.37888 12.7715 7.30591L12.5 7.04ZM12.7715 20.0741L5.00061 12.1413L4.4577 12.6732L12.2285 20.6059L12.7715 20.0741ZM19.9994 12.1413L12.2285 20.0741L12.7715 20.6059L20.5423 12.6732L19.9994 12.1413ZM10.972 6.02317L12.2285 7.30591L12.7715 6.77408L11.5149 5.49134L10.972 6.02317ZM12.7715 7.30591L14.0281 6.02317L13.4851 5.49134L12.2285 6.77408L12.7715 7.30591ZM17.0137 4C15.6887 4 14.4196 4.53739 13.4851 5.49134L14.0281 6.02317C14.8213 5.21343 15.8954 4.76 17.0137 4.76V4ZM21.24 9.08225C21.24 10.2311 20.7929 11.3313 19.9994 12.1413L20.5423 12.6732C21.4765 11.7194 22 10.4276 22 9.08225H21.24ZM22 9.08225C22 6.28283 19.7749 4 17.0137 4V4.76C19.3405 4.76 21.24 6.68772 21.24 9.08225H22ZM7.9863 4.76C9.10462 4.76 10.1788 5.21344 10.972 6.02317L11.5149 5.49134C10.5804 4.53739 9.3113 4 7.9863 4V4.76ZM3.76 9.08225C3.76 6.68772 5.65953 4.76 7.9863 4.76V4C5.22509 4 3 6.28283 3 9.08225H3.76ZM5.00061 12.1413C4.20713 11.3313 3.76 10.2311 3.76 9.08225H3C3 10.4276 3.52347 11.7194 4.4577 12.6732L5.00061 12.1413Z" fill="#E42D24"/>
</svg>
