<svg class="like-icon" width="24" height="24" viewBox="0 0 24 24" fill="none" xmlns="http://www.w3.org/2000/svg">
<path fill-rule="evenodd" clip-rule="evenodd" d="M12.5 20.7199C12.3979 20.7199 12.3 20.6788 12.2285 20.6058L4.4577 12.6731C3.52347 11.7193 3 10.4275 3 9.08213C3 6.28271 5.22509 3.99988 7.9863 3.99988C9.3113 3.99988 10.5804 4.53727 11.5149 5.49122L12.5 6.49684L13.4851 5.49122C14.4196 4.53727 15.6887 3.99988 17.0137 3.99988C19.7749 3.99988 22 6.28271 22 9.08213C22 10.4275 21.4765 11.7193 20.5423 12.6731L12.7715 20.6058C12.7 20.6788 12.6021 20.7199 12.5 20.7199Z" />
</svg>
