<svg width="32" height="32" viewBox="0 0 32 32" fill="none" xmlns="http://www.w3.org/2000/svg">
<path d="M5.50008 7.33333C4.88124 7.33333 4.28775 7.57916 3.85017 8.01675C3.41258 8.45433 3.16675 9.04782 3.16675 9.66666V22.5H5.50008C5.50008 23.4283 5.86883 24.3185 6.52521 24.9749C7.18158 25.6312 8.07182 26 9.00008 26C9.92834 26 10.8186 25.6312 11.475 24.9749C12.1313 24.3185 12.5001 23.4283 12.5001 22.5H19.5001C19.5001 23.4283 19.8688 24.3185 20.5252 24.9749C21.1816 25.6312 22.0718 26 23.0001 26C23.9283 26 24.8186 25.6312 25.475 24.9749C26.1313 24.3185 26.5001 23.4283 26.5001 22.5H28.8334V16.6667L25.3334 12H21.8334V7.33333M13.6667 9.66666L18.3334 14.3333L13.6667 19V15.5H6.66675V13.1667H13.6667M21.8334 13.75H24.7501L27.0484 16.6667H21.8334M9.00008 20.75C9.46421 20.75 9.90933 20.9344 10.2375 21.2626C10.5657 21.5907 10.7501 22.0359 10.7501 22.5C10.7501 22.9641 10.5657 23.4092 10.2375 23.7374C9.90933 24.0656 9.46421 24.25 9.00008 24.25C8.53595 24.25 8.09083 24.0656 7.76264 23.7374C7.43446 23.4092 7.25008 22.9641 7.25008 22.5C7.25008 22.0359 7.43446 21.5907 7.76264 21.2626C8.09083 20.9344 8.53595 20.75 9.00008 20.75ZM23.0001 20.75C23.4642 20.75 23.9093 20.9344 24.2375 21.2626C24.5657 21.5907 24.7501 22.0359 24.7501 22.5C24.7501 22.9641 24.5657 23.4092 24.2375 23.7374C23.9093 24.0656 23.4642 24.25 23.0001 24.25C22.536 24.25 22.0908 24.0656 21.7626 23.7374C21.4345 23.4092 21.2501 22.9641 21.2501 22.5C21.2501 22.0359 21.4345 21.5907 21.7626 21.2626C22.0908 20.9344 22.536 20.75 23.0001 20.75Z" fill="white"/>
</svg>
