<svg width="32" height="32" viewBox="0 0 32 32" fill="none" xmlns="http://www.w3.org/2000/svg">
<path d="M27.9927 16.4795C27.9927 17.2178 27.3676 17.7961 26.6593 17.7961H25.3259L25.3551 24.3627C25.3551 24.4775 25.3467 24.5842 25.3342 24.6949V25.3594C25.3342 26.2658 24.5884 27 23.6675 27H23.0008C22.955 27 22.9091 26.9631 22.8633 26.9959C22.8049 26.9631 22.7466 27 22.6883 27H20.334C19.4131 27 18.6673 26.2658 18.6673 25.3594V21.75C18.6673 21.024 18.0714 20.4375 17.3339 20.4375H14.6671C13.9296 20.4375 13.3337 21.024 13.3337 21.75V25.3594C13.3337 26.2658 12.5879 27 11.667 27H9.33772C9.27522 27 9.21272 26.9959 9.15021 26.9918C9.10021 26.9959 9.05021 27 9.00021 27H8.33351C7.41306 27 6.66678 26.2658 6.66678 25.3594V20.7656C6.66678 20.7287 6.66803 20.6877 6.67053 20.6508V17.7961H5.33547C4.58419 17.7961 4 17.2178 4 16.4795C4 16.1104 4.12517 15.7822 4.4171 15.4951L15.1005 6.32878C15.3921 6.0411 15.7255 6 16.0172 6C16.3088 6 16.6422 6.0822 16.8964 6.28768L27.5343 15.4951C27.8677 15.7822 28.0385 16.1104 27.9927 16.4795Z" fill="white"/>
</svg>
