<svg width="40" height="40" viewBox="0 0 40 40" fill="none" xmlns="http://www.w3.org/2000/svg">
<g clip-path="url(#clip0_84_1235)">
<path d="M20 14.4805C21.4886 14.4805 22.6953 13.2737 22.6953 11.7852C22.6953 10.2966 21.4886 9.08984 20 9.08984C18.5114 9.08984 17.3047 10.2966 17.3047 11.7852C17.3047 13.2737 18.5114 14.4805 20 14.4805Z" fill="#22272D"/>
<path d="M24.5852 29.8432H34.742V0H5.26172V40H24.5852V29.8432H24.5852ZM29.2369 23.8281H15.0638V21.4844H29.237V23.8281H29.2369ZM13.1155 33.2291H10.7668V30.8854H13.1155V33.2291ZM13.1155 28.5287H10.7668V26.1849H13.1155V28.5287ZM13.1155 23.8281H10.7668V21.4844H13.1155V23.8281ZM13.2234 14.3453L15.1722 13.2202C14.893 12.2837 14.893 11.2861 15.1722 10.3497L13.2234 9.22453L14.3952 7.19484L16.3468 8.32156C17.0079 7.62422 17.8652 7.11562 18.83 6.88484V4.63438H21.1738V6.88484C22.1385 7.11555 22.9959 7.62422 23.6569 8.32148L25.6084 7.19477L26.7803 9.22445L24.8315 10.3496C25.1107 11.2861 25.1107 12.2836 24.8315 13.2201L26.7803 14.3452L25.6084 16.3749L23.6569 15.2482C22.9958 15.9455 22.1384 16.4541 21.1738 16.6848V18.9353H18.83V16.6848C17.8652 16.4541 17.0079 15.9455 16.3469 15.2482L14.3953 16.3749L13.2234 14.3453ZM21.7988 33.2291H15.0638V30.8854H21.7988V33.2291ZM15.0638 28.5287V26.1849H24.1425V28.5287H15.0638Z" fill="#22272D"/>
<path d="M26.9297 32.187V40.0001H27.349L34.7427 32.6063V32.187H26.9297Z" fill="#22272D"/>
</g>
<defs>
<clipPath id="clip0_84_1235">
<rect width="40" height="40" fill="white"/>
</clipPath>
</defs>
</svg>
