<svg width="24" height="24" viewBox="0 0 24 24" fill="none" xmlns="http://www.w3.org/2000/svg">
<path d="M2 3L2.77143 5.57142L2 3ZM2.77143 5.57142L5.85714 15.8571H20V8.14285C20 6.72269 18.8487 5.57142 17.4285 5.57142H2.77143ZM17.4285 21C16.7185 21 16.1428 20.4243 16.1428 19.7143C16.1428 19.0042 16.7185 18.4285 17.4285 18.4285C18.1386 18.4285 18.7143 19.0042 18.7143 19.7143C18.7143 20.4243 18.1386 21 17.4285 21ZM7.14285 19.7143C7.14285 19.0042 7.71848 18.4285 8.42856 18.4285C9.13864 18.4285 9.71427 19.0042 9.71427 19.7143C9.71427 20.4243 9.13864 21 8.42856 21C7.71848 21 7.14285 20.4243 7.14285 19.7143Z" stroke="white" stroke-width="0.821427"/>
<path d="M8.85742 10.7142H15.7146M12.286 7.28564V14.1428V7.28564Z" stroke="white" stroke-width="0.821427"/>
</svg>
