<svg width="32" height="32" viewBox="0 0 32 32" fill="none" xmlns="http://www.w3.org/2000/svg">
<g clip-path="url(#clip0_84_1198)">
<path fill-rule="evenodd" clip-rule="evenodd" d="M21.022 7.003C22.563 7.017 23.978 8.338 24.003 9.965C24.025 12.317 24.01 14.668 24.003 17.02C23.989 18.563 22.662 19.975 21.041 20.001C15.69 20.051 10.339 20.017 4.98699 20.001C3.44599 19.986 2.03199 18.666 2.00699 17.038C1.98499 14.687 1.99899 12.335 2.00599 9.98401C2.02099 8.44401 3.34699 7.028 4.96899 7.003C10.32 6.953 15.671 6.986 21.022 7.003ZM4.00499 16.183C4.00599 16.455 4.00599 16.727 4.00599 17C4.00599 17.517 4.45699 17.989 4.98699 18.001C5.27099 18.005 5.55499 18.009 5.83899 18.013C5.83199 17.993 5.82499 17.973 5.81799 17.953C5.51199 17.135 4.82799 16.484 4.00499 16.183ZM22.013 16.183C21.19 16.49 20.503 17.163 20.188 18.002C20.46 18.001 20.731 18.001 21.002 18.001C21.52 18.001 21.992 17.55 22.003 17.02C22.008 16.741 22.011 16.462 22.013 16.183ZM13.027 10.002C14.646 10.018 16.162 11.274 16.45 12.884C16.837 15.048 14.817 17.397 12.365 16.943C10.945 16.679 9.75299 15.447 9.54199 14.012C9.25799 12.074 10.837 10.05 12.937 10.003C12.967 10.002 12.997 10.002 13.027 10.002ZM5.82399 9.002C5.55199 9.002 5.27999 9.002 5.00799 9.002C4.49099 9.004 4.01799 9.45201 4.00599 9.98401C4.00199 10.267 3.99899 10.551 3.99599 10.834C4.01599 10.828 4.03499 10.821 4.05399 10.814C4.87199 10.509 5.52299 9.824 5.82399 9.002ZM20.185 8.99101C20.493 9.81401 21.165 10.502 22.005 10.817C22.004 10.546 22.004 10.275 22.004 10.004C22.004 9.48601 21.553 9.014 21.022 9.003C20.743 8.998 20.464 8.99401 20.185 8.99101Z" fill="#E42D24"/>
<path d="M26.1379 10.7967C26.6161 10.883 26.981 11.2971 27.0033 11.7873C27.0033 14.0852 27.0107 16.3831 27.0033 18.6801C26.9819 20.9232 25.061 22.9927 22.6572 23.0001H5.57765C4.6947 22.9602 4.2082 21.6529 5.06515 21.1423C5.20627 21.0578 5.28519 21.0132 5.57765 21.0002C11.2801 21.0002 16.9835 21.0541 22.686 21.0002C23.8995 20.9807 24.9997 19.9158 25.0034 18.6513V11.7873C25.0294 11.2061 25.5419 10.7428 26.1379 10.7967Z" fill="#E42D24"/>
<path d="M29.1369 13.7967C29.615 13.883 29.9799 14.2971 30.0022 14.7873C30.0022 16.6943 30.0078 18.6023 30.0022 20.5093C29.9753 23.3466 27.5455 25.9908 24.4789 26.0001H8.57657C7.89417 25.9695 7.39003 25.2323 7.65742 24.6074C7.78647 24.3038 8.07429 24.0754 8.39831 24.016C8.4763 24.0021 8.49673 24.0039 8.57657 24.0002C13.8845 24.0002 19.1914 24.0169 24.4993 24.0002C26.3181 23.9835 27.9968 22.4135 28.0023 20.474V14.7873C28.0283 14.2061 28.5408 13.7428 29.1369 13.7967Z" fill="#E42D24"/>
<path fill-rule="evenodd" clip-rule="evenodd" d="M12.9954 12.0029C12.0114 12.0119 11.2014 13.1709 11.6414 14.1279C12.0324 14.9789 13.3134 15.2649 14.0264 14.6009C14.8554 13.8299 14.4494 12.0439 13.0444 12.0039C13.0284 12.0029 13.0124 12.0029 12.9954 12.0029Z" fill="#E42D24"/>
</g>
<defs>
<clipPath id="clip0_84_1198">
<rect width="32" height="32" fill="white"/>
</clipPath>
</defs>
</svg>
