<svg width="32" height="32" viewBox="0 0 32 32" fill="none" xmlns="http://www.w3.org/2000/svg">
<path fill-rule="evenodd" clip-rule="evenodd" d="M2.66675 4C2.66675 3.64638 2.80722 3.30724 3.05727 3.05719C3.30732 2.80714 3.64646 2.66666 4.00008 2.66666H13.3334C13.687 2.66666 14.0262 2.80714 14.2762 3.05719C14.5263 3.30724 14.6667 3.64638 14.6667 4V13.3333C14.6667 13.687 14.5263 14.0261 14.2762 14.2761C14.0262 14.5262 13.687 14.6667 13.3334 14.6667H4.00008C3.64646 14.6667 3.30732 14.5262 3.05727 14.2761C2.80722 14.0261 2.66675 13.687 2.66675 13.3333V4ZM6.66675 8C6.66675 7.64638 6.80722 7.30724 7.05727 7.05719C7.30732 6.80714 7.64646 6.66666 8.00008 6.66666H9.33342C9.68704 6.66666 10.0262 6.80714 10.2762 7.05719C10.5263 7.30724 10.6667 7.64638 10.6667 8V9.33333C10.6667 9.68695 10.5263 10.0261 10.2762 10.2761C10.0262 10.5262 9.68704 10.6667 9.33342 10.6667H8.00008C7.64646 10.6667 7.30732 10.5262 7.05727 10.2761C6.80722 10.0261 6.66675 9.68695 6.66675 9.33333V8ZM2.66675 18.6667C2.66675 18.313 2.80722 17.9739 3.05727 17.7239C3.30732 17.4738 3.64646 17.3333 4.00008 17.3333H13.3334C13.687 17.3333 14.0262 17.4738 14.2762 17.7239C14.5263 17.9739 14.6667 18.313 14.6667 18.6667V28C14.6667 28.3536 14.5263 28.6928 14.2762 28.9428C14.0262 29.1929 13.687 29.3333 13.3334 29.3333H4.00008C3.64646 29.3333 3.30732 29.1929 3.05727 28.9428C2.80722 28.6928 2.66675 28.3536 2.66675 28V18.6667ZM8.00008 21.3333C7.64646 21.3333 7.30732 21.4738 7.05727 21.7239C6.80722 21.9739 6.66675 22.313 6.66675 22.6667V24C6.66675 24.3536 6.80722 24.6928 7.05727 24.9428C7.30732 25.1929 7.64646 25.3333 8.00008 25.3333H9.33342C9.68704 25.3333 10.0262 25.1929 10.2762 24.9428C10.5263 24.6928 10.6667 24.3536 10.6667 24V22.6667C10.6667 22.313 10.5263 21.9739 10.2762 21.7239C10.0262 21.4738 9.68704 21.3333 9.33342 21.3333H8.00008ZM18.6667 2.66666C18.3131 2.66666 17.974 2.80714 17.7239 3.05719C17.4739 3.30724 17.3334 3.64638 17.3334 4V13.3333C17.3334 13.687 17.4739 14.0261 17.7239 14.2761C17.974 14.5262 18.3131 14.6667 18.6667 14.6667H28.0001C28.3537 14.6667 28.6928 14.5262 28.9429 14.2761C29.1929 14.0261 29.3334 13.687 29.3334 13.3333V4C29.3334 3.64638 29.1929 3.30724 28.9429 3.05719C28.6928 2.80714 28.3537 2.66666 28.0001 2.66666H18.6667ZM21.3334 8C21.3334 7.64638 21.4739 7.30724 21.7239 7.05719C21.974 6.80714 22.3131 6.66666 22.6667 6.66666H24.0001C24.3537 6.66666 24.6928 6.80714 24.9429 7.05719C25.1929 7.30724 25.3334 7.64638 25.3334 8V9.33333C25.3334 9.68695 25.1929 10.0261 24.9429 10.2761C24.6928 10.5262 24.3537 10.6667 24.0001 10.6667H22.6667C22.3131 10.6667 21.974 10.5262 21.7239 10.2761C21.4739 10.0261 21.3334 9.68695 21.3334 9.33333V8Z" fill="#E42D24"/>
<path d="M18.6668 17.3334C18.3132 17.3334 17.9741 17.4739 17.724 17.7239C17.474 17.974 17.3335 18.3131 17.3335 18.6667V20.0001C17.3335 20.3537 17.474 20.6928 17.724 20.9429C17.9741 21.1929 18.3132 21.3334 18.6668 21.3334H20.0002V24.0001C20.0002 24.3537 20.1406 24.6928 20.3907 24.9429C20.6407 25.1929 20.9799 25.3334 21.3335 25.3334H22.6668C23.0205 25.3334 23.3596 25.1929 23.6096 24.9429C23.8597 24.6928 24.0002 24.3537 24.0002 24.0001V21.3334C24.0002 20.9798 23.8597 20.6407 23.6096 20.3906C23.3596 20.1406 23.0205 20.0001 22.6668 20.0001H21.3335V18.6667C21.3335 18.3131 21.193 17.974 20.943 17.7239C20.6929 17.4739 20.3538 17.3334 20.0002 17.3334H18.6668ZM18.6668 25.3334C18.3132 25.3334 17.9741 25.4739 17.724 25.7239C17.474 25.974 17.3335 26.3131 17.3335 26.6667V28.0001C17.3335 28.3537 17.474 28.6928 17.724 28.9429C17.9741 29.1929 18.3132 29.3334 18.6668 29.3334H20.0002C20.3538 29.3334 20.6929 29.1929 20.943 28.9429C21.193 28.6928 21.3335 28.3537 21.3335 28.0001V26.6667C21.3335 26.3131 21.193 25.974 20.943 25.7239C20.6929 25.4739 20.3538 25.3334 20.0002 25.3334H18.6668ZM24.0002 18.6667C24.0002 18.3131 24.1406 17.974 24.3907 17.7239C24.6407 17.4739 24.9799 17.3334 25.3335 17.3334H26.6668C27.0205 17.3334 27.3596 17.4739 27.6096 17.7239C27.8597 17.974 28.0002 18.3131 28.0002 18.6667V20.0001C28.0002 20.3537 27.8597 20.6928 27.6096 20.9429C27.3596 21.1929 27.0205 21.3334 26.6668 21.3334H25.3335C24.9799 21.3334 24.6407 21.1929 24.3907 20.9429C24.1406 20.6928 24.0002 20.3537 24.0002 20.0001V18.6667ZM25.3335 25.3334C24.9799 25.3334 24.6407 25.4739 24.3907 25.7239C24.1406 25.974 24.0002 26.3131 24.0002 26.6667V28.0001C24.0002 28.3537 24.1406 28.6928 24.3907 28.9429C24.6407 29.1929 24.9799 29.3334 25.3335 29.3334H26.6668C27.0205 29.3334 27.3596 29.1929 27.6096 28.9429C27.8597 28.6928 28.0002 28.3537 28.0002 28.0001V26.6667C28.0002 26.3131 27.8597 25.974 27.6096 25.7239C27.3596 25.4739 27.0205 25.3334 26.6668 25.3334H25.3335Z" fill="#E42D24"/>
</svg>
