<svg width="32" height="32" viewBox="0 0 32 32" fill="none" xmlns="http://www.w3.org/2000/svg">
<path d="M25.8214 7H6.17857C5.46817 7 4.78687 7.30027 4.28454 7.83475C3.78221 8.36922 3.5 9.09413 3.5 9.85V23.15C3.5 23.9059 3.78221 24.6308 4.28454 25.1653C4.78687 25.6997 5.46817 26 6.17857 26H25.8214C26.5318 26 27.2131 25.6997 27.7155 25.1653C28.2178 24.6308 28.5 23.9059 28.5 23.15V9.85C28.5 9.09413 28.2178 8.36922 27.7155 7.83475C27.2131 7.30027 26.5318 7 25.8214 7ZM6.17857 8.9H25.8214C26.0582 8.9 26.2853 9.00009 26.4528 9.17825C26.6202 9.35641 26.7143 9.59804 26.7143 9.85V11.75H5.28571V9.85C5.28571 9.59804 5.37978 9.35641 5.54723 9.17825C5.71467 9.00009 5.94177 8.9 6.17857 8.9ZM25.8214 24.1H6.17857C5.94177 24.1 5.71467 23.9999 5.54723 23.8218C5.37978 23.6436 5.28571 23.402 5.28571 23.15V15.55H26.7143V23.15C26.7143 23.402 26.6202 23.6436 26.4528 23.8218C26.2853 23.9999 26.0582 24.1 25.8214 24.1Z" fill="#E42D24"/>
<path d="M25.8214 24.1H6.17857C5.94177 24.1 5.71467 23.9999 5.54723 23.8218C5.37978 23.6436 5.28571 23.402 5.28571 23.15V15.55H26.7143V23.15C26.7143 23.402 26.6202 23.6436 26.4528 23.8218C26.2853 23.9999 26.0582 24.1 25.8214 24.1Z" fill="#E42D24"/>
<path d="M6.17857 8.9H25.8214C26.0582 8.9 26.2853 9.00009 26.4528 9.17825C26.6202 9.35641 26.7143 9.59804 26.7143 9.85V11.75H5.28571V9.85C5.28571 9.59804 5.37978 9.35641 5.54723 9.17825C5.71467 9.00009 5.94177 8.9 6.17857 8.9Z" fill="#E42D24"/>
<path d="M28.5 11H3.5V15H28.5V11Z" fill="white"/>
<path d="M25 21H16V23H25V21Z" fill="white"/>
</svg>
