<?xml version="1.0" encoding="utf-8"?><svg xmlns="http://www.w3.org/2000/svg" xmlns:xlink="http://www.w3.org/1999/xlink"><symbol viewBox="0 0 22 24" id="basket" xmlns="http://www.w3.org/2000/svg"><g clip-path="url(#aa)"><path d="M10.363 18.443a2.046 2.046 0 0 0-2.045 2.042 2.046 2.046 0 0 0 4.09 0 2.046 2.046 0 0 0-2.045-2.042Zm6.134 0a2.046 2.046 0 0 0-2.045 2.042 2.046 2.046 0 0 0 4.089 0 2.046 2.046 0 0 0-2.044-2.042Zm3.978-8.199L7.413 6.891a.614.614 0 0 0-.75.73L8.67 16.4h-.786L5.482 5.895a.613.613 0 0 0-.474-.464l-4.27-.882A.614.614 0 0 0 .489 5.75l3.885.802L6.797 17.15a.613.613 0 0 0 .598.477h12.07a.615.615 0 0 0 .607-.53l.858-6.175a.613.613 0 0 0-.455-.678Zm-8.14 3.91a.613.613 0 0 1-1.227 0v-2.696a.613.613 0 0 1 1.227 0v2.696Zm2.625 0a.613.613 0 0 1-1.227 0v-1.88a.613.613 0 0 1 1.227 0v1.88Zm2.625 0a.613.613 0 0 1-1.227 0v-1.226a.613.613 0 0 1 1.227 0v1.226Z"/></g><path fill-rule="evenodd" clip-rule="evenodd" d="M16.268 4.568a2.996 2.996 0 0 0-1.693-.523c-.627 0-1.21.193-1.693.523-.28-.843-.492-1.752-.492-2.383C12.39.98 13.37 0 14.575 0s2.185.98 2.185 2.185c0 .631-.212 1.54-.492 2.383Zm-4.722 2.274.024.006v-.011l-.024.005Zm4.972 1.217c-1.333-.33-2.766-.681-4.129-1.013a2.185 2.185 0 1 1 4.129 1.013Zm4.436 1.103c-.866-.217-2.155-.538-3.618-.9a2.995 2.995 0 0 0 .243-1.425c.87.18 1.762.45 2.308.765.596.344.969.928 1.067 1.56ZM9.869 6.439c-.36-.086-.706-.167-1.03-.243a2.19 2.19 0 0 1-.376-2.667 2.188 2.188 0 0 1 3.147-.7c.098.738.338 1.599.61 2.353a3.01 3.01 0 0 0-.449.774c-.628.113-1.305.278-1.902.483Zm10.124.075a3.43 3.43 0 0 1-.217.114c-.696-.295-1.587-.526-2.397-.672a3.01 3.01 0 0 0-.449-.774c.262-.727.494-1.553.599-2.273.095-.067.189-.128.278-.18a2.188 2.188 0 0 1 2.986.8 2.188 2.188 0 0 1-.8 2.985Z"/><defs><clipPath id="aa"><path transform="translate(0 3.064)" d="M0 0h20.936v20.936H0z"/></clipPath></defs></symbol><symbol viewBox="0 0 48 48" id="cheaper" xmlns="http://www.w3.org/2000/svg"><path d="M44.167 34.5a1.55 1.55 0 0 0-1.456-.997h-2.876a.325.325 0 0 1-.325-.324v-2.955a1.757 1.757 0 0 0-1.755-1.756H32.93a1.757 1.757 0 0 0-1.755 1.756v2.955a.325.325 0 0 1-.324.325h-3.037a1.56 1.56 0 0 0-1.053 2.714l7.245 6.627a1.852 1.852 0 0 0 2.513 0l7.245-6.627a1.55 1.55 0 0 0 .403-1.718Zm-12.403-8.235h6.998a1.171 1.171 0 0 0 0-2.343h-6.998a1.171 1.171 0 0 0 0 2.343Zm0-3.886h6.998a1.171 1.171 0 0 0 0-2.342h-6.998a1.171 1.171 0 0 0 0 2.342Zm-8.727-6.969H18a1.65 1.65 0 0 0-1.65 1.65v23.899c0 .91.74 1.65 1.65 1.65h5.037a1.65 1.65 0 0 0 1.65-1.65v-23.9a1.65 1.65 0 0 0-1.65-1.65ZM6.639 4.8h5.036a1.65 1.65 0 0 1 1.65 1.65v34.412a1.65 1.65 0 0 1-1.65 1.65H6.639a1.65 1.65 0 0 1-1.65-1.65V6.45A1.65 1.65 0 0 1 6.64 4.8Z"/></symbol><symbol viewBox="0 0 344.96 344.96" id="check" xmlns="http://www.w3.org/2000/svg"><g data-name="Слой 2"><path class="ccls-1" d="m321.85 86.24-40-23.11-23.1-40H212.5L172.48 0l-40 23.11H86.24l-23.11 40-40 23.1v46.21L0 172.48l23.11 40v46.21l40 23.11 23.11 40h46.21l40 23.1 40-23.11h46.21l23.11-40 40-23.11V212.5l23.11-40-23.11-40V86.24ZM156.91 243.07a16.79 16.79 0 0 1-23.34 0l-50.45-50.44a16.19 16.19 0 0 1 0-22.89l13.35-13.35a16.19 16.19 0 0 1 22.89 0l25.87 25.87 80.34-80.35a16.19 16.19 0 0 1 22.89 0l13.35 13.35a16.19 16.19 0 0 1 0 22.89Z" data-name="Capa 1"/></g></symbol><symbol viewBox="0 0 48 48" id="earth" xmlns="http://www.w3.org/2000/svg"><path d="M24.686 43.2c2.936-.418 5.51-3.49 7.13-8.024a34.786 34.786 0 0 0-7.13-.841V43.2Zm4.691-.721a14.77 14.77 0 0 0 .948-.304c.17-.058.338-.12.505-.182.143-.055.285-.113.426-.17l.489-.207a20.535 20.535 0 0 0 1.305-.638 19.143 19.143 0 0 0 1.306-.765 16.343 16.343 0 0 0 .823-.559c.127-.09.253-.182.379-.275.14-.107.278-.216.416-.326.122-.097.244-.194.364-.295.137-.114.269-.232.402-.35.116-.104.234-.207.348-.313.13-.123.258-.25.386-.376.11-.109.223-.217.33-.329.02-.02.04-.043.06-.065a23.033 23.033 0 0 0-4.702-1.813 17.07 17.07 0 0 1-4.386 7.137c.056-.015.111-.027.167-.041.147-.041.291-.087.434-.13ZM43.2 24.688h-8.23a35.732 35.732 0 0 1-1.385 9.513 23.832 23.832 0 0 1 5.208 2.077 19.234 19.234 0 0 0 4.406-11.59Zm-18.514-1.376h8.913a34.46 34.46 0 0 0-1.351-9.175 36.08 36.08 0 0 1-7.562.904v8.271Zm0-18.512v8.865c2.4-.033 4.789-.315 7.13-.84-1.62-4.536-4.193-7.607-7.13-8.025Zm0 28.16a36.1 36.1 0 0 1 7.562.903 34.462 34.462 0 0 0 1.35-9.175h-8.912v8.271Zm14.108-21.238a23.834 23.834 0 0 1-5.208 2.077 35.732 35.732 0 0 1 1.385 9.513H43.2a19.24 19.24 0 0 0-4.406-11.59Zm-.927-1.043-.06-.064c-.108-.112-.22-.22-.331-.33-.127-.125-.254-.253-.386-.375-.113-.106-.23-.206-.348-.312-.133-.118-.266-.238-.402-.352-.119-.1-.24-.196-.361-.292a14.646 14.646 0 0 0-.796-.604 16.642 16.642 0 0 0-1.27-.84 19.128 19.128 0 0 0-.862-.49c-.138-.069-.275-.144-.412-.213a14.19 14.19 0 0 0-.48-.232c-.139-.066-.278-.13-.419-.192-.162-.072-.327-.137-.49-.206a16.346 16.346 0 0 0-.93-.351c-.142-.05-.286-.1-.43-.147a16.975 16.975 0 0 0-.52-.158 17.976 17.976 0 0 0-.43-.123c-.055-.015-.111-.026-.167-.04a17.071 17.071 0 0 1 4.386 7.135 23.04 23.04 0 0 0 4.708-1.814ZM4.8 23.312h8.228a35.74 35.74 0 0 1 1.386-9.513 23.806 23.806 0 0 1-5.208-2.077A19.236 19.236 0 0 0 4.8 23.312ZM23.314 43.2v-8.865c-2.4.033-4.79.315-7.13.84 1.618 4.536 4.193 7.607 7.13 8.025Zm0-18.512H14.4c.035 3.105.49 6.192 1.351 9.175a36.053 36.053 0 0 1 7.562-.904v-8.271Zm0-19.888c-2.937.418-5.512 3.489-7.13 8.024 2.34.526 4.73.808 7.13.841V4.8Zm0 10.24a36.08 36.08 0 0 1-7.562-.903 34.451 34.451 0 0 0-1.351 9.175h8.913v-8.271ZM19.22 5.357c-.055.015-.111.027-.166.041-.146.039-.29.082-.434.124-.172.05-.343.101-.516.156-.146.048-.29.098-.433.148-.168.06-.336.119-.502.182-.144.055-.285.112-.427.17l-.488.207a20.223 20.223 0 0 0-.894.423 19.564 19.564 0 0 0-1.274.705c-.15.09-.297.183-.444.275a17.32 17.32 0 0 0-.822.56c-.127.09-.254.182-.38.274-.14.106-.274.216-.416.326-.122.098-.245.195-.364.296-.137.113-.268.23-.4.348-.117.105-.236.207-.35.315-.13.122-.257.249-.385.374-.11.11-.223.218-.332.33-.02.021-.038.044-.06.065a23.006 23.006 0 0 0 4.703 1.814 17.063 17.063 0 0 1 4.384-7.133Zm-8.698 32.358c.128.126.255.254.386.376.114.106.231.206.348.312.133.119.266.237.403.352.119.1.24.196.36.292.138.112.275.223.42.33.124.093.25.183.376.275a16.237 16.237 0 0 0 .823.56 16.725 16.725 0 0 0 .848.514c.153.088.307.173.462.256.137.07.275.144.412.213a18.77 18.77 0 0 0 .898.424c.163.072.327.137.491.206a15.518 15.518 0 0 0 .93.352 15.895 15.895 0 0 0 .95.305c.142.041.285.084.43.122.055.015.111.027.167.041a17.075 17.075 0 0 1-4.386-7.136 23.018 23.018 0 0 0-4.703 1.814l.06.064c.102.111.213.22.325.328Zm-1.317-1.436a23.841 23.841 0 0 1 5.208-2.077 35.74 35.74 0 0 1-1.386-9.513H4.8a19.24 19.24 0 0 0 4.406 11.59Z"/></symbol><symbol viewBox="0 0 24 24" id="fb" xmlns="http://www.w3.org/2000/svg"><path d="M13.397 20.997v-8.196h2.765l.411-3.209h-3.176V7.548c0-.926.258-1.56 1.587-1.56h1.684v-2.86A22.108 22.108 0 0 0 14.201 3c-2.444 0-4.122 1.492-4.122 4.231v2.355H7.332v3.21h2.753v8.201h3.312Z"/></symbol><symbol viewBox="0 0 80 80" id="grass" xmlns="http://www.w3.org/2000/svg"><path d="M58.953 69.592c1.665-26.678 11.78-47.754 11.78-47.754-20.026 11.25-23.678 38.875-24.324 50.147.933-40.08 12.956-68.88 12.956-68.88-23.585 20.058-25.466 59.34-25.5 70.665-.364-9.807-3.225-40.03-24.41-51.932 0 0 10.838 22.581 11.924 50.583C20.777 64.886 17.343 49.974 0 44.719c0 0 9.004 10.726 9.004 32.177h61.992C70.996 55.445 80 44.719 80 44.719c-15.373 4.659-19.816 16.903-21.047 24.873Z"/></symbol><symbol viewBox="0 0 24 24" id="instagram" xmlns="http://www.w3.org/2000/svg"><path d="M11.999 7.377a4.624 4.624 0 1 0 0 9.248 4.624 4.624 0 0 0 0-9.248Zm0 7.627a3.004 3.004 0 1 1 0-6.008 3.004 3.004 0 0 1 0 6.008Zm4.807-6.719a1.078 1.078 0 1 0 0-2.156 1.078 1.078 0 0 0 0 2.156Z"/><path d="M20.533 6.11A4.605 4.605 0 0 0 17.9 3.48a6.607 6.607 0 0 0-2.186-.42c-.963-.042-1.268-.054-3.71-.054s-2.755 0-3.71.054a6.554 6.554 0 0 0-2.184.42 4.6 4.6 0 0 0-2.633 2.63 6.585 6.585 0 0 0-.419 2.186c-.043.962-.056 1.267-.056 3.71 0 2.442 0 2.753.056 3.71.015.748.156 1.486.419 2.187a4.61 4.61 0 0 0 2.634 2.632 6.583 6.583 0 0 0 2.185.45c.963.042 1.268.055 3.71.055s2.755 0 3.71-.055a6.616 6.616 0 0 0 2.186-.42 4.613 4.613 0 0 0 2.633-2.632c.263-.7.404-1.438.419-2.186.043-.962.056-1.267.056-3.71s0-2.753-.056-3.71a6.583 6.583 0 0 0-.421-2.217Zm-1.218 9.533a5.046 5.046 0 0 1-.311 1.688 2.987 2.987 0 0 1-1.712 1.71c-.535.2-1.1.305-1.67.312-.95.044-1.218.055-3.654.055-2.438 0-2.687 0-3.655-.055a4.961 4.961 0 0 1-1.67-.311 2.984 2.984 0 0 1-1.718-1.711 5.08 5.08 0 0 1-.311-1.67c-.043-.95-.053-1.217-.053-3.653 0-2.437 0-2.686.053-3.655a5.038 5.038 0 0 1 .311-1.687c.305-.79.93-1.41 1.719-1.712a5.01 5.01 0 0 1 1.669-.311c.95-.043 1.218-.055 3.655-.055s2.687 0 3.654.055a4.96 4.96 0 0 1 1.67.31 2.99 2.99 0 0 1 1.712 1.713 5.06 5.06 0 0 1 .311 1.669c.043.95.054 1.218.054 3.655 0 2.436 0 2.698-.043 3.654h-.011v-.001Z"/></symbol><symbol viewBox="0 0 200 200" id="leaf" xmlns="http://www.w3.org/2000/svg"><path d="M29.547 78.124a2.293 2.293 0 0 0 1.423 2.119l20.748 7.664-2.625 4.546a2.292 2.292 0 0 0-.111 2.027 2.293 2.293 0 0 0 1.61 1.247l18.93 3.888c-10.09 16.515-27.589 31.876-27.783 32.029a2.285 2.285 0 0 0-.72 1.86 2.294 2.294 0 0 0 1.009 1.721 33.149 33.149 0 0 0 21.053 3.42 32.414 32.414 0 0 0-.595 23.955 2.292 2.292 0 0 0 2.342 1.353 32.53 32.53 0 0 0 20.448-12.494c2.15 4.895 6.25 12.556 13.588 16.58a2.278 2.278 0 0 0 2.01.049 2.3 2.3 0 0 0 1.236-1.589c.114-.199 4.609-23.068 13.857-40.095l12.941 14.539a2.157 2.157 0 0 0 2.845.405c.292-.195.532-.459.699-.768l2.625-4.546 17.011 14.136a2.297 2.297 0 0 0 2.547.174 2.295 2.295 0 0 0 1.046-2.361l-5.925-27.746 5.211-2.286a2.288 2.288 0 0 0 1.349-2.106c-.051-.691-.697-15.94-13.432-23.637a15.308 15.308 0 0 1 10.471-10.71 2.296 2.296 0 0 0 1.414-1.407 2.295 2.295 0 0 0-.225-1.982 31.673 31.673 0 0 0-9.613-8.197 41.01 41.01 0 0 0-21.199-5.278 43.962 43.962 0 0 1 22.389-17.46 2.65 2.65 0 0 0 1.555-1.318 2.672 2.672 0 0 0-.334-2.938 2.62 2.62 0 0 0-1.812-.916 2.612 2.612 0 0 0-1.027.134 48.715 48.715 0 0 0-25.343 19.78c-10.209-18.124-26.326-19.78-27.05-19.854a2.293 2.293 0 0 0-1.863.751 2.293 2.293 0 0 0-.498 1.962 15.175 15.175 0 0 1-3.971 14.49c-13.068-7.122-26.616-.068-27.186.185a2.293 2.293 0 0 0-1.25 2.164l.607 5.644-26.951 8.766a2.293 2.293 0 0 0-1.451 2.1Zm79.469 2.233 3.782-6.551a2.288 2.288 0 0 1 1.335-1.53 2.295 2.295 0 0 1 3.155 1.82 2.3 2.3 0 0 1-.658 1.922l-3.783 6.551 24.868 35.189a2.303 2.303 0 0 1 .782 1.849 2.296 2.296 0 0 1-1.929 2.142 2.294 2.294 0 0 1-2.499-1.437l-23.524-33.434-13.949 24.16 1.37 24.402a2.292 2.292 0 0 1-2.103 2.359 2.293 2.293 0 0 1-2.32-2.08l-.993-17.673-11.714 20.289a2.29 2.29 0 0 1-2.76.358 2.287 2.287 0 0 1-1.071-2.57l11.714-20.289-15.842 7.953a2.288 2.288 0 0 1-1.944.502 2.283 2.283 0 0 1-1.593-1.221 2.295 2.295 0 0 1 1.548-3.262l21.715-11.021 13.972-24.2-40.817-3.712a2.293 2.293 0 1 1 .43-4.411l42.828 3.895Z"/></symbol><symbol viewBox="0 0 2 30" id="line" xmlns="http://www.w3.org/2000/svg"><path d="M1 0v30"/></symbol><symbol viewBox="0 0 32 32" id="phone" xmlns="http://www.w3.org/2000/svg"><g clip-path="url(#ja)"><path d="M30.24 1.76C29.065.587 27.652 0 26 0H6C4.347 0 2.934.587 1.76 1.76.587 2.934 0 4.347 0 6v20c0 1.652.587 3.066 1.76 4.24C2.934 31.413 4.347 32 6 32h20c1.652 0 3.066-.587 4.24-1.76C31.412 29.066 32 27.653 32 26V6c0-1.653-.587-3.066-1.76-4.24Zm-4.032 22.53c-.292.639-.948 1.194-1.969 1.667-1.02.472-1.927.709-2.72.709a5.26 5.26 0 0 1-.707-.052c-.25-.035-.462-.07-.636-.105a6.784 6.784 0 0 1-.687-.187 11.8 11.8 0 0 1-.615-.208 84.666 84.666 0 0 0-1.312-.49c-2.278-.833-4.504-2.337-6.677-4.51-2.174-2.174-3.677-4.4-4.51-6.677a68.563 68.563 0 0 0-.49-1.312 11.8 11.8 0 0 1-.208-.615 6.85 6.85 0 0 1-.188-.687c-.035-.174-.07-.385-.104-.635a5.162 5.162 0 0 1-.052-.709c0-.792.236-1.698.709-2.719.472-1.02 1.027-1.677 1.666-1.968.736-.306 1.438-.459 2.105-.459.152 0 .263.014.333.042.07.028.184.153.344.375.16.222.333.503.52.844.188.34.372.67.553.99a43.838 43.838 0 0 1 .833 1.54c.041.07.132.202.27.397.14.194.244.368.313.52.07.153.104.3.104.438 0 .209-.142.462-.427.76a7.108 7.108 0 0 1-.938.824c-.34.25-.652.517-.937.802-.285.284-.427.517-.427.698 0 .097.024.211.073.343a3.242 3.242 0 0 0 .333.678c.09.153.15.25.177.292.764 1.374 1.643 2.559 2.636 3.552.993.993 2.177 1.871 3.552 2.635.041.028.139.087.292.178.153.09.271.155.354.197.084.042.19.087.323.135.132.049.247.073.344.073.222 0 .528-.229.917-.687.39-.46.786-.915 1.188-1.365.402-.451.728-.677.979-.677.139 0 .284.035.438.104.152.07.326.174.52.313.195.14.326.229.396.271l1.104.604c.736.389 1.35.733 1.844 1.031.493.299.76.504.802.615.028.069.041.18.041.333 0 .666-.153 1.368-.46 2.102Z"/></g><defs><clipPath id="ja"><path d="M0 0h32v32H0z"/></clipPath></defs></symbol><symbol viewBox="0 0 40 40" id="plus" xmlns="http://www.w3.org/2000/svg"><path d="M28.281 0H11.72C5.247 0 0 5.247 0 11.719V28.28C0 34.753 5.247 40 11.719 40H28.28C34.753 40 40 34.753 40 28.281V11.72C40 5.247 34.753 0 28.281 0Zm3.047 20a1.953 1.953 0 0 1-1.953 1.953h-7.422v7.422a1.953 1.953 0 1 1-3.906 0v-7.422h-7.422a1.953 1.953 0 1 1 0-3.906h7.422v-7.422a1.953 1.953 0 1 1 3.906 0v7.422h7.422c1.079 0 1.953.874 1.953 1.953Z"/></symbol><symbol viewBox="0 0 48 48" id="quality" xmlns="http://www.w3.org/2000/svg"><path d="M40.5 9c-8.34 0-15.495-5.61-15.57-5.67a1.5 1.5 0 0 0-1.86 0C22.995 3.39 15.87 9 7.5 9A1.5 1.5 0 0 0 6 10.5V24c0 10.065 4.065 15 17.385 20.865a1.5 1.5 0 0 0 1.23 0C37.935 39 42 34.065 42 24V10.5A1.5 1.5 0 0 0 40.5 9ZM24 36a12 12 0 1 1 0-23.999A12 12 0 0 1 24 36Z"/><path d="m27.434 19.935-4.935 4.95-1.935-1.95a1.506 1.506 0 1 0-2.13 2.13l3 3a1.498 1.498 0 0 0 2.13 0l6-6a1.506 1.506 0 1 0-2.13-2.13Z"/></symbol><symbol viewBox="0 0 16 16" id="telegram" xmlns="http://www.w3.org/2000/svg"><path d="m14.629 3.698-2.012 9.618c-.152.679-.548.848-1.11.528l-3.066-2.29-1.48 1.442c-.163.166-.3.305-.616.305l.22-3.165 5.683-5.204c.247-.223-.054-.347-.384-.123L4.839 9.29l-3.024-.959c-.658-.208-.67-.667.137-.986L13.78 2.727c.548-.208 1.027.124.849.971Z"/></symbol><symbol viewBox="0 0 16 16" id="viber" xmlns="http://www.w3.org/2000/svg"><path d="M8 1.335c-1.071.013-3.374.19-4.662 1.37-.958.948-1.292 2.35-1.331 4.084-.033 1.728-.072 4.973 3.058 5.856v1.346s-.02.538.337.648c.438.14.688-.275 1.105-.72l.778-.879c2.142.178 3.782-.232 3.97-.293.435-.139 2.883-.451 3.283-3.696.41-3.351-.2-5.463-1.301-6.418h-.007c-.332-.306-1.668-1.279-4.652-1.29 0 0-.222-.014-.578-.008Zm.037.942a7.02 7.02 0 0 1 .488.011c2.527.007 3.732.767 4.017 1.023.927.794 1.405 2.697 1.055 5.495-.332 2.713-2.317 2.885-2.685 3.002-.156.05-1.6.406-3.42.289 0 0-1.356 1.634-1.78 2.055-.067.074-.146.095-.196.085-.071-.018-.093-.107-.089-.229l.013-2.233c-2.655-.733-2.498-3.5-2.47-4.946.033-1.446.304-2.628 1.113-3.43 1.088-.982 3.043-1.115 3.953-1.122Zm.2 1.446a.166.166 0 1 0 0 .332 3.136 3.136 0 0 1 2.242.883c.606.588.9 1.378.912 2.411 0 .092.074.167.167.167V7.51a.167.167 0 0 0 .168-.165 3.588 3.588 0 0 0-1.009-2.646c-.66-.645-1.496-.977-2.48-.977Zm-2.198.382a.523.523 0 0 0-.342.067H5.69a2.61 2.61 0 0 0-.637.523 1.003 1.003 0 0 0-.256.525.71.71 0 0 0 .026.302l.01.006c.172.504.396.988.67 1.444a8.48 8.48 0 0 0 1.29 1.762l.015.022.024.017.015.018.017.015c.532.505 1.127.94 1.769 1.295.734.4 1.18.588 1.447.667v.004c.078.024.15.034.221.034.228-.016.444-.109.613-.262a2.53 2.53 0 0 0 .517-.638v-.004c.128-.241.085-.469-.1-.623-.37-.323-.77-.61-1.195-.857-.285-.155-.574-.061-.69.095l-.25.315c-.129.156-.361.134-.361.134l-.007.004C7.093 8.527 6.63 6.772 6.63 6.772s-.022-.239.139-.36l.312-.252c.15-.122.254-.41.094-.695a7.498 7.498 0 0 0-.856-1.194.475.475 0 0 0-.28-.167Zm2.486.495c-.221 0-.221.334.003.334A2.098 2.098 0 0 1 10 5.572 1.94 1.94 0 0 1 10.5 7a.168.168 0 0 0 .167.165l.007.009a.169.169 0 0 0 .167-.167c.015-.662-.191-1.218-.595-1.663C9.84 4.9 9.273 4.65 8.549 4.6h-.024Zm.274.898c-.228-.006-.236.335-.01.341.55.029.816.306.851.877a.166.166 0 0 0 .165.163h.007a.168.168 0 0 0 .16-.178c-.039-.744-.445-1.164-1.166-1.202H8.8Z"/></symbol><symbol viewBox="0 0 24 24" id="vk" xmlns="http://www.w3.org/2000/svg"><path d="M21.579 6.855c.14-.465 0-.806-.662-.806h-2.193c-.558 0-.813.295-.953.619 0 0-1.115 2.719-2.695 4.482-.51.513-.743.675-1.021.675-.139 0-.341-.162-.341-.627V6.855c0-.558-.161-.806-.626-.806H9.642c-.348 0-.558.258-.558.504 0 .528.79.65.871 2.138v3.228c0 .707-.127.836-.407.836-.743 0-2.551-2.73-3.624-5.853-.209-.607-.42-.852-.98-.852H2.752c-.627 0-.752.295-.752.619 0 .582.743 3.462 3.461 7.27 1.812 2.602 4.363 4.012 6.687 4.012 1.393 0 1.565-.313 1.565-.853v-1.966c0-.626.133-.752.574-.752.324 0 .882.164 2.183 1.417 1.486 1.486 1.732 2.153 2.567 2.153h2.192c.626 0 .939-.313.759-.931-.197-.615-.907-1.51-1.849-2.57-.512-.603-1.277-1.253-1.51-1.578-.325-.42-.231-.604 0-.976.001 0 2.672-3.761 2.95-5.04Z"/></symbol><symbol viewBox="0 0 16 16" id="whatsapp" xmlns="http://www.w3.org/2000/svg"><path fill-rule="evenodd" clip-rule="evenodd" d="M12.269 3.755A5.947 5.947 0 0 0 8.035 2 5.994 5.994 0 0 0 2.05 7.985a5.98 5.98 0 0 0 .799 2.992L2 14.077l3.173-.832c.877.477 1.86.728 2.86.728h.002a5.993 5.993 0 0 0 5.533-8.276 5.953 5.953 0 0 0-1.3-1.942Zm-4.234 9.208h-.002c-.89 0-1.765-.24-2.532-.694l-.181-.108-1.883.494.502-1.835-.118-.188a4.965 4.965 0 0 1-.76-2.647 4.982 4.982 0 0 1 6.88-4.597c.604.25 1.152.618 1.613 1.081a4.946 4.946 0 0 1 1.455 3.52 4.982 4.982 0 0 1-4.974 4.974Zm2.729-3.726c-.15-.075-.885-.436-1.022-.486-.137-.05-.236-.075-.336.074-.1.15-.387.486-.474.586-.087.1-.175.112-.324.038-.15-.075-.631-.233-1.203-.742a4.505 4.505 0 0 1-.832-1.036c-.087-.15-.009-.231.066-.306.068-.066.15-.174.224-.262.075-.087.1-.149.15-.249.05-.1.025-.187-.013-.262-.037-.075-.337-.811-.461-1.11-.121-.29-.244-.252-.336-.256a6.418 6.418 0 0 0-.286-.005.55.55 0 0 0-.4.186c-.137.15-.523.512-.523 1.248s.536 1.447.61 1.547c.075.1 1.055 1.61 2.555 2.258.358.154.636.246.853.315.358.114.684.098.942.06.287-.043.885-.362 1.01-.711.124-.35.124-.649.087-.711-.038-.063-.138-.101-.287-.176Z"/></symbol></svg>