<?xml version="1.0" encoding="utf-8"?><svg xmlns="http://www.w3.org/2000/svg" xmlns:xlink="http://www.w3.org/1999/xlink"><symbol viewBox="0 0 88 8" id="arrow" xmlns="http://www.w3.org/2000/svg"><path d="M.646 4.354a.5.5 0 0 1 0-.708L3.828.464a.5.5 0 0 1 .708.708L1.707 4l2.829 2.828a.5.5 0 1 1-.708.708L.646 4.354ZM88 4.5H1v-1h87v1Z"/></symbol><symbol viewBox="0 0 22 24" id="basket" xmlns="http://www.w3.org/2000/svg"><g clip-path="url(#ba)"><path d="M10.363 18.443a2.046 2.046 0 0 0-2.045 2.042 2.046 2.046 0 0 0 4.09 0 2.046 2.046 0 0 0-2.045-2.042Zm6.134 0a2.046 2.046 0 0 0-2.045 2.042 2.046 2.046 0 0 0 4.089 0 2.046 2.046 0 0 0-2.044-2.042Zm3.978-8.199L7.413 6.891a.614.614 0 0 0-.75.73L8.67 16.4h-.786L5.482 5.895a.613.613 0 0 0-.474-.464l-4.27-.882A.614.614 0 0 0 .489 5.75l3.885.802L6.797 17.15a.613.613 0 0 0 .598.477h12.07a.615.615 0 0 0 .607-.53l.858-6.175a.613.613 0 0 0-.455-.678Zm-8.14 3.91a.613.613 0 0 1-1.227 0v-2.696a.613.613 0 0 1 1.227 0v2.696Zm2.625 0a.613.613 0 0 1-1.227 0v-1.88a.613.613 0 0 1 1.227 0v1.88Zm2.625 0a.613.613 0 0 1-1.227 0v-1.226a.613.613 0 0 1 1.227 0v1.226Z"/></g><path fill-rule="evenodd" clip-rule="evenodd" d="M16.268 4.568a2.996 2.996 0 0 0-1.693-.523c-.627 0-1.21.193-1.693.523-.28-.843-.492-1.752-.492-2.383C12.39.98 13.37 0 14.575 0s2.185.98 2.185 2.185c0 .631-.212 1.54-.492 2.383Zm-4.722 2.274.024.006v-.011l-.024.005Zm4.972 1.217c-1.333-.33-2.766-.681-4.129-1.013a2.185 2.185 0 1 1 4.129 1.013Zm4.436 1.103c-.866-.217-2.155-.538-3.618-.9a2.995 2.995 0 0 0 .243-1.425c.87.18 1.762.45 2.308.765.596.344.969.928 1.067 1.56ZM9.869 6.439c-.36-.086-.706-.167-1.03-.243a2.19 2.19 0 0 1-.376-2.667 2.188 2.188 0 0 1 3.147-.7c.098.738.338 1.599.61 2.353a3.01 3.01 0 0 0-.449.774c-.628.113-1.305.278-1.902.483Zm10.124.075a3.43 3.43 0 0 1-.217.114c-.696-.295-1.587-.526-2.397-.672a3.01 3.01 0 0 0-.449-.774c.262-.727.494-1.553.599-2.273.095-.067.189-.128.278-.18a2.188 2.188 0 0 1 2.986.8 2.188 2.188 0 0 1-.8 2.985Z"/><defs><clipPath id="ba"><path transform="translate(0 3.064)" d="M0 0h20.936v20.936H0z"/></clipPath></defs></symbol><symbol viewBox="0 0 48 48" id="cheaper" xmlns="http://www.w3.org/2000/svg"><path d="M44.167 34.5a1.55 1.55 0 0 0-1.456-.997h-2.876a.325.325 0 0 1-.325-.324v-2.955a1.757 1.757 0 0 0-1.755-1.756H32.93a1.757 1.757 0 0 0-1.755 1.756v2.955a.325.325 0 0 1-.324.325h-3.037a1.56 1.56 0 0 0-1.053 2.714l7.245 6.627a1.852 1.852 0 0 0 2.513 0l7.245-6.627a1.55 1.55 0 0 0 .403-1.718Zm-12.403-8.235h6.998a1.171 1.171 0 0 0 0-2.343h-6.998a1.171 1.171 0 0 0 0 2.343Zm0-3.886h6.998a1.171 1.171 0 0 0 0-2.342h-6.998a1.171 1.171 0 0 0 0 2.342Zm-8.727-6.969H18a1.65 1.65 0 0 0-1.65 1.65v23.899c0 .91.74 1.65 1.65 1.65h5.037a1.65 1.65 0 0 0 1.65-1.65v-23.9a1.65 1.65 0 0 0-1.65-1.65ZM6.639 4.8h5.036a1.65 1.65 0 0 1 1.65 1.65v34.412a1.65 1.65 0 0 1-1.65 1.65H6.639a1.65 1.65 0 0 1-1.65-1.65V6.45A1.65 1.65 0 0 1 6.64 4.8Z"/></symbol><symbol viewBox="0 0 344.96 344.96" id="check" xmlns="http://www.w3.org/2000/svg"><g data-name="Слой 2"><path class="dcls-1" d="m321.85 86.24-40-23.11-23.1-40H212.5L172.48 0l-40 23.11H86.24l-23.11 40-40 23.1v46.21L0 172.48l23.11 40v46.21l40 23.11 23.11 40h46.21l40 23.1 40-23.11h46.21l23.11-40 40-23.11V212.5l23.11-40-23.11-40V86.24ZM156.91 243.07a16.79 16.79 0 0 1-23.34 0l-50.45-50.44a16.19 16.19 0 0 1 0-22.89l13.35-13.35a16.19 16.19 0 0 1 22.89 0l25.87 25.87 80.34-80.35a16.19 16.19 0 0 1 22.89 0l13.35 13.35a16.19 16.19 0 0 1 0 22.89Z" data-name="Capa 1"/></g></symbol><symbol viewBox="0 0 48 48" id="earth" xmlns="http://www.w3.org/2000/svg"><path d="M24.686 43.2c2.936-.418 5.51-3.49 7.13-8.024a34.786 34.786 0 0 0-7.13-.841V43.2Zm4.691-.721a14.77 14.77 0 0 0 .948-.304c.17-.058.338-.12.505-.182.143-.055.285-.113.426-.17l.489-.207a20.535 20.535 0 0 0 1.305-.638 19.143 19.143 0 0 0 1.306-.765 16.343 16.343 0 0 0 .823-.559c.127-.09.253-.182.379-.275.14-.107.278-.216.416-.326.122-.097.244-.194.364-.295.137-.114.269-.232.402-.35.116-.104.234-.207.348-.313.13-.123.258-.25.386-.376.11-.109.223-.217.33-.329.02-.02.04-.043.06-.065a23.033 23.033 0 0 0-4.702-1.813 17.07 17.07 0 0 1-4.386 7.137c.056-.015.111-.027.167-.041.147-.041.291-.087.434-.13ZM43.2 24.688h-8.23a35.732 35.732 0 0 1-1.385 9.513 23.832 23.832 0 0 1 5.208 2.077 19.234 19.234 0 0 0 4.406-11.59Zm-18.514-1.376h8.913a34.46 34.46 0 0 0-1.351-9.175 36.08 36.08 0 0 1-7.562.904v8.271Zm0-18.512v8.865c2.4-.033 4.789-.315 7.13-.84-1.62-4.536-4.193-7.607-7.13-8.025Zm0 28.16a36.1 36.1 0 0 1 7.562.903 34.462 34.462 0 0 0 1.35-9.175h-8.912v8.271Zm14.108-21.238a23.834 23.834 0 0 1-5.208 2.077 35.732 35.732 0 0 1 1.385 9.513H43.2a19.24 19.24 0 0 0-4.406-11.59Zm-.927-1.043-.06-.064c-.108-.112-.22-.22-.331-.33-.127-.125-.254-.253-.386-.375-.113-.106-.23-.206-.348-.312-.133-.118-.266-.238-.402-.352-.119-.1-.24-.196-.361-.292a14.646 14.646 0 0 0-.796-.604 16.642 16.642 0 0 0-1.27-.84 19.128 19.128 0 0 0-.862-.49c-.138-.069-.275-.144-.412-.213a14.19 14.19 0 0 0-.48-.232c-.139-.066-.278-.13-.419-.192-.162-.072-.327-.137-.49-.206a16.346 16.346 0 0 0-.93-.351c-.142-.05-.286-.1-.43-.147a16.975 16.975 0 0 0-.52-.158 17.976 17.976 0 0 0-.43-.123c-.055-.015-.111-.026-.167-.04a17.071 17.071 0 0 1 4.386 7.135 23.04 23.04 0 0 0 4.708-1.814ZM4.8 23.312h8.228a35.74 35.74 0 0 1 1.386-9.513 23.806 23.806 0 0 1-5.208-2.077A19.236 19.236 0 0 0 4.8 23.312ZM23.314 43.2v-8.865c-2.4.033-4.79.315-7.13.84 1.618 4.536 4.193 7.607 7.13 8.025Zm0-18.512H14.4c.035 3.105.49 6.192 1.351 9.175a36.053 36.053 0 0 1 7.562-.904v-8.271Zm0-19.888c-2.937.418-5.512 3.489-7.13 8.024 2.34.526 4.73.808 7.13.841V4.8Zm0 10.24a36.08 36.08 0 0 1-7.562-.903 34.451 34.451 0 0 0-1.351 9.175h8.913v-8.271ZM19.22 5.357c-.055.015-.111.027-.166.041-.146.039-.29.082-.434.124-.172.05-.343.101-.516.156-.146.048-.29.098-.433.148-.168.06-.336.119-.502.182-.144.055-.285.112-.427.17l-.488.207a20.223 20.223 0 0 0-.894.423 19.564 19.564 0 0 0-1.274.705c-.15.09-.297.183-.444.275a17.32 17.32 0 0 0-.822.56c-.127.09-.254.182-.38.274-.14.106-.274.216-.416.326-.122.098-.245.195-.364.296-.137.113-.268.23-.4.348-.117.105-.236.207-.35.315-.13.122-.257.249-.385.374-.11.11-.223.218-.332.33-.02.021-.038.044-.06.065a23.006 23.006 0 0 0 4.703 1.814 17.063 17.063 0 0 1 4.384-7.133Zm-8.698 32.358c.128.126.255.254.386.376.114.106.231.206.348.312.133.119.266.237.403.352.119.1.24.196.36.292.138.112.275.223.42.33.124.093.25.183.376.275a16.237 16.237 0 0 0 .823.56 16.725 16.725 0 0 0 .848.514c.153.088.307.173.462.256.137.07.275.144.412.213a18.77 18.77 0 0 0 .898.424c.163.072.327.137.491.206a15.518 15.518 0 0 0 .93.352 15.895 15.895 0 0 0 .95.305c.142.041.285.084.43.122.055.015.111.027.167.041a17.075 17.075 0 0 1-4.386-7.136 23.018 23.018 0 0 0-4.703 1.814l.06.064c.102.111.213.22.325.328Zm-1.317-1.436a23.841 23.841 0 0 1 5.208-2.077 35.74 35.74 0 0 1-1.386-9.513H4.8a19.24 19.24 0 0 0 4.406 11.59Z"/></symbol><symbol viewBox="0 0 24 24" id="fb" xmlns="http://www.w3.org/2000/svg"><path d="M13.397 20.997v-8.196h2.765l.411-3.209h-3.176V7.548c0-.926.258-1.56 1.587-1.56h1.684v-2.86A22.108 22.108 0 0 0 14.201 3c-2.444 0-4.122 1.492-4.122 4.231v2.355H7.332v3.21h2.753v8.201h3.312Z"/></symbol><symbol viewBox="0 0 80 80" id="grass" xmlns="http://www.w3.org/2000/svg"><path d="M58.953 69.592c1.665-26.678 11.78-47.754 11.78-47.754-20.026 11.25-23.678 38.875-24.324 50.147.933-40.08 12.956-68.88 12.956-68.88-23.585 20.058-25.466 59.34-25.5 70.665-.364-9.807-3.225-40.03-24.41-51.932 0 0 10.838 22.581 11.924 50.583C20.777 64.886 17.343 49.974 0 44.719c0 0 9.004 10.726 9.004 32.177h61.992C70.996 55.445 80 44.719 80 44.719c-15.373 4.659-19.816 16.903-21.047 24.873Z"/></symbol><symbol viewBox="0 0 24 24" id="instagram" xmlns="http://www.w3.org/2000/svg"><path d="M11.999 7.377a4.624 4.624 0 1 0 0 9.248 4.624 4.624 0 0 0 0-9.248Zm0 7.627a3.004 3.004 0 1 1 0-6.008 3.004 3.004 0 0 1 0 6.008Zm4.807-6.719a1.078 1.078 0 1 0 0-2.156 1.078 1.078 0 0 0 0 2.156Z"/><path d="M20.533 6.11A4.605 4.605 0 0 0 17.9 3.48a6.607 6.607 0 0 0-2.186-.42c-.963-.042-1.268-.054-3.71-.054s-2.755 0-3.71.054a6.554 6.554 0 0 0-2.184.42 4.6 4.6 0 0 0-2.633 2.63 6.585 6.585 0 0 0-.419 2.186c-.043.962-.056 1.267-.056 3.71 0 2.442 0 2.753.056 3.71.015.748.156 1.486.419 2.187a4.61 4.61 0 0 0 2.634 2.632 6.583 6.583 0 0 0 2.185.45c.963.042 1.268.055 3.71.055s2.755 0 3.71-.055a6.616 6.616 0 0 0 2.186-.42 4.613 4.613 0 0 0 2.633-2.632c.263-.7.404-1.438.419-2.186.043-.962.056-1.267.056-3.71s0-2.753-.056-3.71a6.583 6.583 0 0 0-.421-2.217Zm-1.218 9.533a5.046 5.046 0 0 1-.311 1.688 2.987 2.987 0 0 1-1.712 1.71c-.535.2-1.1.305-1.67.312-.95.044-1.218.055-3.654.055-2.438 0-2.687 0-3.655-.055a4.961 4.961 0 0 1-1.67-.311 2.984 2.984 0 0 1-1.718-1.711 5.08 5.08 0 0 1-.311-1.67c-.043-.95-.053-1.217-.053-3.653 0-2.437 0-2.686.053-3.655a5.038 5.038 0 0 1 .311-1.687c.305-.79.93-1.41 1.719-1.712a5.01 5.01 0 0 1 1.669-.311c.95-.043 1.218-.055 3.655-.055s2.687 0 3.654.055a4.96 4.96 0 0 1 1.67.31 2.99 2.99 0 0 1 1.712 1.713 5.06 5.06 0 0 1 .311 1.669c.043.95.054 1.218.054 3.655 0 2.436 0 2.698-.043 3.654h-.011v-.001Z"/></symbol><symbol viewBox="0 0 200 200" id="leaf" xmlns="http://www.w3.org/2000/svg"><path d="M29.547 78.124a2.293 2.293 0 0 0 1.423 2.119l20.748 7.664-2.625 4.546a2.292 2.292 0 0 0-.111 2.027 2.293 2.293 0 0 0 1.61 1.247l18.93 3.888c-10.09 16.515-27.589 31.876-27.783 32.029a2.285 2.285 0 0 0-.72 1.86 2.294 2.294 0 0 0 1.009 1.721 33.149 33.149 0 0 0 21.053 3.42 32.414 32.414 0 0 0-.595 23.955 2.292 2.292 0 0 0 2.342 1.353 32.53 32.53 0 0 0 20.448-12.494c2.15 4.895 6.25 12.556 13.588 16.58a2.278 2.278 0 0 0 2.01.049 2.3 2.3 0 0 0 1.236-1.589c.114-.199 4.609-23.068 13.857-40.095l12.941 14.539a2.157 2.157 0 0 0 2.845.405c.292-.195.532-.459.699-.768l2.625-4.546 17.011 14.136a2.297 2.297 0 0 0 2.547.174 2.295 2.295 0 0 0 1.046-2.361l-5.925-27.746 5.211-2.286a2.288 2.288 0 0 0 1.349-2.106c-.051-.691-.697-15.94-13.432-23.637a15.308 15.308 0 0 1 10.471-10.71 2.296 2.296 0 0 0 1.414-1.407 2.295 2.295 0 0 0-.225-1.982 31.673 31.673 0 0 0-9.613-8.197 41.01 41.01 0 0 0-21.199-5.278 43.962 43.962 0 0 1 22.389-17.46 2.65 2.65 0 0 0 1.555-1.318 2.672 2.672 0 0 0-.334-2.938 2.62 2.62 0 0 0-1.812-.916 2.612 2.612 0 0 0-1.027.134 48.715 48.715 0 0 0-25.343 19.78c-10.209-18.124-26.326-19.78-27.05-19.854a2.293 2.293 0 0 0-1.863.751 2.293 2.293 0 0 0-.498 1.962 15.175 15.175 0 0 1-3.971 14.49c-13.068-7.122-26.616-.068-27.186.185a2.293 2.293 0 0 0-1.25 2.164l.607 5.644-26.951 8.766a2.293 2.293 0 0 0-1.451 2.1Zm79.469 2.233 3.782-6.551a2.288 2.288 0 0 1 1.335-1.53 2.295 2.295 0 0 1 3.155 1.82 2.3 2.3 0 0 1-.658 1.922l-3.783 6.551 24.868 35.189a2.303 2.303 0 0 1 .782 1.849 2.296 2.296 0 0 1-1.929 2.142 2.294 2.294 0 0 1-2.499-1.437l-23.524-33.434-13.949 24.16 1.37 24.402a2.292 2.292 0 0 1-2.103 2.359 2.293 2.293 0 0 1-2.32-2.08l-.993-17.673-11.714 20.289a2.29 2.29 0 0 1-2.76.358 2.287 2.287 0 0 1-1.071-2.57l11.714-20.289-15.842 7.953a2.288 2.288 0 0 1-1.944.502 2.283 2.283 0 0 1-1.593-1.221 2.295 2.295 0 0 1 1.548-3.262l21.715-11.021 13.972-24.2-40.817-3.712a2.293 2.293 0 1 1 .43-4.411l42.828 3.895Z"/></symbol><symbol viewBox="0 0 2 30" id="line" xmlns="http://www.w3.org/2000/svg"><path d="M1 0v30"/></symbol><symbol viewBox="0 0 32 32" id="phone" xmlns="http://www.w3.org/2000/svg"><g clip-path="url(#la)"><path d="M30.24 1.76C29.065.587 27.652 0 26 0H6C4.347 0 2.934.587 1.76 1.76.587 2.934 0 4.347 0 6v20c0 1.652.587 3.066 1.76 4.24C2.934 31.413 4.347 32 6 32h20c1.652 0 3.066-.587 4.24-1.76C31.412 29.066 32 27.653 32 26V6c0-1.653-.587-3.066-1.76-4.24Zm-4.032 22.53c-.292.639-.948 1.194-1.969 1.667-1.02.472-1.927.709-2.72.709a5.26 5.26 0 0 1-.707-.052c-.25-.035-.462-.07-.636-.105a6.784 6.784 0 0 1-.687-.187 11.8 11.8 0 0 1-.615-.208 84.666 84.666 0 0 0-1.312-.49c-2.278-.833-4.504-2.337-6.677-4.51-2.174-2.174-3.677-4.4-4.51-6.677a68.563 68.563 0 0 0-.49-1.312 11.8 11.8 0 0 1-.208-.615 6.85 6.85 0 0 1-.188-.687c-.035-.174-.07-.385-.104-.635a5.162 5.162 0 0 1-.052-.709c0-.792.236-1.698.709-2.719.472-1.02 1.027-1.677 1.666-1.968.736-.306 1.438-.459 2.105-.459.152 0 .263.014.333.042.07.028.184.153.344.375.16.222.333.503.52.844.188.34.372.67.553.99a43.838 43.838 0 0 1 .833 1.54c.041.07.132.202.27.397.14.194.244.368.313.52.07.153.104.3.104.438 0 .209-.142.462-.427.76a7.108 7.108 0 0 1-.938.824c-.34.25-.652.517-.937.802-.285.284-.427.517-.427.698 0 .097.024.211.073.343a3.242 3.242 0 0 0 .333.678c.09.153.15.25.177.292.764 1.374 1.643 2.559 2.636 3.552.993.993 2.177 1.871 3.552 2.635.041.028.139.087.292.178.153.09.271.155.354.197.084.042.19.087.323.135.132.049.247.073.344.073.222 0 .528-.229.917-.687.39-.46.786-.915 1.188-1.365.402-.451.728-.677.979-.677.139 0 .284.035.438.104.152.07.326.174.52.313.195.14.326.229.396.271l1.104.604c.736.389 1.35.733 1.844 1.031.493.299.76.504.802.615.028.069.041.18.041.333 0 .666-.153 1.368-.46 2.102Z"/></g><defs><clipPath id="la"><path d="M0 0h32v32H0z"/></clipPath></defs></symbol><symbol viewBox="0 0 24 25" id="phone-sm" xmlns="http://www.w3.org/2000/svg"><g clip-path="url(#ka)"><path d="m23.347 18.114-3.35-3.35c-1.195-1.196-3.229-.717-3.707.838-.36 1.076-1.555 1.674-2.632 1.435-2.392-.598-5.622-3.708-6.22-6.22-.359-1.077.359-2.273 1.435-2.632 1.555-.478 2.034-2.512.838-3.708L6.36 1.128c-.957-.837-2.392-.837-3.23 0L.86 3.401c-2.273 2.392.24 8.732 5.861 14.354 5.622 5.622 11.962 8.253 14.354 5.861l2.273-2.273c.837-.957.837-2.392 0-3.23Z"/></g><defs><clipPath id="ka"><path transform="translate(0 .5)" d="M0 0h24v24H0z"/></clipPath></defs></symbol><symbol viewBox="0 0 40 40" id="plus" xmlns="http://www.w3.org/2000/svg"><path d="M28.281 0H11.72C5.247 0 0 5.247 0 11.719V28.28C0 34.753 5.247 40 11.719 40H28.28C34.753 40 40 34.753 40 28.281V11.72C40 5.247 34.753 0 28.281 0Zm3.047 20a1.953 1.953 0 0 1-1.953 1.953h-7.422v7.422a1.953 1.953 0 1 1-3.906 0v-7.422h-7.422a1.953 1.953 0 1 1 0-3.906h7.422v-7.422a1.953 1.953 0 1 1 3.906 0v7.422h7.422c1.079 0 1.953.874 1.953 1.953Z"/></symbol><symbol viewBox="0 0 48 48" id="quality" xmlns="http://www.w3.org/2000/svg"><path d="M40.5 9c-8.34 0-15.495-5.61-15.57-5.67a1.5 1.5 0 0 0-1.86 0C22.995 3.39 15.87 9 7.5 9A1.5 1.5 0 0 0 6 10.5V24c0 10.065 4.065 15 17.385 20.865a1.5 1.5 0 0 0 1.23 0C37.935 39 42 34.065 42 24V10.5A1.5 1.5 0 0 0 40.5 9ZM24 36a12 12 0 1 1 0-23.999A12 12 0 0 1 24 36Z"/><path d="m27.434 19.935-4.935 4.95-1.935-1.95a1.506 1.506 0 1 0-2.13 2.13l3 3a1.498 1.498 0 0 0 2.13 0l6-6a1.506 1.506 0 1 0-2.13-2.13Z"/></symbol><symbol viewBox="0 0 72 72" id="sunshine" xmlns="http://www.w3.org/2000/svg"><g clip-path="url(#oa)"><path d="M33.75 2.09v4.218c0 2.781 4.219 2.793 4.219 0V2.09c0-2.78-4.219-2.792-4.219 0Zm31.64 27.723h-4.218c-2.78 0-2.792 4.218 0 4.218h4.219c2.78 0 2.792-4.218 0-4.218Zm-54.843 0H6.328c-2.78 0-2.792 4.218 0 4.218h4.219c2.78 0 2.792-4.218 0-4.218Zm49.832-14.785-3.652 2.11c-2.392 1.38-.324 5.06 2.109 3.654l3.652-2.11c2.427-1.401.282-5.05-2.11-3.654ZM48.798 4.992l-2.11 3.653c-.814 1.41.21 3.164 1.825 3.164.73 0 1.438-.377 1.83-1.055l2.11-3.652c1.396-2.419-2.27-4.522-3.655-2.11ZM25.03 8.645l-2.11-3.653c-1.408-2.427-5.04-.29-3.653 2.11l2.109 3.652c1.397 2.42 5.058.32 3.654-2.11Zm-10.038 8.493-3.652-2.11c-2.393-1.394-4.537 2.252-2.11 3.655l3.653 2.109c2.417 1.396 4.517-2.264 2.11-3.654Zm20.867-4.501c-10.462 0-18.984 8.822-18.984 19.285 0 .717.042 1.434.169 2.11h37.631c.127-.676.169-1.393.169-2.11 0-10.463-8.522-19.285-18.985-19.285ZM49.382 38.25h-3.211L55.813 72h12.855L49.382 38.25Zm-26.763 0L3.333 72h12.853l9.644-33.75h-3.21Zm47.272 0H54.24L72 69.33V40.36c0-1.182-.928-2.11-2.11-2.11Zm-39.672 0L20.575 72H33.75V38.25h-3.531Zm-28.11 0A2.089 2.089 0 0 0 0 40.36v28.97l17.76-31.08H2.11Zm39.673 0h-3.813V72h13.455l-9.642-33.75Z"/></g><defs><clipPath id="oa"><path d="M0 0h72v72H0z"/></clipPath></defs></symbol><symbol viewBox="0 0 32 33" id="telegram" xmlns="http://www.w3.org/2000/svg"><g clip-path="url(#pa)"><path d="M16 32.5c8.839 0 16-7.161 16-16S24.839.5 16 .5 0 7.661 0 16.5s7.161 16 16 16ZM7.321 16.153l15.427-5.948c.716-.258 1.341.175 1.11 1.258v-.002l-2.626 12.375c-.195.877-.716 1.09-1.445.677l-4-2.948-1.93 1.859c-.213.213-.393.393-.806.393l.284-4.07 7.413-6.698c.323-.284-.072-.444-.497-.161l-9.162 5.768-3.949-1.232c-.857-.272-.876-.857.181-1.27Z"/></g><defs><clipPath id="pa"><path transform="translate(0 .5)" d="M0 0h32v32H0z"/></clipPath></defs></symbol><symbol viewBox="0 0 16 16" id="viber" xmlns="http://www.w3.org/2000/svg"><path d="M8 1.335c-1.071.013-3.374.19-4.662 1.37-.958.948-1.292 2.35-1.331 4.084-.033 1.728-.072 4.973 3.058 5.856v1.346s-.02.538.337.648c.438.14.688-.275 1.105-.72l.778-.879c2.142.178 3.782-.232 3.97-.293.435-.139 2.883-.451 3.283-3.696.41-3.351-.2-5.463-1.301-6.418h-.007c-.332-.306-1.668-1.279-4.652-1.29 0 0-.222-.014-.578-.008Zm.037.942a7.02 7.02 0 0 1 .488.011c2.527.007 3.732.767 4.017 1.023.927.794 1.405 2.697 1.055 5.495-.332 2.713-2.317 2.885-2.685 3.002-.156.05-1.6.406-3.42.289 0 0-1.356 1.634-1.78 2.055-.067.074-.146.095-.196.085-.071-.018-.093-.107-.089-.229l.013-2.233c-2.655-.733-2.498-3.5-2.47-4.946.033-1.446.304-2.628 1.113-3.43 1.088-.982 3.043-1.115 3.953-1.122Zm.2 1.446a.166.166 0 1 0 0 .332 3.136 3.136 0 0 1 2.242.883c.606.588.9 1.378.912 2.411 0 .092.074.167.167.167V7.51a.167.167 0 0 0 .168-.165 3.588 3.588 0 0 0-1.009-2.646c-.66-.645-1.496-.977-2.48-.977Zm-2.198.382a.523.523 0 0 0-.342.067H5.69a2.61 2.61 0 0 0-.637.523 1.003 1.003 0 0 0-.256.525.71.71 0 0 0 .026.302l.01.006c.172.504.396.988.67 1.444a8.48 8.48 0 0 0 1.29 1.762l.015.022.024.017.015.018.017.015c.532.505 1.127.94 1.769 1.295.734.4 1.18.588 1.447.667v.004c.078.024.15.034.221.034.228-.016.444-.109.613-.262a2.53 2.53 0 0 0 .517-.638v-.004c.128-.241.085-.469-.1-.623-.37-.323-.77-.61-1.195-.857-.285-.155-.574-.061-.69.095l-.25.315c-.129.156-.361.134-.361.134l-.007.004C7.093 8.527 6.63 6.772 6.63 6.772s-.022-.239.139-.36l.312-.252c.15-.122.254-.41.094-.695a7.498 7.498 0 0 0-.856-1.194.475.475 0 0 0-.28-.167Zm2.486.495c-.221 0-.221.334.003.334A2.098 2.098 0 0 1 10 5.572 1.94 1.94 0 0 1 10.5 7a.168.168 0 0 0 .167.165l.007.009a.169.169 0 0 0 .167-.167c.015-.662-.191-1.218-.595-1.663C9.84 4.9 9.273 4.65 8.549 4.6h-.024Zm.274.898c-.228-.006-.236.335-.01.341.55.029.816.306.851.877a.166.166 0 0 0 .165.163h.007a.168.168 0 0 0 .16-.178c-.039-.744-.445-1.164-1.166-1.202H8.8Z"/></symbol><symbol viewBox="0 0 24 24" id="vk" xmlns="http://www.w3.org/2000/svg"><path d="M21.579 6.855c.14-.465 0-.806-.662-.806h-2.193c-.558 0-.813.295-.953.619 0 0-1.115 2.719-2.695 4.482-.51.513-.743.675-1.021.675-.139 0-.341-.162-.341-.627V6.855c0-.558-.161-.806-.626-.806H9.642c-.348 0-.558.258-.558.504 0 .528.79.65.871 2.138v3.228c0 .707-.127.836-.407.836-.743 0-2.551-2.73-3.624-5.853-.209-.607-.42-.852-.98-.852H2.752c-.627 0-.752.295-.752.619 0 .582.743 3.462 3.461 7.27 1.812 2.602 4.363 4.012 6.687 4.012 1.393 0 1.565-.313 1.565-.853v-1.966c0-.626.133-.752.574-.752.324 0 .882.164 2.183 1.417 1.486 1.486 1.732 2.153 2.567 2.153h2.192c.626 0 .939-.313.759-.931-.197-.615-.907-1.51-1.849-2.57-.512-.603-1.277-1.253-1.51-1.578-.325-.42-.231-.604 0-.976.001 0 2.672-3.761 2.95-5.04Z"/></symbol><symbol viewBox="0 0 32 33" id="whatsapp" xmlns="http://www.w3.org/2000/svg"><g clip-path="url(#sa)"><path d="M16.004.5h-.008C7.174.5 0 7.676 0 16.5c0 3.5 1.128 6.744 3.046 9.378l-1.994 5.944 6.15-1.966a15.862 15.862 0 0 0 8.802 2.644C24.826 32.5 32 25.322 32 16.5S24.826.5 16.004.5Zm9.31 22.594c-.386 1.09-1.918 1.994-3.14 2.258-.836.178-1.928.32-5.604-1.204-4.702-1.948-7.73-6.726-7.966-7.036-.226-.31-1.9-2.53-1.9-4.826S7.87 8.872 8.34 8.392c.386-.394 1.024-.574 1.636-.574.198 0 .376.01.536.018.47.02.706.048 1.016.79.386.93 1.326 3.226 1.438 3.462.114.236.228.556.068.866-.15.32-.282.462-.518.734-.236.272-.46.48-.696.772-.216.254-.46.526-.188.996.272.46 1.212 1.994 2.596 3.226 1.786 1.59 3.234 2.098 3.752 2.314.386.16.846.122 1.128-.178.358-.386.8-1.026 1.25-1.656.32-.452.724-.508 1.148-.348.432.15 2.718 1.28 3.188 1.514.47.236.78.348.894.546.112.198.112 1.128-.274 2.22Z"/></g><defs><clipPath id="sa"><path transform="translate(0 .5)" d="M0 0h32v32H0z"/></clipPath></defs></symbol><symbol viewBox="0 0 59 42" id="wheat" xmlns="http://www.w3.org/2000/svg"><path d="M8.031 10.631v5.417A5.524 5.524 0 0 1 12.09 14.3h1.676a.77.77 0 0 1 .765.766v.375c0 3.077-2.513 5.59-5.59 5.59h-.91v5.417A5.548 5.548 0 0 1 12.09 24.7h1.676a.77.77 0 0 1 .765.766v.375c0 3.077-2.513 5.59-5.59 5.59h-.91v10.155c-.578 0-1.069-.044-1.531-.102V31.402h-.91c-3.077 0-5.59-2.513-5.59-5.59v-.375a.77.77 0 0 1 .766-.766H2.44c1.603 0 3.033.679 4.059 1.748v-5.417h-.91c-3.077 0-5.59-2.513-5.59-5.59v-.375a.77.77 0 0 1 .766-.766H2.44c1.603 0 3.033.679 4.059 1.748v-5.417h-.91C2.513 10.602 0 8.09 0 5.012v-.375a.77.77 0 0 1 .766-.766H2.44c1.603 0 3.033.679 4.059 1.748V.766A.77.77 0 0 1 7.266 0a.77.77 0 0 1 .765.766v4.882A5.549 5.549 0 0 1 12.09 3.9h1.676a.77.77 0 0 1 .765.766v.375c0 3.077-2.513 5.59-5.59 5.59h-.91Zm22.086 0v5.417a5.524 5.524 0 0 1 4.059-1.748h1.675a.77.77 0 0 1 .766.766v.375c0 3.077-2.514 5.59-5.59 5.59h-.91v5.417a5.524 5.524 0 0 1 4.059-1.748h1.675a.77.77 0 0 1 .766.766v.375c0 3.077-2.514 5.59-5.59 5.59h-.91v10.14c-.246.015-.491.015-.766.015-.274 0-.52 0-.765-.015V31.402h-.91c-3.077 0-5.59-2.513-5.59-5.59v-.375a.77.77 0 0 1 .765-.766h1.676c1.603 0 3.033.679 4.059 1.748v-5.417h-.91c-3.077 0-5.59-2.513-5.59-5.59v-.375a.77.77 0 0 1 .765-.766h1.676c1.603 0 3.033.679 4.059 1.748v-5.417h-.91c-3.077 0-5.59-2.513-5.59-5.59v-.375a.77.77 0 0 1 .765-.766h1.676c1.603 0 3.033.679 4.059 1.748V.78a.77.77 0 0 1 .765-.766.77.77 0 0 1 .766.766v4.882a5.524 5.524 0 0 1 4.059-1.748h1.675a.77.77 0 0 1 .766.766v.376c0 3.076-2.514 5.59-5.59 5.59h-.91v-.015Zm22.07 0v5.417a5.524 5.524 0 0 1 4.06-1.748h1.675a.77.77 0 0 1 .766.766v.375c0 3.077-2.514 5.59-5.59 5.59h-.91v5.417a5.524 5.524 0 0 1 4.059-1.748h1.675a.77.77 0 0 1 .766.766v.375c0 3.077-2.514 5.59-5.59 5.59h-.91v10.053a11.78 11.78 0 0 1-1.531.102V31.402h-.91c-3.077 0-5.59-2.513-5.59-5.59v-.375a.77.77 0 0 1 .765-.766h1.676a5.63 5.63 0 0 1 4.059 1.748v-5.417h-.91c-3.077 0-5.59-2.513-5.59-5.59v-.375a.77.77 0 0 1 .765-.766h1.676a5.63 5.63 0 0 1 4.059 1.748v-5.417h-.91c-3.077 0-5.59-2.513-5.59-5.59v-.375a.77.77 0 0 1 .765-.766h1.676a5.63 5.63 0 0 1 4.059 1.748V.78a.77.77 0 0 1 .765-.766.77.77 0 0 1 .766.766v4.882a5.524 5.524 0 0 1 4.059-1.748h1.675a.77.77 0 0 1 .766.766v.376c0 3.076-2.514 5.59-5.59 5.59l-.91-.015Z"/></symbol><symbol viewBox="0 0 56 56" id="work-1" xmlns="http://www.w3.org/2000/svg"><g clip-path="url(#ua)"><path d="M54.906 53.456H40.25a1.09 1.09 0 0 0-1.094 1.086c0 .6.49 1.087 1.094 1.087h14.656A1.09 1.09 0 0 0 56 54.542c0-.6-.49-1.086-1.094-1.086Zm-18.432 0h-.014a1.09 1.09 0 0 0-1.094 1.086c0 .6.49 1.087 1.094 1.087h.014a1.09 1.09 0 0 0 1.094-1.087c0-.6-.49-1.086-1.094-1.086Zm-3.728 0H1.094A1.09 1.09 0 0 0 0 54.542c0 .6.49 1.087 1.094 1.087h31.652a1.09 1.09 0 0 0 1.094-1.087c0-.6-.49-1.086-1.094-1.086Zm-21.07-18.261a1.106 1.106 0 0 0-.774-.318 1.092 1.092 0 0 0-1.094 1.086 1.09 1.09 0 0 0 1.094 1.087 1.091 1.091 0 0 0 1.094-1.087c0-.285-.117-.566-.32-.768Zm17.207 1.86c-2.288 0-4.15 1.85-4.15 4.124 0 2.273 1.862 4.123 4.15 4.123 2.29 0 4.152-1.85 4.152-4.123 0-2.274-1.863-4.124-4.152-4.124Zm0 6.074a1.96 1.96 0 0 1-1.963-1.95c0-1.076.88-1.95 1.963-1.95a1.96 1.96 0 0 1 1.964 1.95 1.96 1.96 0 0 1-1.964 1.95Z"/><path d="M54.907 47.589h-.237A5.833 5.833 0 0 0 56 43.877V31.96c0-3.148-2.28-5.776-5.285-6.344V22.06a1.905 1.905 0 0 0-1.909-1.896h-.278v-1.916c0-.6-.49-1.087-1.094-1.087a1.09 1.09 0 0 0-1.094 1.087v1.916h-.278c-1.053 0-1.91.85-1.91 1.896v3.442h-2.13l-5.25-9.311a1.095 1.095 0 0 0-.955-.556h-12.45a1.09 1.09 0 0 0-1.094 1.087v18.155H14.99a1.09 1.09 0 0 0-1.094 1.086c0 .6.49 1.087 1.094 1.087h6.414c-.044.328.063.668.31.914l.02.019a7.75 7.75 0 0 0-.182.434h-.028c-.51 0-.952.35-1.066.845a8.48 8.48 0 0 0-.147.83H2.192V37.05h4.262a1.09 1.09 0 0 0 1.094-1.087c0-.6-.49-1.086-1.094-1.086H1.1a1.09 1.09 0 0 0-1.094 1.086v5.215c0 .6.49 1.087 1.094 1.087h4.906l-5.68 5.642-.002.002a1.08 1.08 0 0 0-.318.766c0 .6.49 1.087 1.094 1.087h53.808A1.09 1.09 0 0 0 56 48.675c0-.6-.49-1.086-1.093-1.086ZM46.34 22.337h2.187v3.165H46.34v-3.165Zm-17.615-4.529h6.45l4.339 7.694H28.726v-7.694ZM3.739 47.588l5.36-5.323h3.251l-5.36 5.324H3.74Zm6.345 0 5.36-5.323h3.251l-5.359 5.324h-3.252Zm6.346 0 4.175-4.147c.197.303.54.499.92.499h.028c.056.146.117.29.182.434l-.02.02a1.08 1.08 0 0 0-.152 1.346 8.672 8.672 0 0 0 1.577 1.849h-6.71Zm17.418-2.316a6.533 6.533 0 0 1-.844.839 1.099 1.099 0 0 0-1.252-.097 5.635 5.635 0 0 1-1.456.6 1.089 1.089 0 0 0-.816.948 6.623 6.623 0 0 1-1.194 0 1.089 1.089 0 0 0-.816-.948 5.637 5.637 0 0 1-1.456-.6 1.1 1.1 0 0 0-1.252.096 6.54 6.54 0 0 1-.844-.838c.29-.35.333-.848.097-1.244a5.55 5.55 0 0 1-.604-1.446 1.091 1.091 0 0 0-.954-.81 6.46 6.46 0 0 1 0-1.187c.454-.044.838-.365.954-.81.13-.505.334-.99.604-1.446a1.08 1.08 0 0 0-.097-1.244c.255-.304.538-.586.845-.839a1.1 1.1 0 0 0 1.251.097c.459-.27.948-.471 1.456-.6a1.09 1.09 0 0 0 .816-.948 6.623 6.623 0 0 1 1.194 0c.044.45.368.832.816.947.508.13.997.332 1.456.601a1.1 1.1 0 0 0 1.252-.097c.306.253.59.535.844.839a1.08 1.08 0 0 0-.097 1.244c.27.455.474.941.604 1.445.116.446.5.767.954.81a6.454 6.454 0 0 1 0 1.188 1.092 1.092 0 0 0-.954.81 5.56 5.56 0 0 1-.604 1.446 1.08 1.08 0 0 0 .097 1.244Zm.778 2.317a8.669 8.669 0 0 0 1.577-1.85 1.081 1.081 0 0 0-.153-1.346l-.02-.02a6.83 6.83 0 0 0 .182-.433h.028c.51 0 .953-.351 1.067-.845a8.63 8.63 0 0 0 .147-.83h6.927a5.832 5.832 0 0 0 1.103 5.324H34.626Zm10.916-7.493a1.123 1.123 0 0 0-.096-.004h-7.992a8.527 8.527 0 0 0-.147-.83 1.092 1.092 0 0 0-1.066-.845h-.028a7.71 7.71 0 0 0-.182-.434l.02-.02a1.08 1.08 0 0 0 .152-1.346 8.696 8.696 0 0 0-2.728-2.71 1.1 1.1 0 0 0-1.356.151l-.02.02a7.874 7.874 0 0 0-.436-.18v-.029c0-.507-.353-.946-.85-1.059a8.796 8.796 0 0 0-3.86 0c-.497.113-.85.552-.85 1.06v.027a7.874 7.874 0 0 0-.437.18l-.02-.019a1.1 1.1 0 0 0-1.186-.238V17.808h2.078v8.78c0 .6.49 1.087 1.094 1.087h21.866c2.38 0 4.315 1.923 4.315 4.286v7.353a5.92 5.92 0 0 0-3.736-1.322 5.93 5.93 0 0 0-4.535 2.104Zm4.535 7.493c-2.06 0-3.737-1.665-3.737-3.712s1.677-3.712 3.737-3.712c2.055 0 3.727 1.656 3.736 3.695v.023c-.003 2.044-1.678 3.706-3.736 3.706ZM46.9 6.27a5.71 5.71 0 0 0-4.05-1.666 5.71 5.71 0 0 0-4.051 1.666 1.081 1.081 0 0 0 0 1.537 1.1 1.1 0 0 0 1.547 0 3.53 3.53 0 0 1 2.504-1.03 3.53 3.53 0 0 1 2.503 1.03 1.095 1.095 0 0 0 1.547 0 1.082 1.082 0 0 0 0-1.537Z"/><path d="M50.178 3.015A10.33 10.33 0 0 0 42.85 0a10.33 10.33 0 0 0-7.328 3.015 1.082 1.082 0 0 0 0 1.537 1.1 1.1 0 0 0 1.547 0 8.15 8.15 0 0 1 5.781-2.379c2.184 0 4.237.845 5.78 2.379.214.212.494.318.774.318s.56-.106.774-.318a1.082 1.082 0 0 0 0-1.537Zm-6.555 6.532a1.108 1.108 0 0 0-.774-.318 1.093 1.093 0 0 0-1.094 1.087 1.09 1.09 0 0 0 1.094 1.086 1.09 1.09 0 0 0 1.094-1.087 1.09 1.09 0 0 0-.32-.768Z"/></g><defs><clipPath id="ua"><path d="M0 0h56v56H0z"/></clipPath></defs></symbol><symbol viewBox="0 0 56 56" id="work-2" xmlns="http://www.w3.org/2000/svg"><g clip-path="url(#va)"><path d="M24.244 46.357a13.755 13.755 0 0 0-6.849-11.182l-6.447-7.116a3.5 3.5 0 0 0-3.481-1.063V14.834c0-2.048-1.672-3.708-3.734-3.708-2.062 0-3.733 1.66-3.733 3.708v17.548c0 1.419.365 2.814 1.057 4.055l8.276 14.796v3.469a.93.93 0 0 0 .934.927h13.066a.93.93 0 0 0 .934-.927v-8.345h-.023ZM22.4 53.775H11.2v-2.782a.922.922 0 0 0-.118-.45L2.69 35.534a6.482 6.482 0 0 1-.822-3.153V14.834a1.86 1.86 0 0 1 1.866-1.854A1.86 1.86 0 0 1 5.6 14.834v13.308a3.506 3.506 0 0 0 .063 4.666l7.646 8.357 1.382-1.248-7.647-8.356a1.677 1.677 0 0 1 .056-2.326 1.704 1.704 0 0 1 2.461.064l6.546 7.225c.083.083.177.155.28.213A11.866 11.866 0 0 1 22.4 47.03v6.745Zm29.867-42.649c-2.062 0-3.734 1.66-3.734 3.708v12.162a3.642 3.642 0 0 0-.925-.109 3.54 3.54 0 0 0-2.556 1.171l-6.446 7.114a13.726 13.726 0 0 0-6.85 11.185h-.023v8.345a.93.93 0 0 0 .934.927h13.066a.93.93 0 0 0 .934-.927v-3.47l8.173-14.716A8.309 8.309 0 0 0 56 32.285v-17.45c0-2.05-1.671-3.71-3.733-3.71Zm1.866 21.159a6.488 6.488 0 0 1-.914 3.313l-8.307 14.947a.922.922 0 0 0-.112.448v2.782H33.6V47.03a11.886 11.886 0 0 1 6.061-10.315.93.93 0 0 0 .233-.186l6.545-7.231a1.706 1.706 0 0 1 2.398-.121c.696.624.75 1.69.122 2.382l-7.65 8.357 1.382 1.25 7.646-8.356a3.506 3.506 0 0 0 .063-4.668V14.834a1.86 1.86 0 0 1 1.867-1.854 1.86 1.86 0 0 1 1.866 1.854v17.451Z"/><path d="M39.2 23.179h-1.867a10.277 10.277 0 0 0-8.4 4.357v-6.212h.933c5.667-.006 10.26-4.568 10.267-10.198a.93.93 0 0 0-.934-.927h-1.866a10.277 10.277 0 0 0-8.4 4.357V8.344h.933c4.122-.004 7.462-3.322 7.467-7.417A.93.93 0 0 0 36.4 0h-1.867a7.475 7.475 0 0 0-6.534 3.835A7.474 7.474 0 0 0 21.466 0H19.6a.93.93 0 0 0-.933.927c.005 4.095 3.345 7.413 7.467 7.417h.933v6.212a10.277 10.277 0 0 0-8.4-4.357H16.8a.93.93 0 0 0-.933.927c.007 5.63 4.6 10.192 10.267 10.199h.933v6.211a10.277 10.277 0 0 0-8.4-4.357H16.8a.93.93 0 0 0-.933.927c.007 5.63 4.6 10.192 10.267 10.199h.933v7.417h1.867v-7.417h.933c5.667-.007 10.26-4.57 10.267-10.2a.93.93 0 0 0-.934-.926Zm-1.867-11.126h.882c-.48 4.221-4.073 7.412-8.349 7.417h-.882c.48-4.22 4.073-7.412 8.349-7.417Zm-2.8-10.199h.856c-.46 2.675-2.791 4.633-5.523 4.636h-.856c.46-2.675 2.791-4.632 5.523-4.636Zm-8.4 4.636C23.4 6.487 21.07 4.53 20.61 1.854h.856c2.732.004 5.064 1.961 5.523 4.636h-.856Zm0 12.98c-4.276-.005-7.868-3.196-8.349-7.417h.882c4.276.005 7.868 3.196 8.349 7.417h-.882Zm0 12.98c-4.276-.005-7.868-3.196-8.349-7.417h.882c4.276.005 7.868 3.196 8.349 7.417h-.882Zm3.733 0h-.882c.48-4.22 4.073-7.412 8.349-7.417h.882c-.48 4.221-4.073 7.412-8.349 7.417Z"/></g><defs><clipPath id="va"><path d="M0 0h56v56H0z"/></clipPath></defs></symbol><symbol viewBox="0 0 56 56" id="work-3" xmlns="http://www.w3.org/2000/svg"><path d="M55.785 20.06c-.55-4.138-2.69-7.815-6.026-10.355a15.705 15.705 0 0 0-11.632-3.09l-.417.055c-6.671.872-20.41 2.669-21.937 10.718-5.262.184-10.316 2.983-13.12 7.845-3.996 6.932-2.745 11.953-.992 14.945 1.643 2.803 4.47 5.13 8.175 6.726 3.41 1.47 7.339 2.247 11.369 2.247h.116c8.36-.031 15.248-3.346 18.429-8.867.541-.94.884-1.898 1.032-2.874 5.059-.086 9.28-1.755 11.938-4.735 2.739-3.073 3.77-7.318 3.065-12.615Zm-4.703 11.174c-2.237 2.51-5.878 3.916-10.293 4.002.013-1.301-.284-2.502-2.004-4.636-1.746-2.167-4.112-4.52-7.635-6.892a1.098 1.098 0 0 0-1.518.29 1.082 1.082 0 0 0 .291 1.508c7.563 5.093 10.231 9.702 7.929 13.7-2.788 4.838-8.97 7.744-16.54 7.772h-.106c-7.797 0-14.884-3.165-17.655-7.892-2.099-3.582-1.753-7.999 1-12.773 3.712-6.438 12.004-8.675 18.485-4.988a1.097 1.097 0 0 0 1.492-.402c.3-.52.119-1.185-.405-1.483a15.715 15.715 0 0 0-6.126-1.974c.659-2.529 3.222-4.583 7.636-6.112 4.242-1.469 9.128-2.108 12.362-2.53l.42-.055a13.518 13.518 0 0 1 10.014 2.66 13.349 13.349 0 0 1 5.188 8.915c.618 4.646-.234 8.31-2.535 10.89Z"/><path d="m27.029 21.112-.005-.003a1.097 1.097 0 0 0-1.498.365 1.082 1.082 0 0 0 .41 1.52 1.096 1.096 0 0 0 1.49-.412 1.082 1.082 0 0 0-.397-1.47Zm24.42-.482a11.137 11.137 0 0 0-1.756-4.705A11.389 11.389 0 0 0 38.7 10.923a1.088 1.088 0 0 0-.941 1.219 1.091 1.091 0 0 0 1.227.934c3.47-.455 6.955 1.13 8.877 4.04a8.99 8.99 0 0 1 1.417 3.798 1.09 1.09 0 0 0 1.227.934 1.088 1.088 0 0 0 .94-1.219Zm-5.966 3.794a1.092 1.092 0 0 0-1.228-.933l-.052.006a1.088 1.088 0 0 0-.94 1.22 1.091 1.091 0 0 0 1.228.934l.052-.007a1.088 1.088 0 0 0 .94-1.22Zm-10.271-5.499a1.092 1.092 0 0 0-1.228-.934l-.051.007c-.599.08-1.02.625-.94 1.22a1.091 1.091 0 0 0 1.228.934l.051-.007a1.088 1.088 0 0 0 .94-1.22ZM21.948 23.21a11.392 11.392 0 0 0-6.202-1.48 11.437 11.437 0 0 0-5.879 1.971 11.21 11.21 0 0 0-3.42 3.692c-.3.52-.118 1.184.406 1.482a1.095 1.095 0 0 0 1.492-.402 9.046 9.046 0 0 1 2.76-2.981 9.28 9.28 0 0 1 9.756-.397 1.098 1.098 0 0 0 1.493-.402c.3-.521.119-1.185-.406-1.483Zm-9.889 9.565-.045-.026a1.097 1.097 0 0 0-1.493.402c-.3.52-.12 1.184.405 1.483l.045.025a1.094 1.094 0 0 0 1.492-.402c.3-.52.12-1.184-.404-1.482Zm6.556 7.37-.045-.026a1.097 1.097 0 0 0-1.492.402c-.3.52-.12 1.184.404 1.483l.045.025a1.095 1.095 0 0 0 1.492-.402 1.08 1.08 0 0 0-.404-1.482Zm5.046-8.592-.045-.026a1.097 1.097 0 0 0-1.492.402c-.3.52-.12 1.185.404 1.483l.045.026a1.095 1.095 0 0 0 1.492-.402c.301-.52.12-1.184-.404-1.483Zm6.902 6.93-.045-.026a1.097 1.097 0 0 0-1.492.402c-.3.52-.12 1.184.404 1.483l.046.025a1.095 1.095 0 0 0 1.492-.402c.3-.52.12-1.184-.405-1.482Z"/></symbol><symbol viewBox="0 0 56 56" id="work-4" xmlns="http://www.w3.org/2000/svg"><g clip-path="url(#xa)"><path d="M11.74 55.722c.244.18.54.277.845.278.097-.004.194-.018.288-.043a.883.883 0 0 0 .207.042h3.733c2.024 0 3.978-1.59 5.808-4.729a5.551 5.551 0 0 1 4.807-2.688H55.07a.93.93 0 0 0 .933-.927.93.93 0 0 0-.933-.928h-5.212l2.14-2.126a.923.923 0 0 0-.011-1.3.938.938 0 0 0-1.31-.01l-1.207 1.198v-2.94l2.526-2.51a.923.923 0 0 0-.012-1.3.937.937 0 0 0-1.308-.01l-1.206 1.197v-2.94l2.526-2.51a.923.923 0 0 0-.012-1.3.938.938 0 0 0-1.308-.01l-2.14 2.125-2.137-2.126a.937.937 0 0 0-1.282.038.923.923 0 0 0-.034 1.273l2.52 2.51v2.94l-1.204-1.198a.937.937 0 0 0-1.282.038.923.923 0 0 0-.034 1.273l2.52 2.51v2.94l-1.204-1.198a.938.938 0 0 0-1.282.038.923.923 0 0 0-.034 1.273l2.136 2.126H38.66l2.14-2.126a.922.922 0 0 0-.031-1.278.937.937 0 0 0-1.287-.033l-1.205 1.198v-2.94l2.525-2.51a.922.922 0 0 0-.011-1.3.938.938 0 0 0-1.309-.01l-1.205 1.197v-2.94l2.525-2.51a.923.923 0 0 0-.011-1.3.938.938 0 0 0-1.309-.01l-2.139 2.125-2.14-2.126a.938.938 0 0 0-1.32 0 .923.923 0 0 0 0 1.311l2.525 2.51v2.94l-1.206-1.198a.938.938 0 0 0-1.309.012.923.923 0 0 0-.01 1.3l2.525 2.509v2.94l-1.206-1.198a.938.938 0 0 0-1.309.012.923.923 0 0 0-.01 1.3l2.138 2.125h-8.594a7.424 7.424 0 0 0-6.421 3.616c-1.43 2.452-2.92 3.802-4.194 3.802h-2.866A47.306 47.306 0 0 1 12.72 44.12L54.772 5.458a2.77 2.77 0 0 0 .802-3.782A2.798 2.798 0 0 0 53.828.442a2.818 2.818 0 0 0-2.113.353 1.066 1.066 0 0 0-.138.105L13.122 36.261c.797-6.397 2.854-12.896 6.97-17.665a1.487 1.487 0 0 0 .04-1.894 1.51 1.51 0 0 0-1.863-.41c-2.98 1.49-9.97 5.583-12.063 11.954-1.334-3.656-3.01-8.263-3.852-10.652a1.214 1.214 0 0 0-1.34-.776 1.208 1.208 0 0 0-1.013 1.168c-.045 8.745 1.003 29.94 11.738 37.736ZM52.77 2.33a.936.936 0 0 1 1.24.36.924.924 0 0 1-.312 1.247.938.938 0 0 0-.137.103L12.723 41.59a53.6 53.6 0 0 1 .12-2.55L52.77 2.331ZM4.668 29.459c.238.68.9 1.124 1.624 1.088a1.665 1.665 0 0 0 1.544-1.226c1.4-5.092 6.677-8.78 9.717-10.532-7.538 10.098-7.63 25.579-5.677 34.669-7.888-6.793-9.646-22.18-9.952-31.531.866 2.398 1.89 5.206 2.744 7.532Z"/></g><defs><clipPath id="xa"><path d="M0 0h56v56H0z"/></clipPath></defs></symbol><symbol viewBox="0 0 56 56" id="work-5" xmlns="http://www.w3.org/2000/svg"><g clip-path="url(#ya)"><path d="M35.467 36.536c-2.578 0-4.667 2.075-4.667 4.636 0 2.56 2.09 4.636 4.667 4.636s4.666-2.076 4.666-4.636c-.003-2.56-2.09-4.633-4.666-4.636Zm0 7.417a2.79 2.79 0 0 1-2.8-2.781 2.79 2.79 0 0 1 2.8-2.781 2.79 2.79 0 0 1 2.8 2.78 2.791 2.791 0 0 1-2.8 2.782Z"/><path d="M53.2 17.994h-.52a3.65 3.65 0 0 0 .52-1.855c0-2.048-1.672-3.708-3.733-3.708a3.668 3.668 0 0 0-1.12.172 4.205 4.205 0 0 0-4.014-2.954c-.278 0-.556.03-.829.086a4.66 4.66 0 0 0-4.292-2.868A4.659 4.659 0 0 0 34.9 9.705a5.53 5.53 0 0 0-3.166-.983c-1.505 0-2.947.6-4.001 1.669a4.677 4.677 0 0 0-3.986-.512 4.638 4.638 0 0 0-2.9 2.766 3.713 3.713 0 0 0-1.246-.214c-2.062 0-3.733 1.66-3.733 3.708a3.65 3.65 0 0 0 .54 1.893 2.775 2.775 0 0 0-2.403 2.584 2.77 2.77 0 0 0 2.09 2.84l5.01 14.935h-1.756l-6.32-19.616a2.78 2.78 0 0 0 1.87-3.086 2.794 2.794 0 0 0-2.765-2.331H2.8A2.79 2.79 0 0 0 0 16.139a2.791 2.791 0 0 0 2.8 2.782h4.267l6.969 23.012a2.81 2.81 0 0 0 2.693 2.02h10.827c1.181 3.335 4.352 5.565 7.91 5.565s6.728-2.23 7.91-5.564h8.89a.93.93 0 0 0 .934-.927v-3.709a.93.93 0 0 0-.933-.927H49.39l4.536-14.941a2.775 2.775 0 0 0 2.05-3.045 2.787 2.787 0 0 0-2.776-2.412Zm-33.6-3.71c.466.003.913.18 1.255.494a.935.935 0 0 0 .983.175.928.928 0 0 0 .58-.809 2.769 2.769 0 0 1 1.793-2.463 2.8 2.8 0 0 1 2.986.657.935.935 0 0 0 1.44-.13 3.74 3.74 0 0 1 3.096-1.632 3.7 3.7 0 0 1 2.987 1.51c.241.319.66.45 1.042.323a.928.928 0 0 0 .638-.88v-.065a2.782 2.782 0 0 1 2.595-2.742 2.789 2.789 0 0 1 2.959 2.35c.045.293.23.546.495.681.265.136.58.137.846.004a2.32 2.32 0 0 1 1.038-.254 2.341 2.341 0 0 1 1.665.701 2.31 2.31 0 0 1 .661 1.672l-.017.143a.927.927 0 0 0 .516.916c.347.17.763.11 1.047-.151a1.876 1.876 0 0 1 2.247-.227 1.849 1.849 0 0 1 .822 2.09 1.866 1.866 0 0 1-1.807 1.347H19.6a1.86 1.86 0 0 1-1.867-1.855 1.86 1.86 0 0 1 1.867-1.854ZM16.729 42.1a.94.94 0 0 1-.901-.686L8.655 17.726a.933.933 0 0 0-.894-.66H2.8a.93.93 0 0 1-.933-.927.93.93 0 0 1 .933-.927h9.333a.93.93 0 0 1 .934.927.93.93 0 0 1-.934.927h-.336a.934.934 0 0 0-.752.38.922.922 0 0 0-.137.825l6.87 21.325a.933.933 0 0 0 .889.65h8.455a7.845 7.845 0 0 0 0 1.853H16.729Zm18.738 5.563c-3.609 0-6.534-2.906-6.534-6.49s2.925-6.49 6.534-6.49c3.608 0 6.533 2.906 6.533 6.49-.004 3.583-2.927 6.486-6.533 6.49ZM51.333 42.1h-7.521a7.834 7.834 0 0 0 0-1.854h7.521V42.1Zm-7.956-3.708c-1.182-3.334-4.352-5.564-7.91-5.564s-6.729 2.23-7.91 5.564h-4.48l-2.49-7.417h3.68a.93.93 0 0 0 .933-.927.93.93 0 0 0-.933-.928H19.96l-.621-1.854h12.393a.93.93 0 0 0 .934-.927.93.93 0 0 0-.934-.927H18.717l-.622-1.855h33.849l-.566 1.864c-.016 0-.029-.01-.045-.01h-8.4a.93.93 0 0 0-.933.928.93.93 0 0 0 .933.927h7.885l-.56 1.854H38.267a.93.93 0 0 0-.934.928.93.93 0 0 0 .934.927h11.425L47.44 38.39h-4.063Zm9.823-16.69H16.8a.93.93 0 0 1-.933-.927.93.93 0 0 1 .933-.927h36.4a.93.93 0 0 1 .933.927.93.93 0 0 1-.933.927Z"/><path d="M25.2 16.139h.933a.93.93 0 0 0 .934-.927.93.93 0 0 0-.934-.927H25.2a.93.93 0 0 0-.933.927.93.93 0 0 0 .933.927Zm6.533-.927h.933a.93.93 0 0 0 .934-.927.93.93 0 0 0-.934-.927h-.933a.93.93 0 0 0-.933.927.93.93 0 0 0 .933.927Zm6.533-.927h.934a.93.93 0 0 0 .933-.927.93.93 0 0 0-.933-.927h-.934a.93.93 0 0 0-.933.927.93.93 0 0 0 .933.927Zm4.667 1.854h.934a.93.93 0 0 0 .933-.927.93.93 0 0 0-.933-.927h-.934a.93.93 0 0 0-.933.927.93.93 0 0 0 .933.927Z"/></g><defs><clipPath id="ya"><path d="M0 0h56v56H0z"/></clipPath></defs></symbol><symbol viewBox="0 0 56 56" id="work-6" xmlns="http://www.w3.org/2000/svg"><g clip-path="url(#za)"><path d="M7.071 40.546c-1.81 0-3.284 1.464-3.284 3.263 0 1.8 1.473 3.263 3.284 3.263 1.811 0 3.285-1.464 3.285-3.263s-1.474-3.263-3.285-3.263Zm0 4.897a1.64 1.64 0 0 1-1.643-1.634c0-.9.737-1.632 1.643-1.632a1.64 1.64 0 0 1 1.644 1.632c0 .9-.737 1.634-1.644 1.634ZM37.17 43.81c0 1.798 1.474 3.262 3.284 3.262 1.812 0 3.285-1.464 3.285-3.263s-1.474-3.263-3.285-3.263c-1.811 0-3.284 1.464-3.284 3.263Zm4.928 0c0 .9-.737 1.632-1.644 1.632a1.64 1.64 0 0 1-1.644-1.633c0-.9.738-1.633 1.644-1.633a1.64 1.64 0 0 1 1.644 1.633Z"/><path d="M54.294 4.015a2.823 2.823 0 0 0-3.693 1.47L48.25 10.95a.813.813 0 0 0 .431 1.07.822.822 0 0 0 1.077-.429l2.353-5.465c.254-.59.944-.865 1.538-.613.594.253.871.939.617 1.529L41.43 36.852a7.42 7.42 0 0 0-.516-.052l-.725-2.986 8.29-19.255a.812.812 0 0 0-.432-1.07.822.822 0 0 0-1.077.429l-7.425 17.246-.227-.935c-.806-3.322-4.085-5.427-7.465-4.793l-1.733.325-.847-3.567a4.461 4.461 0 0 0-4.363-3.432h-3.283a4.461 4.461 0 0 0-4.364 3.432l-.814 3.428a.82.82 0 0 0 1.597.374l.814-3.428a2.828 2.828 0 0 1 2.767-2.176h3.283c1.324 0 2.462.895 2.766 2.176l.83 3.495-17.933 3.364a4.993 4.993 0 0 0-4.043 4.232c-.13.948-.279 2.05-.433 3.194C2.658 37.326 0 40.264 0 43.81c0 3.873 3.173 7.025 7.072 7.025.454 0 .82-.365.82-.815a.818.818 0 0 0-.82-.815c-2.995 0-5.431-2.42-5.431-5.395 0-2.976 2.436-5.396 5.431-5.396s5.432 2.42 5.432 5.396c0 1.866-.95 3.574-2.543 4.57a.811.811 0 0 0-.257 1.123.823.823 0 0 0 1.13.257 7.021 7.021 0 0 0 2.79-3.293H33.91a7.083 7.083 0 0 0 6.546 4.368c3.9 0 7.073-3.152 7.073-7.025 0-2.97-1.866-5.514-4.493-6.54L55.774 7.682a2.79 2.79 0 0 0-1.48-3.667ZM7.758 36.818l.399-2.941a3.361 3.361 0 0 1 2.722-2.848l17.423-3.268-1.406 4.371a5.478 5.478 0 0 1-3.331 3.474l-10.816 4.018a7.082 7.082 0 0 0-4.992-2.806Zm6.311 8.02a7.036 7.036 0 0 0-.49-3.782l10.56-3.923a7.105 7.105 0 0 0 4.32-4.505l1.676-5.211 2.023-.38c2.52-.472 4.965 1.097 5.567 3.574l1.524 6.278c-3.327.57-6.323 3.487-5.789 7.948H14.07Zm31.819-1.028c0 2.975-2.437 5.395-5.432 5.395-2.995 0-5.432-2.42-5.432-5.395 0-2.976 2.437-5.396 5.432-5.396 2.995 0 5.432 2.42 5.432 5.396Z"/></g><defs><clipPath id="za"><path d="M0 0h56v56H0z"/></clipPath></defs></symbol></svg>