<svg width="48" height="48" viewBox="0 0 48 48" fill="none" xmlns="http://www.w3.org/2000/svg">
<path d="M44.1667 34.5004C44.0541 34.2059 43.8544 33.9527 43.5942 33.7746C43.3341 33.5965 43.0258 33.5018 42.7105 33.5033H39.835C39.749 33.5031 39.6665 33.4689 39.6057 33.4081C39.5449 33.3472 39.5106 33.2648 39.5104 33.1788V30.2236C39.5099 29.7582 39.3248 29.312 38.9957 28.983C38.6666 28.6539 38.2205 28.4688 37.7551 28.4683H32.9302C32.4649 28.4688 32.0188 28.6539 31.6898 28.983C31.3608 29.3121 31.1759 29.7583 31.1755 30.2236V33.1788C31.1755 33.2649 31.1414 33.3475 31.0805 33.4085C31.0197 33.4695 30.9371 33.5038 30.851 33.504H27.8141C27.4994 33.504 27.192 33.5991 26.9323 33.7769C26.6725 33.9547 26.4726 34.2069 26.3587 34.5003C26.2448 34.7937 26.2223 35.1147 26.294 35.4212C26.3658 35.7276 26.5285 36.0052 26.7608 36.2176L34.0063 42.8453C34.3484 43.1613 34.797 43.3368 35.2627 43.3368C35.7284 43.3368 36.177 43.1613 36.5191 42.8453L43.7645 36.2176C43.9979 36.006 44.1613 35.7284 44.233 35.4216C44.3048 35.1149 44.2821 34.7936 44.1667 34.5004ZM31.7638 26.2646H38.7616C39.0722 26.2646 39.3701 26.1412 39.5897 25.9216C39.8093 25.7019 39.9327 25.4041 39.9327 25.0935C39.9327 24.7829 39.8093 24.485 39.5897 24.2654C39.3701 24.0458 39.0722 23.9224 38.7616 23.9224H31.7638C31.4532 23.9224 31.1553 24.0458 30.9357 24.2654C30.716 24.485 30.5927 24.7829 30.5927 25.0935C30.5927 25.4041 30.716 25.7019 30.9357 25.9216C31.1553 26.1412 31.4532 26.2646 31.7638 26.2646ZM31.7638 22.3792H38.7616C39.0722 22.3792 39.3701 22.2558 39.5897 22.0362C39.8093 21.8166 39.9327 21.5187 39.9327 21.2081C39.9327 20.8975 39.8093 20.5996 39.5897 20.38C39.3701 20.1604 39.0722 20.037 38.7616 20.037H31.7638C31.4532 20.037 31.1553 20.1604 30.9357 20.38C30.716 20.5996 30.5927 20.8975 30.5927 21.2081C30.5927 21.5187 30.716 21.8166 30.9357 22.0362C31.1553 22.2558 31.4532 22.3792 31.7638 22.3792Z" fill="#54595F"/>
<path d="M23.0366 15.4095H18.0002C17.0891 15.4095 16.3506 16.148 16.3506 17.0591V40.9589C16.3506 41.8699 17.0891 42.6084 18.0002 42.6084H23.0366C23.9476 42.6084 24.6861 41.8699 24.6861 40.9589V17.0591C24.6861 16.148 23.9476 15.4095 23.0366 15.4095Z" fill="#54595F"/>
<path d="M6.63884 4.79999H11.6746C12.1121 4.79999 12.5316 4.97378 12.841 5.28314C13.1503 5.59249 13.3241 6.01207 13.3241 6.44957V40.8625C13.3241 41.0791 13.2815 41.2936 13.1986 41.4937C13.1157 41.6938 12.9941 41.8756 12.841 42.0287C12.6878 42.1818 12.5059 42.3033 12.3058 42.3861C12.1056 42.4689 11.8912 42.5115 11.6746 42.5114H6.63884C6.42221 42.5114 6.20771 42.4687 6.00757 42.3858C5.80743 42.3029 5.62559 42.1814 5.47241 42.0283C5.31923 41.8751 5.19772 41.6932 5.11482 41.4931C5.03193 41.293 4.98926 41.0785 4.98926 40.8618V6.44957C4.98926 6.01207 5.16305 5.59249 5.47241 5.28314C5.78176 4.97378 6.20134 4.79999 6.63884 4.79999Z" fill="#54595F"/>
</svg>
