<svg width="16" height="16" viewBox="0 0 16 16" fill="none" xmlns="http://www.w3.org/2000/svg">
<path d="M4 10.2751H3.5V10.4207L3.57817 10.5436L4 10.2751ZM6.69761 14.5142L7.11944 14.2458L6.69761 14.5142ZM9.36455 13.0042L8.91734 13.2279L9.36455 13.0042ZM8 10.2751V9.77515C7.82671 9.77515 7.66578 9.86487 7.57467 10.0123C7.48357 10.1597 7.47529 10.3438 7.55279 10.4988L8 10.2751ZM15 5.27515H15.5V5.10848L15.4 4.97515L15 5.27515ZM12.6 2.07515L13 1.77515V1.77515L12.6 2.07515ZM8.78158 15.0062L9.03883 15.4349H9.03883L8.78158 15.0062ZM1.5 10.7751V0.775146H0.5V10.7751H1.5ZM3.57817 10.5436L6.27577 14.7827L7.11944 14.2458L4.42183 10.0067L3.57817 10.5436ZM9.81176 12.7806L8.44721 10.0515L7.55279 10.4988L8.91734 13.2279L9.81176 12.7806ZM8 10.7751H13V9.77515H8V10.7751ZM15.5 8.27515V5.27515H14.5V8.27515H15.5ZM15.4 4.97515L13 1.77515L12.2 2.37515L14.6 5.57515L15.4 4.97515ZM11 0.775146H6V1.77515H11V0.775146ZM3.5 3.27515V10.2751H4.5V3.27515H3.5ZM13 10.7751C14.3807 10.7751 15.5 9.65586 15.5 8.27515H14.5C14.5 9.10357 13.8284 9.77515 13 9.77515V10.7751ZM6 0.775146C4.61929 0.775146 3.5 1.89443 3.5 3.27515H4.5C4.5 2.44672 5.17157 1.77515 6 1.77515V0.775146ZM9.03883 15.4349C9.95039 14.888 10.2872 13.7315 9.81176 12.7806L8.91734 13.2279C9.15906 13.7113 8.98782 14.2994 8.52433 14.5775L9.03883 15.4349ZM13 1.77515C12.5279 1.14563 11.7869 0.775146 11 0.775146V1.77515C11.4721 1.77515 11.9167 1.99744 12.2 2.37515L13 1.77515ZM6.27577 14.7827C6.8678 15.713 8.09324 16.0023 9.03883 15.4349L8.52433 14.5775C8.04354 14.8659 7.42046 14.7188 7.11944 14.2458L6.27577 14.7827Z" fill="#C9C9C9"/>
</svg>
