<svg width="48" height="48" viewBox="0 0 48 48" fill="none" xmlns="http://www.w3.org/2000/svg">
<path d="M24.686 43.1998C27.6224 42.7818 30.1968 39.7108 31.8165 35.1758C29.475 34.6502 27.0855 34.3683 24.6861 34.3346L24.686 43.1998ZM29.3774 42.4787C29.551 42.4283 29.7239 42.3776 29.8955 42.3219C30.0402 42.2752 30.183 42.2248 30.3258 42.1748C30.4949 42.1166 30.6631 42.0558 30.8304 41.9925C30.9731 41.9381 31.1146 41.8803 31.2563 41.8225C31.4198 41.7538 31.583 41.6853 31.7446 41.6164C32.0459 41.4826 32.344 41.3415 32.6386 41.1933C32.776 41.1232 32.913 41.0517 33.0504 40.9781C33.2042 40.8956 33.3571 40.8113 33.5088 40.7245C33.6443 40.6475 33.7788 40.5686 33.9123 40.4879C34.0611 40.3963 34.2092 40.3046 34.3563 40.2128C34.4884 40.129 34.6193 40.0433 34.749 39.9557C34.8936 39.8573 35.0368 39.7569 35.1786 39.6545C35.3056 39.5637 35.4321 39.472 35.5579 39.3795C35.6975 39.272 35.8361 39.1633 35.9737 39.0534C36.0961 38.9558 36.2181 38.8588 36.3383 38.7584C36.4754 38.6442 36.6068 38.526 36.7398 38.4078C36.8565 38.3041 36.9737 38.2013 37.0877 38.0949C37.2186 37.9723 37.3463 37.8454 37.474 37.7195C37.5846 37.6101 37.6965 37.5023 37.8047 37.3901C37.8249 37.3693 37.8439 37.3468 37.8648 37.3253C36.3681 36.5506 34.7912 35.9426 33.1623 35.5121C32.3151 38.2193 30.8076 40.6721 28.7762 42.6486C28.8319 42.6342 28.8875 42.6224 28.9431 42.6079C29.0899 42.5667 29.234 42.5213 29.3774 42.4787ZM43.1998 24.6877H34.9711C34.9399 27.907 34.4738 31.1073 33.5855 34.2014C35.397 34.6862 37.1452 35.3832 38.7938 36.2781C41.5009 33.0089 43.0503 28.933 43.1997 24.6877H43.1998ZM24.686 23.3124H33.5986C33.5637 20.2068 33.1092 17.1204 32.2475 14.1371C29.7658 14.7042 27.2313 15.007 24.686 15.0406V23.3124ZM24.686 4.8V13.6653C27.0854 13.6315 29.4749 13.3496 31.8165 12.8242C30.1968 8.28899 27.6226 5.2181 24.6861 4.8H24.686ZM24.686 32.9593C27.2313 32.9932 29.7658 33.2961 32.2475 33.8632C33.1092 30.8798 33.5637 27.7933 33.5986 24.6877H24.686V32.9593ZM38.7939 11.7219C37.1452 12.6168 35.3971 13.3138 33.5856 13.7986C34.4739 16.8927 34.94 20.093 34.9712 23.3124H43.1998C43.0499 19.0671 41.5006 14.9913 38.7939 11.7219ZM37.8667 10.6787C37.8466 10.6582 37.8275 10.636 37.8077 10.6149C37.6992 10.5027 37.5866 10.3946 37.476 10.2855C37.3487 10.1596 37.2216 10.0324 37.0903 9.91014C36.9767 9.80398 36.8591 9.70358 36.7425 9.59785C36.6095 9.47966 36.4764 9.36044 36.3397 9.24629C36.2211 9.14589 36.0995 9.04988 35.9788 8.95352C35.841 8.8414 35.7011 8.73178 35.5593 8.62474C35.4351 8.53154 35.3098 8.43987 35.1833 8.34976C35.0404 8.24582 34.8958 8.14418 34.7497 8.04487C34.6212 7.9584 34.4915 7.87366 34.3606 7.7907C34.2129 7.69497 34.0637 7.60164 33.9129 7.51074C33.7805 7.43099 33.6471 7.35285 33.5128 7.27633C33.3599 7.18868 33.2058 7.10318 33.0505 7.01984C32.913 6.95099 32.776 6.87612 32.6386 6.80727C32.4808 6.72733 32.3216 6.65048 32.1584 6.57493C32.02 6.50897 31.8806 6.44515 31.7402 6.3835C31.5776 6.3113 31.4134 6.24623 31.2496 6.17738C31.1086 6.11928 30.967 6.06286 30.8247 6.00813C30.6576 5.94472 30.4895 5.88406 30.3204 5.82616C30.1776 5.77521 30.0341 5.72606 29.8901 5.67874C29.7185 5.62304 29.5469 5.57232 29.3707 5.52127C29.228 5.47932 29.0846 5.43669 28.9401 5.39835C28.8848 5.38331 28.8286 5.37153 28.7729 5.35709C30.8042 7.33357 32.3117 9.78634 33.159 12.4935C34.7898 12.0631 36.3685 11.4545 37.8667 10.6787ZM4.7998 23.3124H13.0284C13.0596 20.093 13.5256 16.8927 14.4137 13.7986C12.6022 13.314 10.8541 12.617 9.2057 11.7219C6.49872 14.9911 4.94932 19.0671 4.7998 23.3124ZM23.3135 43.1998V34.3347C20.9141 34.3685 18.5247 34.6504 16.1831 35.1758C17.8025 39.711 20.3771 42.7819 23.3135 43.2V43.1998ZM23.3135 24.6877H14.401C14.4358 27.7933 14.8903 30.8799 15.7521 33.8632C18.2337 33.2958 20.7683 32.9928 23.3135 32.9593V24.6877ZM23.3135 4.8C20.3771 5.2181 17.8025 8.28899 16.1831 12.8242C18.5246 13.35 20.9141 13.6318 23.3135 13.6653V4.8ZM23.3135 15.0406C20.7683 15.007 18.2338 14.7042 15.7521 14.1371C14.8903 17.1203 14.4358 20.2068 14.401 23.3124H23.3135V15.0406ZM19.2213 5.35649C19.1657 5.37084 19.11 5.38262 19.0545 5.39706C18.909 5.436 18.7656 5.47932 18.6208 5.52127C18.4486 5.57164 18.2777 5.62235 18.1048 5.67736C17.959 5.72473 17.8156 5.7751 17.6722 5.82521C17.5043 5.88452 17.3361 5.94366 17.1699 6.00675C17.0264 6.06185 16.885 6.11892 16.743 6.17738C16.5797 6.24614 16.4162 6.31499 16.255 6.3835C16.1137 6.44565 15.9739 6.51072 15.8338 6.57621C15.6752 6.65084 15.5176 6.72763 15.361 6.80658C15.0672 6.95559 14.7773 7.112 14.4914 7.27565C14.3551 7.35196 14.2201 7.43077 14.0867 7.51203C13.9376 7.60202 13.7901 7.69511 13.6433 7.78709C13.5112 7.87167 13.3802 7.95694 13.2506 8.04496C13.106 8.14334 12.9628 8.24372 12.821 8.34607C12.6938 8.43698 12.5673 8.52875 12.4413 8.62138C12.3009 8.72711 12.1668 8.83731 12.0254 8.94716C11.9035 9.04481 11.7805 9.14185 11.6612 9.24285C11.5239 9.3564 11.3935 9.4739 11.2611 9.59149C11.1438 9.69619 11.0255 9.79796 10.9109 9.90644C10.7805 10.0283 10.6536 10.1549 10.5263 10.2804C10.4156 10.3899 10.3031 10.498 10.1945 10.6105C10.1748 10.6313 10.1557 10.6542 10.1348 10.6753C11.6314 11.4503 13.2083 12.0584 14.8373 12.4888C15.6843 9.7832 17.191 7.3319 19.2213 5.35649ZM10.5233 37.7144C10.6509 37.8403 10.778 37.9676 10.909 38.0901C11.0229 38.1959 11.1401 38.2963 11.2571 38.4022C11.3901 38.5206 11.5232 38.6395 11.6599 38.7537C11.7786 38.8534 11.8995 38.9497 12.0208 39.0464C12.1581 39.1579 12.2952 39.2687 12.4406 39.3759C12.5643 39.4689 12.69 39.5588 12.8156 39.6512C12.959 39.7543 13.1038 39.8573 13.2499 39.9563C13.3785 40.0428 13.5082 40.1277 13.639 40.2109C13.7874 40.3063 13.9355 40.4 14.0867 40.4906C14.219 40.5705 14.3527 40.6487 14.4868 40.7252C14.6396 40.8129 14.7938 40.8983 14.9491 40.9815C15.0862 41.0503 15.2237 41.1252 15.361 41.194C15.5188 41.274 15.6781 41.3508 15.8412 41.4267C15.9786 41.4915 16.118 41.5553 16.2594 41.6178C16.4219 41.69 16.5858 41.7551 16.75 41.8239C16.8914 41.8817 17.0322 41.9388 17.1749 41.9932C17.3414 42.0573 17.5103 42.117 17.6792 42.1754C17.822 42.2255 17.9647 42.2759 18.1095 42.3226C18.281 42.3783 18.4526 42.4293 18.6289 42.48C18.7716 42.522 18.9151 42.5646 19.0592 42.6032C19.1148 42.6183 19.171 42.6301 19.2267 42.6445C17.1954 40.6678 15.6879 38.215 14.8405 35.5077C13.2116 35.9384 11.6347 36.5468 10.1382 37.3219C10.1583 37.3424 10.1775 37.3646 10.1975 37.3857C10.3005 37.4972 10.4113 37.6053 10.5233 37.7144ZM9.2057 36.278C10.8543 35.3832 12.6023 34.6862 14.4137 34.2013C13.5256 31.1072 13.0596 27.9069 13.0284 24.6876H4.7998C4.94953 28.9328 6.49891 33.0087 9.2057 36.278Z" fill="#54595F"/>
</svg>
