<svg width="80" height="80" viewBox="0 0 80 80" fill="none" xmlns="http://www.w3.org/2000/svg">
<path d="M58.9527 69.5919C60.6184 42.9139 70.733 21.8381 70.733 21.8381C50.7069 33.0888 47.0555 60.7128 46.4087 71.9848C47.3423 31.9059 59.365 3.10437 59.365 3.10437C35.7803 23.1634 33.8986 62.4441 33.8645 73.7698C33.5008 63.9625 30.64 33.7394 9.45562 21.8381C9.45562 21.8381 20.2928 44.4191 21.3794 72.4208C20.777 64.8861 17.3427 49.9745 0 44.7192C0 44.7192 9.00406 55.4447 9.00406 76.8956H70.9959C70.9959 55.4447 80 44.7192 80 44.7192C64.6269 49.3777 60.1836 61.6223 58.9527 69.5919Z" fill="#C9C9C9"/>
</svg>
