<svg width="200" height="200" viewBox="0 0 200 200" fill="none" xmlns="http://www.w3.org/2000/svg">
<path d="M29.5467 78.1239C29.5472 78.5784 29.6828 79.0226 29.9363 79.3999C30.1898 79.7772 30.5497 80.0706 30.9703 80.2428L51.7179 87.9069L49.0932 92.4531C48.9203 92.7597 48.8203 93.102 48.801 93.4535C48.7817 93.805 48.8436 94.1562 48.9819 94.4799C49.136 94.7976 49.3614 95.0755 49.6406 95.2918C49.9197 95.5081 50.2451 95.6569 50.5913 95.7267L69.5218 99.6154C59.4313 116.13 41.9334 131.491 41.7394 131.644C41.4867 131.879 41.2906 132.169 41.1657 132.491C41.0408 132.813 40.9904 133.16 41.0181 133.504C41.0458 133.848 41.151 134.182 41.3258 134.48C41.5007 134.778 41.7406 135.033 42.0277 135.225C48.477 138.653 55.8783 139.856 63.0814 138.645C59.8302 146.261 59.617 154.832 62.4856 162.6C62.6822 163.045 63.0151 163.416 63.4362 163.659C63.8573 163.902 64.3448 164.005 64.8282 163.953C72.9856 162.542 80.2982 158.074 85.2761 151.459C87.4265 156.354 91.5266 164.015 98.8643 168.039C99.1736 168.2 99.5154 168.288 99.8637 168.296C100.212 168.304 100.558 168.233 100.874 168.088C101.188 167.935 101.462 167.712 101.676 167.436C101.89 167.161 102.038 166.84 102.11 166.499C102.224 166.3 106.719 143.431 115.967 126.404L128.908 140.943C129.134 141.212 129.423 141.421 129.748 141.553C130.074 141.685 130.427 141.735 130.776 141.699C131.125 141.664 131.461 141.543 131.753 141.348C132.045 141.153 132.285 140.889 132.452 140.58L135.077 136.034L152.088 150.17C152.448 150.448 152.882 150.613 153.335 150.644C153.789 150.675 154.241 150.571 154.635 150.344C155.026 150.101 155.335 149.746 155.522 149.324C155.708 148.903 155.764 148.436 155.681 147.983L149.756 120.237L154.967 117.951C155.372 117.769 155.714 117.472 155.954 117.098C156.193 116.724 156.319 116.289 156.316 115.845C156.265 115.154 155.619 99.9049 142.884 92.2082C143.566 89.6758 144.887 87.361 146.721 85.4857C148.554 83.6105 150.839 82.2376 153.355 81.4986C153.681 81.3857 153.978 81.2005 154.223 80.9567C154.468 80.713 154.654 80.4171 154.769 80.0912C154.883 79.7652 154.922 79.4176 154.883 79.0744C154.845 78.7312 154.729 78.4011 154.544 78.109C151.923 74.7587 148.653 71.9708 144.931 69.9116C138.472 66.2679 131.145 64.444 123.732 64.6338C129.058 56.4977 136.932 50.3572 146.121 47.1732C146.454 47.0667 146.763 46.8955 147.029 46.6696C147.296 46.4436 147.516 46.1673 147.676 45.8564C147.835 45.5454 147.932 45.2061 147.961 44.8576C147.989 44.5092 147.949 44.1586 147.842 43.8258C147.737 43.4931 147.567 43.1846 147.342 42.9186C147.116 42.6526 146.84 42.4345 146.529 42.277C146.217 42.1196 145.878 42.026 145.53 42.0018C145.182 41.9776 144.833 42.0233 144.503 42.1362C134.061 45.6715 125.126 52.6444 119.16 61.9152C108.951 43.7919 92.8341 42.1364 92.1094 42.0621C91.7623 42.0377 91.4141 42.0926 91.0914 42.2227C90.7686 42.3528 90.4797 42.5547 90.2466 42.813C90.0189 43.0802 89.8556 43.3961 89.7693 43.7363C89.683 44.0766 89.6759 44.4321 89.7488 44.7755C90.4013 47.3275 90.3782 50.0054 89.6819 52.5459C88.9856 55.0863 87.64 57.4017 85.7775 59.2644C72.7101 52.1434 59.1616 59.1971 58.5918 59.4504C58.1966 59.6516 57.8682 59.9631 57.6464 60.3472C57.4247 60.7313 57.3191 61.1714 57.3425 61.6143L57.9486 67.2581L30.9976 76.0235C30.5748 76.1903 30.2111 76.479 29.9527 76.853C29.6944 77.227 29.5531 77.6694 29.5467 78.1239ZM109.016 80.3572L112.798 73.806C112.888 73.4654 113.055 73.1501 113.287 72.8846C113.519 72.6191 113.808 72.4105 114.133 72.2751C114.459 72.1397 114.811 72.0811 115.162 72.1039C115.514 72.1266 115.856 72.23 116.161 72.4062C116.466 72.5823 116.726 72.8265 116.922 73.1196C117.117 73.4127 117.242 73.7469 117.288 74.0962C117.333 74.4456 117.297 74.8007 117.183 75.134C117.069 75.4673 116.88 75.7699 116.63 76.0181L112.847 82.5693L137.715 117.758C137.977 117.987 138.183 118.272 138.319 118.592C138.454 118.913 138.515 119.26 138.497 119.607C138.478 119.954 138.381 120.293 138.212 120.597C138.043 120.901 137.808 121.163 137.523 121.362C137.238 121.562 136.912 121.694 136.568 121.749C136.225 121.804 135.873 121.779 135.54 121.678C135.208 121.577 134.902 121.401 134.647 121.165C134.393 120.928 134.195 120.636 134.069 120.312L110.545 86.878L96.5961 111.038L97.966 135.44C97.9851 136.028 97.7774 136.601 97.3859 137.04C96.9945 137.479 96.4491 137.751 95.8628 137.799C95.2852 137.808 94.7254 137.599 94.2954 137.213C93.8653 136.828 93.5968 136.294 93.5434 135.719L92.5502 118.046L80.8364 138.335C80.4793 138.689 80.0154 138.917 79.5164 138.981C79.0174 139.046 78.5109 138.945 78.0751 138.693C77.6393 138.442 77.2984 138.054 77.105 137.589C76.9116 137.125 76.8764 136.609 77.0049 136.123L88.7187 115.834L72.8773 123.787C72.6126 124.013 72.3 124.175 71.9631 124.262C71.6263 124.349 71.2741 124.358 70.9332 124.289C70.5923 124.22 70.2716 124.074 69.9955 123.862C69.7194 123.65 69.4951 123.379 69.3396 123.068C69.184 122.756 69.1014 122.414 69.0979 122.066C69.0943 121.718 69.17 121.374 69.3192 121.06C69.4684 120.745 69.6871 120.469 69.9589 120.252C70.2306 120.035 70.5483 119.882 70.8877 119.806L92.6028 108.785L106.575 84.5857L65.7583 80.8726C65.4118 80.9292 65.0569 80.9055 64.7211 80.8033C64.3852 80.7011 64.0773 80.5231 63.8211 80.283C63.5649 80.043 63.3673 79.7473 63.2434 79.4188C63.1196 79.0903 63.0729 78.7378 63.1069 78.3883C63.1409 78.0389 63.2547 77.7019 63.4395 77.4035C63.6243 77.105 63.8752 76.8529 64.1729 76.6668C64.4705 76.4806 64.807 76.3653 65.1562 76.3297C65.5055 76.2942 65.8583 76.3393 66.1873 76.4617L109.016 80.3572Z" fill="#C9C9C9"/>
</svg>
