<svg width="16" height="16" viewBox="0 0 16 16" fill="none" xmlns="http://www.w3.org/2000/svg">
<path d="M4 5.72506L3.57817 5.45662L3.5 5.57946V5.72506H4ZM6.69761 1.48597L7.11944 1.75441L6.69761 1.48597ZM9.36455 2.99596L8.91734 2.77236V2.77236L9.36455 2.99596ZM8 5.72506L7.55279 5.50145C7.47529 5.65645 7.48357 5.84052 7.57467 5.98793C7.66578 6.13534 7.82671 6.22506 8 6.22506V5.72506ZM15 10.7251L15.4 11.0251L15.5 10.8917V10.7251H15ZM12.6 13.9251L13 14.2251L12.6 13.9251ZM8.78158 0.994008L9.03883 0.565261L9.03883 0.565261L8.78158 0.994008ZM0.5 5.22506V15.2251H1.5V5.22506H0.5ZM4.42183 5.9935L7.11944 1.75441L6.27577 1.21753L3.57817 5.45662L4.42183 5.9935ZM8.91734 2.77236L7.55279 5.50145L8.44721 5.94867L9.81176 3.21957L8.91734 2.77236ZM8 6.22506H13V5.22506H8V6.22506ZM14.5 7.72506V10.7251H15.5V7.72506H14.5ZM14.6 10.4251L12.2 13.6251L13 14.2251L15.4 11.0251L14.6 10.4251ZM11 14.2251H6V15.2251H11V14.2251ZM4.5 12.7251V5.72506H3.5V12.7251H4.5ZM13 6.22506C13.8284 6.22506 14.5 6.89663 14.5 7.72506H15.5C15.5 6.34435 14.3807 5.22506 13 5.22506V6.22506ZM6 14.2251C5.17157 14.2251 4.5 13.5535 4.5 12.7251H3.5C3.5 14.1058 4.61929 15.2251 6 15.2251V14.2251ZM8.52433 1.42275C8.98782 1.70085 9.15906 2.2889 8.91734 2.77236L9.81176 3.21957C10.2872 2.26875 9.95039 1.1122 9.03883 0.565261L8.52433 1.42275ZM12.2 13.6251C11.9167 14.0028 11.4721 14.2251 11 14.2251V15.2251C11.7869 15.2251 12.5279 14.8546 13 14.2251L12.2 13.6251ZM7.11944 1.75441C7.42046 1.28137 8.04354 1.13428 8.52433 1.42275L9.03883 0.565261C8.09324 -0.00208783 6.8678 0.287201 6.27577 1.21753L7.11944 1.75441Z" fill="#C9C9C9"/>
</svg>
