<svg width="16" height="15" viewBox="0 0 16 15" fill="none" xmlns="http://www.w3.org/2000/svg">
<path d="M11.625 5.6875V3.9375C11.625 1.75 9.79167 0 7.5 0C5.20833 0 3.375 1.75 3.375 3.9375V5.6875C2.59583 5.6875 2 6.25625 2 7V12.6875C2 13.3875 2.59583 14 3.375 14H11.625C12.4042 14 13 13.3875 13 12.6875V7C13 6.25625 12.4042 5.6875 11.625 5.6875ZM4.29167 3.9375C4.29167 2.23125 5.7125 0.875 7.5 0.875C9.2875 0.875 10.7083 2.23125 10.7083 3.9375V5.6875H4.29167V3.9375ZM7.95833 10.4125V11.375C7.95833 11.6375 7.775 11.8125 7.5 11.8125C7.225 11.8125 7.04167 11.6375 7.04167 11.375V10.4125C6.49167 10.2375 6.125 9.75625 6.125 9.1875C6.125 8.44375 6.72083 7.875 7.5 7.875C8.27917 7.875 8.875 8.44375 8.875 9.1875C8.875 9.75625 8.50833 10.2375 7.95833 10.4125Z" fill="#90959B"/>
</svg>
