<svg width="16" height="16" viewBox="0 0 16 16" fill="none" xmlns="http://www.w3.org/2000/svg">
<path d="M0 4.51984C0 3.91984 0.08 3.39318 0.24 2.93984C0.4 2.48651 0.62 2.10651 0.9 1.79984C1.19333 1.47984 1.53333 1.23984 1.92 1.07984C2.30667 0.919843 2.72667 0.839844 3.18 0.839844C3.63333 0.839844 4.05333 0.919843 4.44 1.07984C4.82667 1.23984 5.16 1.47984 5.44 1.79984C5.73333 2.10651 5.96 2.48651 6.12 2.93984C6.28 3.39318 6.36 3.91984 6.36 4.51984C6.36 5.11984 6.28 5.64651 6.12 6.09984C5.96 6.55318 5.73333 6.93984 5.44 7.25984C5.16 7.56651 4.82667 7.79984 4.44 7.95984C4.05333 8.11984 3.63333 8.19984 3.18 8.19984C2.72667 8.19984 2.30667 8.11984 1.92 7.95984C1.53333 7.79984 1.19333 7.56651 0.9 7.25984C0.62 6.93984 0.4 6.55318 0.24 6.09984C0.08 5.64651 0 5.11984 0 4.51984ZM4.8 4.51984C4.8 3.79984 4.66 3.23984 4.38 2.83984C4.1 2.42651 3.7 2.21984 3.18 2.21984C2.66 2.21984 2.26 2.42651 1.98 2.83984C1.7 3.23984 1.56 3.79984 1.56 4.51984C1.56 5.23984 1.7 5.80651 1.98 6.21984C2.26 6.61984 2.66 6.81984 3.18 6.81984C3.7 6.81984 4.1 6.61984 4.38 6.21984C4.66 5.80651 4.8 5.23984 4.8 4.51984ZM8.8 11.6198C8.8 11.0198 8.88 10.4932 9.04 10.0398C9.2 9.58651 9.42 9.20651 9.7 8.89984C9.99333 8.57984 10.3333 8.33984 10.72 8.17984C11.1067 8.01984 11.5267 7.93984 11.98 7.93984C12.4333 7.93984 12.8533 8.01984 13.24 8.17984C13.6267 8.33984 13.96 8.57984 14.24 8.89984C14.5333 9.20651 14.76 9.58651 14.92 10.0398C15.08 10.4932 15.16 11.0198 15.16 11.6198C15.16 12.2198 15.08 12.7465 14.92 13.1998C14.76 13.6532 14.5333 14.0398 14.24 14.3598C13.96 14.6665 13.6267 14.8998 13.24 15.0598C12.8533 15.2198 12.4333 15.2998 11.98 15.2998C11.5267 15.2998 11.1067 15.2198 10.72 15.0598C10.3333 14.8998 9.99333 14.6665 9.7 14.3598C9.42 14.0398 9.2 13.6532 9.04 13.1998C8.88 12.7465 8.8 12.2198 8.8 11.6198ZM13.6 11.6198C13.6 10.8998 13.46 10.3398 13.18 9.93984C12.9 9.52651 12.5 9.31984 11.98 9.31984C11.46 9.31984 11.06 9.52651 10.78 9.93984C10.5 10.3398 10.36 10.8998 10.36 11.6198C10.36 12.3398 10.5 12.9065 10.78 13.3198C11.06 13.7198 11.46 13.9198 11.98 13.9198C12.5 13.9198 12.9 13.7198 13.18 13.3198C13.46 12.9065 13.6 12.3398 13.6 11.6198ZM12.4 1.13984L4.58 14.9998H2.76L10.58 1.13984H12.4Z" fill="white"/>
</svg>
