<svg width="24" height="25" viewBox="0 0 24 25" fill="none" xmlns="http://www.w3.org/2000/svg">
<g clip-path="url(#clip0_24_1542)">
<path d="M23.347 18.1136L19.9977 14.7643C18.8015 13.5681 16.768 14.0467 16.2896 15.6016C15.9307 16.6782 14.7346 17.2763 13.658 17.037C11.2657 16.4389 8.03602 13.3289 7.43794 10.817C7.07908 9.74036 7.79679 8.54419 8.87334 8.18538C10.4284 7.70691 10.9068 5.67343 9.71066 4.47726L6.36138 1.12799C5.40445 0.290671 3.96905 0.290671 3.13173 1.12799L0.859009 3.40071C-1.41371 5.79305 1.09824 12.1327 6.72023 17.7547C12.3422 23.3767 18.6819 26.0083 21.0743 23.616L23.347 21.3432C24.1843 20.3863 24.1843 18.9509 23.347 18.1136Z" fill="white"/>
</g>
<defs>
<clipPath id="clip0_24_1542">
<rect width="24" height="24" fill="white" transform="translate(0 0.5)"/>
</clipPath>
</defs>
</svg>
