<svg width="40" height="40" viewBox="0 0 40 40" fill="none" xmlns="http://www.w3.org/2000/svg">
<path d="M28.2812 0H11.7188C5.24688 0 0 5.24688 0 11.7188V28.2812C0 34.7531 5.24688 40 11.7188 40H28.2812C34.7531 40 40 34.7531 40 28.2812V11.7188C40 5.24688 34.7531 0 28.2812 0ZM31.3281 20C31.3281 21.0789 30.4539 21.9531 29.375 21.9531H21.9531V29.375C21.9531 30.4539 21.0789 31.3281 20 31.3281C18.9211 31.3281 18.0469 30.4539 18.0469 29.375V21.9531H10.625C9.54609 21.9531 8.67188 21.0789 8.67188 20C8.67188 18.9211 9.54609 18.0469 10.625 18.0469H18.0469V10.625C18.0469 9.54609 18.9211 8.67188 20 8.67188C21.0789 8.67188 21.9531 9.54609 21.9531 10.625V18.0469H29.375C30.4539 18.0469 31.3281 18.9211 31.3281 20Z" fill="#E42D24"/>
</svg>
