<svg width="48" height="48" viewBox="0 0 48 48" fill="none" xmlns="http://www.w3.org/2000/svg">
<path d="M40.5 8.99999C32.16 8.99999 25.005 3.38999 24.93 3.32999C24.6652 3.12073 24.3375 3.0069 24 3.0069C23.6625 3.0069 23.3348 3.12073 23.07 3.32999C22.995 3.38999 15.87 8.99999 7.5 8.99999C7.10218 8.99999 6.72064 9.15803 6.43934 9.43934C6.15804 9.72064 6 10.1022 6 10.5V24C6 34.065 10.065 39 23.385 44.865C23.5784 44.9519 23.788 44.9969 24 44.9969C24.212 44.9969 24.4216 44.9519 24.615 44.865C37.935 39 42 34.065 42 24V10.5C42 10.1022 41.842 9.72064 41.5607 9.43934C41.2794 9.15803 40.8978 8.99999 40.5 8.99999ZM24 36C21.6266 36 19.3065 35.2962 17.3332 33.9776C15.3598 32.6591 13.8217 30.7849 12.9134 28.5922C12.0052 26.3995 11.7676 23.9867 12.2306 21.6589C12.6936 19.3311 13.8365 17.1929 15.5147 15.5147C17.1929 13.8365 19.3311 12.6936 21.6589 12.2306C23.9867 11.7675 26.3995 12.0052 28.5922 12.9134C30.7849 13.8217 32.6591 15.3598 33.9776 17.3332C35.2962 19.3065 36 21.6266 36 24C36 27.1826 34.7357 30.2348 32.4853 32.4853C30.2348 34.7357 27.1826 36 24 36Z" fill="#54595F"/>
<path d="M27.4343 19.935L22.4993 24.885L20.5643 22.935C20.4244 22.7951 20.2584 22.6842 20.0757 22.6085C19.8929 22.5328 19.6971 22.4938 19.4993 22.4938C19.3015 22.4938 19.1057 22.5328 18.9229 22.6085C18.7402 22.6842 18.5742 22.7951 18.4343 22.935C18.2944 23.0748 18.1835 23.2409 18.1078 23.4236C18.0321 23.6063 17.9932 23.8022 17.9932 24C17.9932 24.1978 18.0321 24.3936 18.1078 24.5763C18.1835 24.7591 18.2944 24.9251 18.4343 25.065L21.4343 28.065C21.5737 28.2056 21.7396 28.3172 21.9224 28.3933C22.1052 28.4695 22.3013 28.5087 22.4993 28.5087C22.6973 28.5087 22.8934 28.4695 23.0762 28.3933C23.259 28.3172 23.4249 28.2056 23.5643 28.065L29.5643 22.065C29.7042 21.9251 29.8151 21.7591 29.8908 21.5763C29.9665 21.3936 30.0054 21.1978 30.0054 21C30.0054 20.8022 29.9665 20.6063 29.8908 20.4236C29.8151 20.2409 29.7042 20.0748 29.5643 19.935C29.4244 19.7951 29.2584 19.6842 29.0757 19.6085C28.8929 19.5328 28.6971 19.4938 28.4993 19.4938C28.3015 19.4938 28.1057 19.5328 27.9229 19.6085C27.7402 19.6842 27.5742 19.7951 27.4343 19.935Z" fill="#54595F"/>
</svg>
