<svg width="24" height="24" viewBox="0 0 24 24" fill="none" xmlns="http://www.w3.org/2000/svg">
<path d="M7.39237 14.0819C7.98914 14.0801 8.56333 13.8481 9.00052 13.4322L13.2717 15.9312C13.1285 16.5038 13.1916 17.11 13.4494 17.6388C13.7071 18.1677 14.1422 18.5838 14.6751 18.811C15.208 19.0382 15.8029 19.0613 16.3511 18.8761C16.8992 18.6908 17.3639 18.3096 17.66 17.8023C17.9561 17.2949 18.0638 16.6953 17.9634 16.1133C17.8631 15.5312 17.5613 15.0057 17.1134 14.6328C16.6656 14.2599 16.1015 14.0647 15.5246 14.0828C14.9476 14.101 14.3964 14.3313 13.9717 14.7316L9.70055 12.2327C9.74558 12.058 9.77015 11.8771 9.77424 11.6961L13.9703 9.24045C14.3744 9.61685 14.8925 9.83952 15.4379 9.87111C15.9833 9.9027 16.5226 9.74128 16.9655 9.41393C17.4085 9.08658 17.728 8.61323 17.8704 8.07327C18.0129 7.53332 17.9697 6.95962 17.748 6.44842C17.5264 5.93723 17.1398 5.51963 16.6531 5.2657C16.1664 5.01176 15.6092 4.93694 15.075 5.05378C14.5409 5.17062 14.0622 5.47202 13.7193 5.9074C13.3764 6.34279 13.1902 6.88568 13.1918 7.44499C13.1946 7.64619 13.2212 7.8467 13.2717 8.04091L9.39352 10.3093C9.16863 9.95309 8.85708 9.66287 8.4895 9.46721C8.12192 9.27154 7.71095 9.17716 7.29697 9.19333C6.88299 9.2095 6.48023 9.33568 6.12828 9.55945C5.77633 9.78323 5.48729 10.0969 5.28956 10.4697C5.09182 10.8424 4.9922 11.2615 5.00048 11.6856C5.00875 12.1097 5.12464 12.5243 5.33676 12.8887C5.54888 13.2531 5.84993 13.5547 6.21033 13.7639C6.57073 13.9731 6.97809 14.0827 7.39237 14.0819Z" fill="#E7E7E7"/>
</svg>
