<svg width="103" height="117" viewBox="0 0 103 117" fill="none" xmlns="http://www.w3.org/2000/svg">
<path d="M43.9735 81.8307L49.052 84.7627L44.651 87.3578C44.458 87.4716 44.2893 87.6223 44.1545 87.8013C44.0198 87.9803 43.9216 88.1841 43.8656 88.4011C43.8096 88.618 43.7969 88.8439 43.8281 89.0658C43.8594 89.2876 43.9341 89.5012 44.0479 89.6942C44.1617 89.8872 44.3125 90.0559 44.4915 90.1907C44.6705 90.3254 44.8743 90.4236 45.0912 90.4796C45.3082 90.5356 45.534 90.5483 45.7559 90.5171C45.9778 90.4858 46.1913 90.4111 46.3843 90.2973L52.4467 86.7226L61.5874 92.0001L52.4483 97.2767L46.3841 93.7025C46.1911 93.5887 45.9775 93.514 45.7556 93.4827C45.5337 93.4514 45.3079 93.4642 45.0909 93.5203C44.8739 93.5764 44.6702 93.6746 44.4912 93.8095C44.3122 93.9444 44.1616 94.1132 44.0479 94.3063C43.8182 94.6961 43.7527 95.1613 43.8659 95.5995C43.9791 96.0376 44.2616 96.4129 44.6515 96.6427L49.0531 99.2369L43.9735 102.17C43.5848 102.397 43.3021 102.77 43.1869 103.205C43.0717 103.641 43.1335 104.104 43.3588 104.495C43.5841 104.885 43.9546 105.17 44.3894 105.288C44.8242 105.406 45.2881 105.347 45.6798 105.125L50.7582 102.193L50.8044 107.302C50.8128 108.245 51.5859 109.006 52.5259 108.993C52.75 108.991 52.9714 108.945 53.1777 108.857C53.3839 108.77 53.5709 108.643 53.7279 108.483C53.8849 108.323 54.0089 108.134 54.0927 107.926C54.1766 107.718 54.2187 107.496 54.2167 107.272L54.1532 100.233L63.2934 94.9553V105.509L57.1653 108.972C56.9702 109.083 56.7988 109.23 56.6608 109.407C56.5227 109.583 56.4208 109.785 56.3608 110.001C56.3009 110.217 56.284 110.443 56.3112 110.665C56.3384 110.888 56.4092 111.102 56.5194 111.298C56.6297 111.493 56.7773 111.664 56.9538 111.802C57.1303 111.94 57.3323 112.042 57.5482 112.102C57.7641 112.162 57.9897 112.179 58.2121 112.152C58.4345 112.124 58.6494 112.054 58.8445 111.943L63.2934 109.429V115.294C63.2934 115.746 63.4732 116.18 63.7932 116.5C64.1132 116.82 64.5472 117 64.9997 117C65.4522 117 65.8862 116.82 66.2062 116.5C66.5262 116.18 66.7059 115.746 66.7059 115.294V109.429L71.1549 111.943C71.5489 112.166 72.0152 112.223 72.4512 112.102C72.8872 111.981 73.2573 111.691 73.48 111.297C73.7026 110.903 73.7597 110.437 73.6385 110.001C73.5174 109.565 73.228 109.195 72.8341 108.972L66.7062 105.509V94.9553L75.8464 100.233L75.7829 107.272C75.7809 107.496 75.823 107.718 75.9069 107.926C75.9907 108.134 76.1147 108.323 76.2717 108.483C76.4287 108.643 76.6157 108.77 76.8219 108.857C77.0282 108.945 77.2496 108.991 77.4737 108.993H77.4894C77.9392 108.993 78.3708 108.815 78.6902 108.499C79.0097 108.182 79.1912 107.752 79.1952 107.302L79.2414 102.193L84.3198 105.125C84.7115 105.347 85.1754 105.406 85.6102 105.288C86.045 105.17 86.4155 104.885 86.6408 104.495C86.8661 104.104 86.9279 103.641 86.8127 103.205C86.6976 102.77 86.4148 102.397 86.0261 102.17L80.9467 99.2369L85.349 96.6422C85.7355 96.4107 86.0147 96.0358 86.1258 95.5993C86.2369 95.1627 86.1709 94.7 85.9422 94.3119C85.7135 93.9238 85.3406 93.6419 84.9049 93.5277C84.4691 93.4134 84.0059 93.4761 83.6162 93.702L77.5513 97.2763L68.412 91.9997L77.5529 86.7221L83.6162 90.2975C84.006 90.5273 84.4711 90.5929 84.9093 90.4798C85.3474 90.3667 85.7227 90.0842 85.9526 89.6944C86.0664 89.5014 86.1411 89.2879 86.1724 89.066C86.2036 88.8442 86.1909 88.6183 86.1349 88.4014C86.0789 88.1845 85.9807 87.9807 85.846 87.8017C85.7112 87.6227 85.5425 87.472 85.3495 87.3582L80.9478 84.7629L86.0263 81.8309C86.415 81.603 86.6978 81.2307 86.8129 80.7951C86.9281 80.3595 86.8663 79.896 86.641 79.5058C86.4157 79.1156 86.0453 78.8304 85.6104 78.7123C85.1756 78.5943 84.7117 78.653 84.3201 78.8757L79.2416 81.8079L79.1954 76.6978C79.1914 76.248 79.0099 75.818 78.6905 75.5013C78.371 75.1847 77.9394 75.0069 77.4896 75.0068L77.4739 75.0071C77.2499 75.0091 77.0284 75.0552 76.8222 75.1428C76.6159 75.2304 76.429 75.3577 76.272 75.5176C76.1149 75.6774 75.991 75.8667 75.9071 76.0744C75.8232 76.2822 75.7811 76.5045 75.7832 76.7285L75.8466 83.7678L66.7062 89.0451V78.4912L72.8341 75.0278C73.228 74.8051 73.5174 74.435 73.6385 73.999C73.7597 73.563 73.7026 73.0967 73.48 72.7027C73.2573 72.3088 72.8872 72.0194 72.4512 71.8983C72.0152 71.7771 71.5489 71.8342 71.1549 72.0569L66.7059 74.5712V68.7062C66.7059 68.2537 66.5262 67.8197 66.2062 67.4997C65.8862 67.1798 65.4522 67 64.9997 67C64.5472 67 64.1132 67.1798 63.7932 67.4997C63.4732 67.8197 63.2934 68.2537 63.2934 68.7062V74.5712L58.8445 72.0569C58.6494 71.9465 58.4345 71.8757 58.2121 71.8485C57.9897 71.8212 57.764 71.8381 57.5481 71.8981C57.3322 71.958 57.1302 72.06 56.9537 72.198C56.7772 72.3361 56.6296 72.5076 56.5194 72.7027C56.4092 72.8978 56.3384 73.1127 56.3112 73.3351C56.284 73.5575 56.3008 73.7831 56.3608 73.999C56.4208 74.2149 56.5227 74.4169 56.6607 74.5934C56.7988 74.7699 56.9702 74.9175 57.1653 75.0278L63.2934 78.4912V89.0449L54.1532 83.7678L54.2183 76.7288C54.2204 76.5047 54.1783 76.2824 54.0945 76.0746C54.0107 75.8668 53.8868 75.6776 53.7298 75.5177C53.5728 75.3578 53.3859 75.2304 53.1797 75.1427C52.9735 75.0551 52.752 75.0089 52.528 75.0068L52.5118 75.0066C52.0621 75.0067 51.6306 75.1844 51.3111 75.501C50.9917 75.8175 50.8102 76.2474 50.806 76.6972L50.7587 81.8079L45.6796 78.8755C45.4855 78.7634 45.2713 78.6907 45.0492 78.6614C44.827 78.6321 44.6013 78.6469 44.3848 78.7049C44.1684 78.7629 43.9655 78.863 43.7877 78.9994C43.61 79.1358 43.4608 79.3059 43.3488 79.4999C43.2368 79.694 43.1641 79.9082 43.1349 80.1304C43.1056 80.3525 43.1205 80.5783 43.1785 80.7947C43.2365 81.0111 43.3365 81.214 43.473 81.3918C43.6094 81.5695 43.7795 81.7187 43.9735 81.8307Z" fill="#E7E7E7"/>
<path d="M66.1792 11.8645L70.242 14.2101L66.7212 16.2862C66.5668 16.3773 66.4318 16.4978 66.324 16.641C66.2162 16.7842 66.1377 16.9473 66.0929 17.1209C66.0481 17.2944 66.0379 17.4751 66.0629 17.6526C66.0879 17.8301 66.1477 18.0009 66.2387 18.1553C66.3298 18.3098 66.4504 18.4447 66.5936 18.5525C66.7368 18.6603 66.8998 18.7389 67.0734 18.7837C67.2469 18.8285 67.4276 18.8387 67.6051 18.8136C67.7826 18.7886 67.9535 18.7289 68.1079 18.6378L72.9578 15.7781L80.2703 20.0001L72.9591 24.2214L68.1077 21.362C67.9533 21.2709 67.7824 21.2112 67.6049 21.1862C67.4274 21.1612 67.2467 21.1714 67.0731 21.2162C66.8995 21.2611 66.7365 21.3397 66.5934 21.4476C66.4502 21.5555 66.3297 21.6905 66.2387 21.845C66.0549 22.1569 66.0025 22.5291 66.0931 22.8796C66.1836 23.2301 66.4097 23.5303 66.7216 23.7142L70.2429 25.7895L66.1792 28.1356C65.8683 28.3179 65.642 28.6158 65.5499 28.9643C65.4578 29.3128 65.5072 29.6836 65.6874 29.9957C65.8677 30.3079 66.1641 30.5361 66.5119 30.6305C66.8598 30.725 67.2309 30.678 67.5442 30.4998L71.607 28.154L71.6439 32.2419C71.6507 32.9958 72.2691 33.6049 73.0211 33.5945C73.2004 33.5929 73.3775 33.5561 73.5425 33.486C73.7075 33.4159 73.8571 33.314 73.9827 33.1861C74.1083 33.0582 74.2075 32.9069 74.2746 32.7406C74.3417 32.5744 74.3754 32.3966 74.3737 32.2173L74.323 26.5861L81.6351 22.3643V30.8072L76.7326 33.578C76.5766 33.6662 76.4394 33.7843 76.329 33.9255C76.2186 34.0667 76.137 34.2283 76.0891 34.401C76.0411 34.5737 76.0276 34.7542 76.0494 34.9321C76.0711 35.11 76.1277 35.2819 76.2159 35.438C76.3041 35.5941 76.4222 35.7312 76.5634 35.8416C76.7046 35.9521 76.8662 36.0336 77.0389 36.0816C77.2117 36.1296 77.3921 36.143 77.5701 36.1213C77.748 36.0995 77.9199 36.0429 78.076 35.9547L81.6351 33.9431V38.635C81.6351 38.997 81.779 39.3442 82.0349 39.6002C82.2909 39.8562 82.6381 40 83.0001 40C83.3622 40 83.7094 39.8562 83.9653 39.6002C84.2213 39.3442 84.3651 38.997 84.3651 38.635V33.9431L87.9243 35.9545C88.2395 36.1327 88.6125 36.1783 88.9613 36.0814C89.3102 35.9845 89.6062 35.753 89.7844 35.4378C89.9625 35.1226 90.0081 34.7496 89.9112 34.4008C89.8143 34.052 89.5828 33.7559 89.2677 33.5778L84.3653 30.807V22.3643L91.6775 26.5861L91.6267 32.2173C91.6251 32.3966 91.6588 32.5744 91.7259 32.7406C91.793 32.9069 91.8922 33.0582 92.0178 33.1861C92.1434 33.314 92.2929 33.4159 92.4579 33.486C92.6229 33.5561 92.8001 33.5929 92.9793 33.5945H92.9919C93.3518 33.5945 93.697 33.4523 93.9526 33.1989C94.2081 32.9456 94.3533 32.6016 94.3565 32.2417L94.3935 28.154L98.4563 30.4998C98.7696 30.678 99.1407 30.725 99.4886 30.6305C99.8364 30.5361 100.133 30.3079 100.313 29.9957C100.493 29.6836 100.543 29.3128 100.451 28.9643C100.358 28.6158 100.132 28.3179 99.8213 28.1356L95.7578 25.7895L99.2796 23.7138C99.5888 23.5286 99.8121 23.2287 99.901 22.8794C99.9899 22.5302 99.9371 22.16 99.7542 21.8495C99.5712 21.539 99.2729 21.3135 98.9243 21.2221C98.5757 21.1307 98.2051 21.1809 97.8933 21.3616L93.0414 24.221L85.73 19.9997L93.0427 15.7777L97.8933 18.638C98.2052 18.8218 98.5773 18.8743 98.9278 18.7838C99.2783 18.6933 99.5786 18.4673 99.7625 18.1555C99.8535 18.0011 99.9133 17.8303 99.9383 17.6528C99.9633 17.4753 99.9531 17.2947 99.9083 17.1211C99.8635 16.9476 99.785 16.7845 99.6772 16.6414C99.5693 16.4982 99.4344 16.3776 99.28 16.2866L95.7587 14.2103L99.8214 11.8647C100.132 11.6824 100.359 11.3845 100.451 11.0361C100.543 10.6876 100.493 10.3168 100.313 10.0046C100.133 9.69249 99.8366 9.46429 99.4887 9.36985C99.1409 9.27541 98.7698 9.32239 98.4564 9.50055L94.3937 11.8463L94.3567 7.75827C94.3535 7.39843 94.2083 7.05442 93.9528 6.80107C93.6972 6.54773 93.3519 6.40555 92.9921 6.40547L92.9795 6.40565C92.8003 6.40724 92.6231 6.44413 92.4581 6.51421C92.2931 6.58429 92.1436 6.68618 92.018 6.81406C91.8923 6.94195 91.7932 7.09333 91.7261 7.25956C91.659 7.42578 91.6253 7.60359 91.6269 7.78284L91.6777 13.4143L84.3653 17.6361V9.19297L89.2677 6.42221C89.5828 6.24407 89.8143 5.94803 89.9112 5.59921C90.0081 5.25038 89.9625 4.87735 89.7844 4.56218C89.6062 4.247 89.3102 4.0155 88.9613 3.9186C88.6125 3.8217 88.2395 3.86734 87.9243 4.04548L84.3651 6.05694V1.36499C84.3651 1.00297 84.2213 0.655783 83.9653 0.399797C83.7094 0.14381 83.3622 -1.42954e-06 83.0001 -1.42954e-06C82.6381 -1.42954e-06 82.2909 0.14381 82.0349 0.399797C81.779 0.655783 81.6351 1.00297 81.6351 1.36499V6.05694L78.076 4.04548C77.9199 3.95722 77.748 3.90058 77.5701 3.87878C77.3921 3.85698 77.2116 3.87046 77.0389 3.91844C76.8662 3.96642 76.7046 4.04797 76.5634 4.15843C76.4222 4.26888 76.3041 4.40608 76.2159 4.56218C76.1277 4.71823 76.0711 4.89014 76.0493 5.06807C76.0276 5.24601 76.0411 5.42649 76.089 5.59921C76.137 5.77193 76.2185 5.93351 76.329 6.07472C76.4394 6.21594 76.5766 6.33401 76.7326 6.42221L81.6351 9.19297V17.6359L74.323 13.4143L74.375 7.78302C74.3767 7.60377 74.343 7.42595 74.276 7.25971C74.2089 7.09347 74.1098 6.94206 73.9842 6.81414C73.8587 6.68622 73.7091 6.58429 73.5441 6.51417C73.3792 6.44404 73.202 6.40711 73.0228 6.40547L73.0098 6.40528C72.65 6.40536 72.3048 6.54749 72.0493 6.80076C71.7937 7.05403 71.6485 7.39795 71.6452 7.75772L71.6073 11.8463L67.544 9.50037C67.3888 9.41072 67.2174 9.35253 67.0397 9.32912C66.862 9.30571 66.6814 9.31754 66.5083 9.36393C66.3351 9.41032 66.1728 9.49037 66.0306 9.5995C65.8884 9.70863 65.7691 9.84471 65.6794 9.99995C65.5898 10.1552 65.5317 10.3266 65.5083 10.5043C65.4849 10.682 65.4968 10.8626 65.5432 11.0358C65.5896 11.2089 65.6696 11.3712 65.7788 11.5134C65.8879 11.6556 66.024 11.7749 66.1792 11.8645Z" fill="#E7E7E7"/>
<path d="M2.38441 28.8984L5.43149 30.6576L2.79091 32.2147C2.6751 32.2829 2.57388 32.3734 2.49302 32.4808C2.41216 32.5882 2.35325 32.7105 2.31965 32.8406C2.28605 32.9708 2.27841 33.1063 2.29718 33.2395C2.31595 33.3726 2.36076 33.5007 2.42905 33.6165C2.49734 33.7323 2.58776 33.8335 2.69517 33.9144C2.80258 33.9953 2.92486 34.0542 3.05503 34.0878C3.1852 34.1214 3.32072 34.129 3.45385 34.1102C3.58697 34.0915 3.71509 34.0467 3.8309 33.9784L7.46834 31.8336L12.9528 35.0001L7.46929 38.166L3.83076 36.0215C3.71495 35.9532 3.58682 35.9084 3.45368 35.8896C3.32054 35.8709 3.18501 35.8785 3.05484 35.9122C2.92466 35.9458 2.80239 36.0048 2.69502 36.0857C2.58764 36.1666 2.49726 36.2679 2.42905 36.3838C2.2912 36.6177 2.25191 36.8968 2.31982 37.1597C2.38773 37.4226 2.55728 37.6477 2.79118 37.7856L5.43218 39.3421L2.38441 41.1017C2.1512 41.2385 1.98153 41.4619 1.91243 41.7232C1.84333 41.9846 1.88041 42.2627 2.01559 42.4968C2.15076 42.7309 2.37304 42.9021 2.63394 42.9729C2.89483 43.0437 3.17315 43.0085 3.40816 42.8749L6.45524 41.1155L6.48295 44.1814C6.488 44.7468 6.95183 45.2037 7.51584 45.1959C7.65028 45.1947 7.78316 45.167 7.9069 45.1145C8.03064 45.0619 8.14282 44.9855 8.23702 44.8896C8.33123 44.7937 8.40562 44.6801 8.45594 44.5555C8.50626 44.4308 8.53153 44.2974 8.5303 44.163L8.49222 39.9396L13.9764 36.7732V43.1054L10.2995 45.1835C10.1824 45.2496 10.0796 45.3382 9.99675 45.4441C9.91393 45.55 9.85278 45.6712 9.81679 45.8007C9.78081 45.9303 9.77069 46.0656 9.78702 46.1991C9.80335 46.3325 9.8458 46.4615 9.91195 46.5785C9.97811 46.6955 10.0667 46.7984 10.1726 46.8812C10.2785 46.9641 10.3997 47.0252 10.5292 47.0612C10.6587 47.0972 10.7941 47.1073 10.9276 47.091C11.061 47.0746 11.1899 47.0322 11.307 46.966L13.9764 45.4573V48.9763C13.9764 49.2478 14.0842 49.5082 14.2762 49.7002C14.4682 49.8921 14.7286 50 15.0001 50C15.2716 50 15.532 49.8921 15.724 49.7002C15.916 49.5082 16.0239 49.2478 16.0239 48.9763V45.4573L18.6932 46.9659C18.9296 47.0995 19.2094 47.1337 19.471 47.061C19.7326 46.9884 19.9547 46.8147 20.0883 46.5784C20.2219 46.342 20.2561 46.0622 20.1834 45.8006C20.1107 45.539 19.9371 45.3169 19.7007 45.1833L16.024 43.1053V36.7732L21.5081 39.9396L21.47 44.163C21.4688 44.2974 21.4941 44.4308 21.5444 44.5555C21.5947 44.6801 21.6691 44.7937 21.7633 44.8896C21.8575 44.9855 21.9697 45.0619 22.0935 45.1145C22.2172 45.167 22.3501 45.1947 22.4845 45.1959H22.4939C22.7638 45.1958 23.0228 45.0892 23.2144 44.8992C23.4061 44.7092 23.515 44.4512 23.5174 44.1813L23.5451 41.1155L26.5922 42.8749C26.8272 43.0085 27.1055 43.0437 27.3664 42.9729C27.6273 42.9021 27.8496 42.7309 27.9848 42.4968C28.1199 42.2627 28.157 41.9846 28.0879 41.7232C28.0188 41.4619 27.8492 41.2385 27.6159 41.1017L24.5683 39.3421L27.2097 37.7853C27.4416 37.6464 27.6091 37.4215 27.6758 37.1596C27.7425 36.8976 27.7029 36.62 27.5656 36.3871C27.4284 36.1543 27.2047 35.9851 26.9432 35.9166C26.6818 35.848 26.4038 35.8857 26.17 36.0212L22.5311 38.1658L17.0475 34.9998L22.532 31.8333L26.17 33.9785C26.4039 34.1164 26.683 34.1557 26.9459 34.0879C27.2087 34.02 27.4339 33.8505 27.5718 33.6166C27.6401 33.5008 27.6849 33.3727 27.7037 33.2396C27.7225 33.1065 27.7148 32.971 27.6812 32.8408C27.6476 32.7107 27.5887 32.5884 27.5079 32.481C27.427 32.3736 27.3258 32.2832 27.21 32.2149L24.569 30.6577L27.6161 28.8985C27.8493 28.7618 28.019 28.5384 28.0881 28.277C28.1572 28.0157 28.1201 27.7376 27.9849 27.5035C27.8497 27.2694 27.6274 27.0982 27.3666 27.0274C27.1057 26.9566 26.8273 26.9918 26.5923 27.1254L23.5453 28.8848L23.5175 25.8187C23.5151 25.5488 23.4062 25.2908 23.2146 25.1008C23.0229 24.9108 22.764 24.8042 22.4941 24.8041L22.4846 24.8042C22.3502 24.8054 22.2173 24.8331 22.0936 24.8857C21.9698 24.9382 21.8577 25.0146 21.7635 25.1105C21.6693 25.2065 21.5949 25.32 21.5446 25.4447C21.4942 25.5693 21.469 25.7027 21.4702 25.8371L21.5083 30.0607L16.024 33.2271V26.8947L19.7007 24.8167C19.9371 24.6831 20.1107 24.461 20.1834 24.1994C20.2561 23.9378 20.2219 23.658 20.0883 23.4216C19.9547 23.1853 19.7326 23.0116 19.471 22.939C19.2094 22.8663 18.9296 22.9005 18.6932 23.0341L16.0239 24.5427V21.0237C16.0239 20.7522 15.916 20.4918 15.724 20.2998C15.532 20.1079 15.2716 20 15.0001 20C14.7286 20 14.4682 20.1079 14.2762 20.2998C14.0842 20.4918 13.9764 20.7522 13.9764 21.0237V24.5427L11.307 23.0341C11.1899 22.9679 11.061 22.9254 10.9276 22.9091C10.7941 22.8927 10.6587 22.9028 10.5292 22.9388C10.3996 22.9748 10.2784 23.036 10.1725 23.1188C10.0666 23.2017 9.97808 23.3046 9.91195 23.4216C9.84579 23.5387 9.80334 23.6676 9.78701 23.8011C9.77068 23.9345 9.78079 24.0699 9.81678 24.1994C9.85276 24.329 9.91391 24.4501 9.99673 24.556C10.0796 24.662 10.1824 24.7505 10.2995 24.8167L13.9764 26.8947V33.2269L8.49222 30.0607L8.53126 25.8373C8.53252 25.7028 8.50729 25.5695 8.457 25.4448C8.40671 25.3201 8.33235 25.2065 8.23817 25.1106C8.14399 25.0147 8.03184 24.9382 7.90811 24.8856C7.78438 24.833 7.6515 24.8053 7.51707 24.8041L7.50738 24.804C7.23753 24.804 6.97863 24.9106 6.78697 25.1006C6.5953 25.2905 6.48639 25.5485 6.4839 25.8183L6.45551 28.8848L3.40802 27.1253C3.2916 27.058 3.16308 27.0144 3.02979 26.9968C2.8965 26.9793 2.76105 26.9882 2.63119 27.0229C2.50133 27.0577 2.3796 27.1178 2.27294 27.1996C2.16628 27.2815 2.0768 27.3835 2.00959 27.5C1.94238 27.6164 1.89875 27.7449 1.88122 27.8782C1.86368 28.0115 1.87257 28.147 1.90737 28.2768C1.94218 28.4067 2.00222 28.5284 2.08407 28.6351C2.16592 28.7417 2.26798 28.8312 2.38441 28.8984Z" fill="#E7E7E7"/>
</svg>
