<svg width="72" height="72" viewBox="0 0 72 72" fill="none" xmlns="http://www.w3.org/2000/svg">
<g clip-path="url(#clip0_31_1432)">
<path d="M33.75 2.08971V6.30846C33.75 9.08918 37.9688 9.10057 37.9688 6.30846V2.08971C37.9688 -0.690871 33.75 -0.702261 33.75 2.08971ZM65.3906 29.8125H61.1719C58.3913 29.8125 58.3799 34.0313 61.1719 34.0313H65.3906C68.1712 34.0313 68.1826 29.8125 65.3906 29.8125ZM10.5469 29.8125H6.32812C3.54755 29.8125 3.53616 34.0313 6.32812 34.0313H10.5469C13.3275 34.0313 13.3388 29.8125 10.5469 29.8125ZM60.3789 15.0282L56.7266 17.1376C54.3354 18.5185 56.4033 22.1971 58.836 20.7918L62.4883 18.6825C64.9153 17.2807 62.7695 13.6319 60.3789 15.0282ZM48.7979 4.99221L46.6885 8.64452C45.8743 10.0541 46.8989 11.8086 48.5135 11.8086C49.2428 11.8086 49.9514 11.4316 50.3428 10.7539L52.4521 7.10158C53.8491 4.68297 50.1832 2.58007 48.7979 4.99221ZM25.0303 8.64452L22.9209 4.99221C21.5121 2.56516 17.8802 4.70111 19.2666 7.10158L21.376 10.7539C22.7734 13.1736 26.4336 11.0742 25.0303 8.64452ZM14.9923 17.1376L11.34 15.0282C8.94741 13.6338 6.80302 17.2804 9.23063 18.6825L12.8829 20.7918C15.3 22.188 17.3995 18.5278 14.9923 17.1376ZM35.8594 12.6366C25.397 12.6366 16.875 21.4593 16.875 31.9219C16.875 32.6389 16.9172 33.3561 17.0436 34.0313H54.6751C54.8016 33.3561 54.8438 32.6389 54.8438 31.9219C54.8438 21.4593 46.3217 12.6366 35.8594 12.6366ZM49.3822 38.25H46.1707L55.8131 72H68.6675L49.3822 38.25ZM22.6194 38.25L3.33295 72H16.1865L25.8303 38.25H22.6194ZM69.8906 38.25H54.2405L72 69.3296V40.3594C72 39.178 71.072 38.25 69.8906 38.25ZM30.219 38.25L20.5751 72H33.75V38.25H30.219ZM2.10938 38.25C0.927984 38.25 0 39.178 0 40.3594V69.3304L17.7608 38.25H2.10938ZM41.7818 38.25H37.9688V72H51.424L41.7818 38.25Z" fill="#90959B"/>
</g>
<defs>
<clipPath id="clip0_31_1432">
<rect width="72" height="72" fill="white"/>
</clipPath>
</defs>
</svg>
