<svg width="32" height="33" viewBox="0 0 32 33" fill="none" xmlns="http://www.w3.org/2000/svg">
<g clip-path="url(#clip0_31_1607)">
<path d="M16 32.5C24.8387 32.5 32 25.3387 32 16.5C32 7.66133 24.8387 0.5 16 0.5C7.16133 0.5 0 7.66133 0 16.5C0 25.3387 7.16133 32.5 16 32.5ZM7.32133 16.1533L22.748 10.2053C23.464 9.94667 24.0893 10.38 23.8573 11.4627L23.8587 11.4613L21.232 23.836C21.0373 24.7133 20.516 24.9267 19.7867 24.5133L15.7867 21.5653L13.8573 23.424C13.644 23.6373 13.464 23.8173 13.0507 23.8173L13.3347 19.7467L20.748 13.0493C21.0707 12.7653 20.676 12.6053 20.2507 12.888L11.0893 18.656L7.14 17.424C6.28267 17.152 6.264 16.5667 7.32133 16.1533Z" fill="white"/>
</g>
<defs>
<clipPath id="clip0_31_1607">
<rect width="32" height="32" fill="white" transform="translate(0 0.5)"/>
</clipPath>
</defs>
</svg>
