<svg width="56" height="56" viewBox="0 0 56 56" fill="none" xmlns="http://www.w3.org/2000/svg">
<path d="M27.9998 11.667C18.9932 11.667 11.6665 18.9937 11.6665 28.0003C11.6665 37.007 18.9932 44.3337 27.9998 44.3337C37.0065 44.3337 44.3332 37.007 44.3332 28.0003C44.3332 18.9937 37.0065 11.667 27.9998 11.667ZM27.9998 42.0003C20.28 42.0003 13.9998 35.7202 13.9998 28.0003C13.9998 20.2805 20.28 14.0003 27.9998 14.0003C35.7197 14.0003 41.9998 20.2805 41.9998 28.0003C41.9998 35.7202 35.7197 42.0003 27.9998 42.0003Z" fill="#E7E7E7"/>
<path d="M34.1749 22.5086L25.6664 31.0171L21.8234 27.1753C21.6046 26.9566 21.3079 26.8337 20.9985 26.8337C20.6891 26.8337 20.3924 26.9566 20.1737 27.1753C19.9549 27.3941 19.832 27.6908 19.832 28.0001C19.832 28.3095 19.9549 28.6062 20.1737 28.825L24.8415 33.4917C25.0603 33.7104 25.357 33.8332 25.6664 33.8332C25.9757 33.8332 26.2724 33.7104 26.4912 33.4917L35.8245 24.1583C36.0433 23.9396 36.1662 23.6429 36.1662 23.3335C36.1662 23.0241 36.0433 22.7274 35.8245 22.5086C35.6058 22.2899 35.3091 22.167 34.9997 22.167C34.6903 22.167 34.3936 22.2899 34.1749 22.5086Z" fill="#E7E7E7"/>
<path d="M51.1814 24.205C50.7007 23.8492 50.5514 23.1457 50.8699 22.6394C52.0097 20.8264 53.6652 17.0184 47.9649 15.6219C47.3839 15.4795 46.9534 14.8787 47.077 14.2954C47.6242 11.7357 46.8577 8.0187 41.7057 8.92404C41.1189 9.0267 40.4947 8.62304 40.3792 8.0362C39.993 6.07387 38.3294 2.09904 33.3629 5.13004C32.8519 5.44154 32.0375 5.27237 31.7972 4.81737C31.026 3.3602 27.6485 0.000202179 24.2022 4.81737C23.8545 5.30387 23.0554 5.4287 22.6365 5.12887C20.3755 3.50954 16.7227 3.1047 15.619 8.03387C15.4919 8.5997 14.8899 9.0337 14.2914 8.92054C12.315 8.54487 7.97735 8.66854 8.92352 14.2919C9.02269 14.881 8.62719 15.5309 8.03685 15.6195C5.73502 15.9637 2.18602 17.8129 5.12952 22.6359C5.44102 23.1457 5.35119 23.932 4.81802 24.2015C2.77519 25.234 0.43602 28.9067 4.81802 31.8C5.31619 32.129 5.44102 32.8372 5.12952 33.347C2.18602 38.17 5.73502 40.018 8.03685 40.3634C8.62835 40.452 9.02269 41.1019 8.92352 41.691C7.97735 47.3144 12.315 47.438 14.2937 47.0612C14.8922 46.9469 15.4942 47.382 15.6214 47.9479C16.725 52.8782 20.3779 52.4722 22.6389 50.8529C23.0577 50.553 23.8569 50.6779 24.2045 51.1644C27.6509 55.9827 31.0284 52.6227 31.7995 51.1644C32.0399 50.7105 32.8542 50.5402 33.3652 50.8517C38.3317 53.8827 39.9953 49.9079 40.3815 47.9455C40.497 47.3587 41.1212 46.955 41.708 47.0577C46.86 47.963 47.6254 44.246 47.0794 41.6864C46.9545 41.103 47.3862 40.5022 47.9672 40.3599C53.6687 38.9634 52.0132 35.1554 50.8722 33.3424C50.5537 32.836 50.6913 32.1174 51.1814 31.779C52.705 30.7255 55.9997 27.7704 51.1814 24.205ZM49.5154 35.8297C49.912 36.4679 49.667 37.3452 48.764 37.6427C47.1097 38.1887 44.0612 38.6379 44.8744 43.4667C45.0295 44.3849 44.5383 44.9344 43.486 44.8539C41.8853 44.7314 38.5895 44.0839 37.6644 48.7447C37.4812 49.6652 36.5794 49.8647 35.8514 49.4972C32.7107 47.9117 31.4542 47.7087 28.9832 50.8634C28.5107 51.4665 27.526 51.4409 27.0197 50.8634C25.692 49.3502 24.1882 47.0239 20.1504 49.4984C19.448 49.9289 18.6477 49.5964 18.3374 48.747C17.5312 46.535 17.2932 44.1772 12.5145 44.8574C11.7772 44.9624 10.9955 44.463 11.1274 43.4702C11.3782 41.5709 11.6664 38.5212 7.23535 37.6462C6.55169 37.5109 6.01735 36.5985 6.48402 35.8332C8.25385 32.9387 8.00885 31.128 5.09219 28.9522C4.76319 28.7072 4.22769 27.6537 5.11785 27.0167C7.95869 24.9844 8.25385 23.0442 6.48402 20.1485C6.01619 19.3832 6.55169 18.4697 7.23535 18.3355C11.6664 17.4605 11.3782 14.4109 11.1274 12.5115C10.9955 11.5187 11.7784 11.0194 12.5145 11.1244C17.2932 11.8034 17.5312 9.4467 18.3374 7.2347C18.6465 6.3842 19.448 6.05287 20.1504 6.48337C24.1894 8.95787 25.6932 6.63154 27.0197 5.11837C27.526 4.54087 28.5095 4.5152 28.9832 5.11837C31.4542 8.27304 32.7107 8.07004 35.8514 6.48454C36.5794 6.11704 37.4812 6.31654 37.6644 7.23704C38.5895 11.8979 41.8853 11.2504 43.486 11.1279C44.5395 11.0474 45.0295 11.5969 44.8744 12.515C44.0612 17.345 47.1097 17.793 48.764 18.339C49.667 18.6365 49.912 19.515 49.5154 20.152C46.9207 24.3194 49.6623 25.976 50.8815 27.0214C51.3575 27.4297 51.6317 28.3945 50.9912 28.8939C49.534 29.9019 46.9207 31.6624 49.5154 35.8297Z" fill="#E7E7E7"/>
</svg>
