<svg width="59" height="42" viewBox="0 0 59 42" fill="none" xmlns="http://www.w3.org/2000/svg">
<path d="M8.03111 10.6311V16.0478C9.04222 14.9644 10.4867 14.3 12.09 14.3H13.7656C14.1844 14.3 14.5311 14.6467 14.5311 15.0656V15.4411C14.5311 18.5178 12.0178 21.0311 8.94111 21.0311H8.03111V26.4478C9.05667 25.3644 10.4867 24.7 12.09 24.7H13.7656C14.1844 24.7 14.5311 25.0467 14.5311 25.4656V25.8411C14.5311 28.9178 12.0178 31.4311 8.94111 31.4311H8.03111V41.5856C7.45333 41.5856 6.96222 41.5422 6.5 41.4844V31.4022H5.59C2.51333 31.4022 0 28.8889 0 25.8122V25.4367C0 25.0178 0.346667 24.6711 0.765556 24.6711H2.44111C4.04444 24.6711 5.47445 25.35 6.5 26.4189V21.0022H5.59C2.51333 21.0022 0 18.4889 0 15.4122V15.0367C0 14.6178 0.346667 14.2711 0.765556 14.2711H2.44111C4.04444 14.2711 5.47445 14.95 6.5 16.0189V10.6022H5.59C2.51333 10.6022 0 8.08889 0 5.01222V4.63667C0 4.21778 0.346667 3.87111 0.765556 3.87111H2.44111C4.04444 3.87111 5.47445 4.55 6.5 5.61889V0.765556C6.5 0.346667 6.84667 0 7.26556 0C7.68444 0 8.03111 0.346667 8.03111 0.765556V5.64778C9.05667 4.56444 10.4867 3.9 12.09 3.9H13.7656C14.1844 3.9 14.5311 4.24667 14.5311 4.66556V5.04111C14.5311 8.11778 12.0178 10.6311 8.94111 10.6311H8.03111ZM30.1167 10.6311V16.0478C31.1278 14.9644 32.5722 14.3 34.1756 14.3H35.8511C36.27 14.3 36.6167 14.6467 36.6167 15.0656V15.4411C36.6167 18.5178 34.1033 21.0311 31.0267 21.0311H30.1167V26.4478C31.1278 25.3644 32.5722 24.7 34.1756 24.7H35.8511C36.27 24.7 36.6167 25.0467 36.6167 25.4656V25.8411C36.6167 28.9178 34.1033 31.4311 31.0267 31.4311H30.1167V41.5711C29.8711 41.5856 29.6256 41.5856 29.3511 41.5856C29.0767 41.5856 28.8311 41.5856 28.5856 41.5711V31.4022H27.6756C24.5989 31.4022 22.0856 28.8889 22.0856 25.8122V25.4367C22.0856 25.0178 22.4322 24.6711 22.8511 24.6711H24.5267C26.13 24.6711 27.56 25.35 28.5856 26.4189V21.0022H27.6756C24.5989 21.0022 22.0856 18.4889 22.0856 15.4122V15.0367C22.0856 14.6178 22.4322 14.2711 22.8511 14.2711H24.5267C26.13 14.2711 27.56 14.95 28.5856 16.0189V10.6022H27.6756C24.5989 10.6022 22.0856 8.08889 22.0856 5.01222V4.63667C22.0856 4.21778 22.4322 3.87111 22.8511 3.87111H24.5267C26.13 3.87111 27.56 4.55 28.5856 5.61889V0.78C28.5856 0.361111 28.9322 0.0144448 29.3511 0.0144448C29.77 0.0144448 30.1167 0.361111 30.1167 0.78V5.66222C31.1278 4.57889 32.5722 3.91444 34.1756 3.91444H35.8511C36.27 3.91444 36.6167 4.26111 36.6167 4.68V5.05556C36.6167 8.13222 34.1033 10.6456 31.0267 10.6456H30.1167V10.6311ZM52.1878 10.6311V16.0478C53.1989 14.9644 54.6433 14.3 56.2467 14.3H57.9222C58.3411 14.3 58.6878 14.6467 58.6878 15.0656V15.4411C58.6878 18.5178 56.1744 21.0311 53.0978 21.0311H52.1878V26.4478C53.1989 25.3644 54.6433 24.7 56.2467 24.7H57.9222C58.3411 24.7 58.6878 25.0467 58.6878 25.4656V25.8411C58.6878 28.9178 56.1744 31.4311 53.0978 31.4311H52.1878V41.4844C51.74 41.5422 51.2344 41.5856 50.6567 41.5856V31.4022H49.7467C46.67 31.4022 44.1567 28.8889 44.1567 25.8122V25.4367C44.1567 25.0178 44.5033 24.6711 44.9222 24.6711H46.5978C48.1867 24.6711 49.6311 25.35 50.6567 26.4189V21.0022H49.7467C46.67 21.0022 44.1567 18.4889 44.1567 15.4122V15.0367C44.1567 14.6178 44.5033 14.2711 44.9222 14.2711H46.5978C48.1867 14.2711 49.6311 14.95 50.6567 16.0189V10.6022H49.7467C46.67 10.6022 44.1567 8.08889 44.1567 5.01222V4.63667C44.1567 4.21778 44.5033 3.87111 44.9222 3.87111H46.5978C48.1867 3.87111 49.6311 4.55 50.6567 5.61889V0.78C50.6567 0.361111 51.0033 0.0144448 51.4222 0.0144448C51.8411 0.0144448 52.1878 0.361111 52.1878 0.78V5.66222C53.1989 4.57889 54.6433 3.91444 56.2467 3.91444H57.9222C58.3411 3.91444 58.6878 4.26111 58.6878 4.68V5.05556C58.6878 8.13222 56.1744 10.6456 53.0978 10.6456L52.1878 10.6311Z" fill="#90959B"/>
</svg>
