<svg width="56" height="56" viewBox="0 0 56 56" fill="none" xmlns="http://www.w3.org/2000/svg">
<path d="M28.0003 2.7998C14.0828 2.7998 2.80029 14.0823 2.80029 27.9998C2.80029 41.9173 14.0828 53.1998 28.0003 53.1998C41.9178 53.1998 53.2003 41.9173 53.2003 27.9998C53.1845 14.0888 41.9113 2.81555 28.0003 2.7998ZM50.6097 34.4628L49.0314 33.9495L48.5114 35.5455L50.0965 36.0604C49.4409 37.8487 48.5704 39.5507 47.5043 41.129L46.1603 40.1546L45.1724 41.5137L46.5063 42.4831C45.3324 43.9814 43.9827 45.3331 42.4861 46.5092L41.5167 45.1753L40.1576 46.1631L41.132 47.5071C39.5538 48.5721 37.8521 49.4415 36.0643 50.096L35.5494 48.5109L33.9534 49.0309L34.4666 50.6092C32.6344 51.1338 30.745 51.4326 28.8403 51.4988V49.8398H27.1603V51.4988C25.2567 51.4323 23.3684 51.1336 21.5373 50.6092L22.0506 49.0309L20.4546 48.5109L19.9363 50.096C18.148 49.4404 16.446 48.5699 14.8677 47.5038L15.8421 46.1598L14.483 45.1719L13.5137 46.5058C12.016 45.3308 10.6651 43.9799 9.49005 42.4822L10.824 41.5129L9.83613 40.1538L8.49213 41.1282C7.42912 39.5508 6.5615 37.8502 5.90829 36.0638L7.49337 35.5489L6.97341 33.9529L5.39505 34.4661C4.86903 32.6341 4.56889 30.7447 4.50129 28.8398H6.16029V27.1598H4.50129C4.56775 25.2563 4.86649 23.368 5.39085 21.5368L6.96921 22.0501L7.48917 20.4541L5.90829 19.9358C6.5639 18.1475 7.43436 16.4455 8.50053 14.8672L9.84453 15.8416L10.8324 14.4825L9.49089 13.514C10.666 12.0164 12.0169 10.6655 13.5145 9.49041L14.4839 10.8243L15.843 9.83648L14.8686 8.49249C16.4469 7.42894 18.1486 6.56102 19.9363 5.9078L20.4512 7.49288L22.0472 6.97292L21.534 5.39456C23.366 4.86855 25.2554 4.5684 27.1603 4.5008V6.1598H28.8403V4.5008C30.7438 4.56727 32.6321 4.866 34.4633 5.39036L33.95 6.96872L35.546 7.48868L36.0643 5.9078C37.8526 6.56341 39.5546 7.43387 41.1329 8.50004L40.1585 9.84404L41.5176 10.8319L42.4869 9.49796C43.9846 10.673 45.3355 12.0239 46.5105 13.5216L45.1766 14.4909L46.1645 15.85L47.5085 14.8756C48.5726 16.4515 49.4416 18.1506 50.0965 19.9358L48.5114 20.4507L49.0314 22.0467L50.6097 21.5335C51.1343 23.3657 51.4331 25.2551 51.4993 27.1598H49.8403V28.8398H51.4993C51.4328 30.7434 51.1341 32.6317 50.6097 34.4628Z" fill="#E7E7E7"/>
<path d="M28.0005 9.51953C17.7943 9.51953 9.52051 17.7933 9.52051 27.9995C9.52051 38.2057 17.7943 46.4795 28.0005 46.4795C38.2067 46.4795 46.4805 38.2057 46.4805 27.9995C46.469 17.7982 38.2019 9.53108 28.0005 9.51953ZM28.0005 44.7995C18.7221 44.7995 11.2005 37.278 11.2005 27.9995C11.2005 18.7211 18.7221 11.1995 28.0005 11.1995C37.2789 11.1995 44.8005 18.7211 44.8005 27.9995C44.7899 37.2734 37.2745 44.7889 28.0005 44.7995Z" fill="#E7E7E7"/>
<path d="M28.0002 13.7197C20.1136 13.7197 13.7202 20.1131 13.7202 27.9997C13.7202 35.8864 20.1136 42.2797 28.0002 42.2797C35.8869 42.2797 42.2802 35.8864 42.2802 27.9997C42.2714 20.1167 35.8832 13.7285 28.0002 13.7197ZM38.8018 21.546C39.7784 23.1672 40.3738 24.9891 40.5431 26.8741L35.2822 26.4491C35.1173 26.4353 34.9602 26.3731 34.8305 26.2703C34.7009 26.1675 34.6045 26.0287 34.5534 25.8713C34.5024 25.7139 34.4989 25.545 34.5435 25.3856C34.5882 25.2263 34.6788 25.0837 34.8042 24.9757L38.8018 21.546ZM30.805 15.7256L28.7755 20.5976C28.7117 20.7507 28.6041 20.8814 28.4661 20.9734C28.3281 21.0653 28.166 21.1144 28.0002 21.1144C27.8344 21.1144 27.6723 21.0653 27.5343 20.9734C27.3964 20.8814 27.2887 20.7507 27.2249 20.5976L25.1955 15.7256C27.04 15.2911 28.9604 15.2911 30.805 15.7256ZM17.1987 21.5458L21.1962 24.9757C21.3221 25.0837 21.4133 25.2264 21.4582 25.3861C21.5031 25.5457 21.4997 25.7151 21.4485 25.8729C21.3973 26.0306 21.3006 26.1697 21.1705 26.2725C21.0404 26.3753 20.8827 26.4374 20.7174 26.4508L15.4565 26.8758C15.6258 24.9901 16.2215 23.1675 17.1987 21.5458ZM24.2723 34.4459L23.0526 39.585C21.3148 38.8348 19.7673 37.7044 18.5242 36.2771H18.5217L23.0173 33.5345C23.1589 33.448 23.3229 33.4054 23.4887 33.4121C23.6544 33.4187 23.8145 33.4742 23.9487 33.5717C24.083 33.6692 24.1853 33.8042 24.2429 33.9598C24.3005 34.1154 24.3107 34.2845 24.2723 34.4459ZM32.9478 39.585H32.9453L31.7231 34.4459C31.6847 34.2845 31.6949 34.1154 31.7525 33.9598C31.8101 33.8042 31.9124 33.6692 32.0467 33.5717C32.1809 33.4742 32.341 33.4187 32.5067 33.4121C32.6725 33.4054 32.8365 33.448 32.9781 33.5345L37.4737 36.2771C36.2313 37.7041 34.6847 38.8345 32.9478 39.585ZM33.855 32.0998C32.6669 31.3748 31.1162 31.7502 30.3913 32.9383C30.0448 33.5061 29.9369 34.1878 30.091 34.8348L31.351 40.1335C29.1598 40.7551 26.8389 40.7551 24.6478 40.1335H24.6461L25.9061 34.8348C26.228 33.4808 25.3914 32.1221 24.0373 31.8002C23.3907 31.6465 22.7095 31.7544 22.1421 32.1006L17.4935 34.9381C16.2384 33.0399 15.5245 30.8354 15.4288 28.5617L20.8535 28.1232C22.2405 28.0095 23.2728 26.7928 23.1591 25.4057C23.1048 24.7443 22.7919 24.131 22.2882 23.6989L18.1554 20.1541C19.5756 18.3773 21.4488 17.0166 23.5776 16.2154L25.6709 21.2411C26.2059 22.5259 27.6811 23.1338 28.966 22.5987C29.58 22.3431 30.068 21.8551 30.3237 21.2411L32.4178 16.2154C34.5465 17.0168 36.4196 18.3775 37.84 20.1541L33.7122 23.6989C32.6559 24.6052 32.5343 26.1961 33.4406 27.2523C33.8732 27.7565 34.4873 28.0695 35.1495 28.1232L40.5742 28.5617C40.4784 30.8354 39.7646 33.0399 38.5095 34.9381L33.855 32.0998Z" fill="#E7E7E7"/>
<path d="M28.0001 24.6406C26.1445 24.6406 24.6401 26.145 24.6401 28.0006C24.6401 29.8563 26.1445 31.3606 28.0001 31.3606C29.8558 31.3606 31.3601 29.8563 31.3601 28.0006C31.3601 26.145 29.8558 24.6406 28.0001 24.6406ZM28.0001 29.6806C27.0723 29.6806 26.3201 28.9285 26.3201 28.0006C26.3201 27.0727 27.0723 26.3206 28.0001 26.3206C28.928 26.3206 29.6801 27.0727 29.6801 28.0006C29.6801 28.9285 28.928 29.6806 28.0001 29.6806Z" fill="#E7E7E7"/>
</svg>
