<svg width="56" height="56" viewBox="0 0 56 56" fill="none" xmlns="http://www.w3.org/2000/svg">
<g clip-path="url(#clip0_2002_490)">
<path d="M35.4665 36.5361C32.8894 36.5361 30.7998 38.6114 30.7998 41.1719C30.7998 43.732 32.8894 45.8077 35.4665 45.8077C38.0436 45.8077 40.1331 43.732 40.1331 41.1719C40.13 38.6128 38.0428 36.5393 35.4665 36.5361ZM35.4665 43.9534C33.9202 43.9534 32.6665 42.708 32.6665 41.1719C32.6665 39.6359 33.9202 38.3905 35.4665 38.3905C37.0127 38.3905 38.2665 39.6359 38.2665 41.1719C38.2665 42.708 37.0127 43.9534 35.4665 43.9534Z" fill="#E7E7E7"/>
<path d="M53.2 17.9935H52.6809C53.0168 17.4322 53.1964 16.792 53.2 16.1392C53.2 14.0911 51.5284 12.4306 49.4667 12.4306C49.0866 12.4297 48.7088 12.4881 48.3465 12.6031C47.8055 10.8511 46.1782 9.6532 44.3333 9.64913C44.0549 9.64913 43.7769 9.6781 43.5043 9.73515C42.7884 8.00578 41.0949 6.87401 39.2123 6.86722C37.3292 6.86043 35.6276 7.97999 34.8993 9.70481C33.9705 9.0615 32.8654 8.71836 31.7333 8.72198C30.2281 8.72152 28.7857 9.32273 27.732 10.3907C26.5499 9.6292 25.0843 9.44088 23.7458 9.8791C22.4077 10.3173 21.3418 11.3341 20.8468 12.6447C20.4467 12.5026 20.0248 12.4301 19.6 12.4306C17.5383 12.4306 15.8667 14.0911 15.8667 16.1392C15.8698 16.8074 16.0567 17.462 16.4072 18.0324C15.0873 18.2117 14.0797 19.2946 14.0036 20.6156C13.9271 21.9366 14.803 23.1268 16.0937 23.4554L21.1043 38.3908H19.348L13.0284 18.7749C14.3286 18.3398 15.1197 17.0333 14.8973 15.6887C14.6754 14.3437 13.5051 13.3573 12.1333 13.3577H2.8C1.25371 13.3577 0 14.6031 0 16.1392C0 17.6752 1.25371 18.9207 2.8 18.9207H7.06699L14.0356 41.9333C14.3815 43.1267 15.4789 43.9497 16.7289 43.9538H27.5556C28.7373 47.2876 31.9079 49.5176 35.4657 49.5176C39.0236 49.5176 42.1941 47.2876 43.3758 43.9538H52.2667C52.7821 43.9538 53.2 43.5386 53.2 43.0266V39.318C53.2 38.806 52.7821 38.3908 52.2667 38.3908H49.3901L53.9259 23.4496C55.2826 23.0906 56.16 21.7872 55.9758 20.4047C55.7921 19.022 54.6036 17.9903 53.2 17.9935ZM19.6 14.2849C20.0657 14.2872 20.5133 14.4633 20.8546 14.7779C21.1208 15.021 21.504 15.0894 21.8385 14.9535C22.173 14.8177 22.3986 14.5022 22.4177 14.1441C22.4675 13.0413 23.172 12.0738 24.2106 11.6814C25.2487 11.2893 26.4223 11.5469 27.1974 12.3378C27.3934 12.537 27.6691 12.6379 27.948 12.6126C28.2275 12.5877 28.4803 12.4396 28.6376 12.2088C29.3321 11.1874 30.4924 10.5754 31.7333 10.5763C32.9146 10.5758 34.0248 11.1372 34.7202 12.0856C34.9613 12.4048 35.3805 12.5352 35.762 12.4089C36.143 12.2825 36.4 11.9285 36.4 11.5292C36.4 11.5098 36.4 11.4867 36.4 11.4645C36.4128 10.0181 37.542 8.82429 38.9945 8.72152C40.4468 8.61876 41.7347 9.64234 41.9535 11.0725C41.9995 11.3649 42.1837 11.618 42.4485 11.7533C42.7136 11.8891 43.0282 11.8905 43.2947 11.7574C43.616 11.5931 43.9719 11.5061 44.3333 11.5034C44.9604 11.5052 45.5606 11.7579 45.9981 12.2042C46.4356 12.6506 46.6739 13.2532 46.6594 13.8761L46.6416 14.0187C46.6065 14.4008 46.8121 14.7652 47.1584 14.935C47.5052 15.1043 47.9213 15.0445 48.2047 14.7838C48.8177 14.2152 49.737 14.1228 50.452 14.557C51.1675 14.9916 51.5033 15.8463 51.2736 16.6472C51.0439 17.448 50.3052 17.9989 49.4667 17.9935H19.6C18.5691 17.9935 17.7333 17.1632 17.7333 16.1392C17.7333 15.1152 18.5691 14.2849 19.6 14.2849ZM16.7289 42.0994C16.3079 42.0972 15.9396 41.8165 15.8275 41.4132L8.65475 17.7264C8.53627 17.3344 8.17259 17.0663 7.76061 17.0663H2.8C2.28457 17.0663 1.86667 16.6512 1.86667 16.1392C1.86667 15.6272 2.28457 15.212 2.8 15.212H12.1333C12.6487 15.212 13.0667 15.6272 13.0667 16.1392C13.0667 16.6512 12.6487 17.0663 12.1333 17.0663H11.7974C11.5003 17.0663 11.221 17.2072 11.0455 17.4452C10.8701 17.6834 10.8185 17.9898 10.9079 18.2714L17.7771 39.596C17.8992 39.9822 18.2593 40.2447 18.6667 40.2452H27.1218C27.0485 40.8608 27.0485 41.4833 27.1218 42.0994H16.7289ZM35.4667 47.6624C31.8582 47.6624 28.9333 44.7564 28.9333 41.1724C28.9333 37.5877 31.8582 34.6822 35.4667 34.6822C39.0751 34.6822 42 37.5877 42 41.1724C41.9959 44.755 39.0733 47.6583 35.4667 47.6624ZM51.3333 42.0994H43.8115C43.8849 41.4833 43.8849 40.8608 43.8115 40.2452H51.3333V42.0994ZM43.3768 38.3908C42.1951 35.0571 39.0245 32.827 35.4667 32.827C31.9088 32.827 28.7383 35.0571 27.5566 38.3908H23.0768L20.5876 30.9736H24.2667C24.7821 30.9736 25.2 30.5585 25.2 30.0465C25.2 29.5344 24.7821 29.1193 24.2667 29.1193H19.9614L19.3398 27.265H31.7333C32.2487 27.265 32.6667 26.8499 32.6667 26.3379C32.6667 25.8258 32.2487 25.4107 31.7333 25.4107H18.7173L18.0947 23.5564H51.9435L51.378 25.4197C51.3621 25.4197 51.3493 25.4107 51.3333 25.4107H42.9333C42.4179 25.4107 42 25.8258 42 26.3379C42 26.8499 42.4179 27.265 42.9333 27.265H50.8183L50.2582 29.1193H38.2667C37.7513 29.1193 37.3333 29.5344 37.3333 30.0465C37.3333 30.5585 37.7513 30.9736 38.2667 30.9736H49.6918L47.4405 38.3908H43.3768ZM53.2 21.7021H16.8C16.2846 21.7021 15.8667 21.2869 15.8667 20.7749C15.8667 20.263 16.2846 19.8478 16.8 19.8478H53.2C53.7154 19.8478 54.1333 20.263 54.1333 20.7749C54.1333 21.2869 53.7154 21.7021 53.2 21.7021Z" fill="#E7E7E7"/>
<path d="M25.1999 16.1389H26.1333C26.6487 16.1389 27.0666 15.7238 27.0666 15.2118C27.0666 14.6998 26.6487 14.2847 26.1333 14.2847H25.1999C24.6845 14.2847 24.2666 14.6998 24.2666 15.2118C24.2666 15.7238 24.6845 16.1389 25.1999 16.1389Z" fill="#E7E7E7"/>
<path d="M31.7331 15.2122H32.6665C33.1819 15.2122 33.5998 14.7971 33.5998 14.2851C33.5998 13.773 33.1819 13.3579 32.6665 13.3579H31.7331C31.2178 13.3579 30.7998 13.773 30.7998 14.2851C30.7998 14.7971 31.2178 15.2122 31.7331 15.2122Z" fill="#E7E7E7"/>
<path d="M38.2663 14.285H39.1997C39.7151 14.285 40.133 13.8698 40.133 13.3578C40.133 12.8458 39.7151 12.4307 39.1997 12.4307H38.2663C37.751 12.4307 37.333 12.8458 37.333 13.3578C37.333 13.8698 37.751 14.285 38.2663 14.285Z" fill="#E7E7E7"/>
<path d="M42.9333 16.1389H43.8667C44.3821 16.1389 44.8 15.7238 44.8 15.2118C44.8 14.6998 44.3821 14.2847 43.8667 14.2847H42.9333C42.4179 14.2847 42 14.6998 42 15.2118C42 15.7238 42.4179 16.1389 42.9333 16.1389Z" fill="#E7E7E7"/>
</g>
<defs>
<clipPath id="clip0_2002_490">
<rect width="56" height="56" fill="white"/>
</clipPath>
</defs>
</svg>
