<svg width="56" height="56" viewBox="0 0 56 56" fill="none" xmlns="http://www.w3.org/2000/svg">
<g clip-path="url(#clip0_2002_154)">
<path d="M11.7394 55.7218C11.9842 55.9018 12.2802 55.9989 12.5849 56.0002C12.6823 55.996 12.7788 55.9816 12.8733 55.9574C12.9404 55.9794 13.0095 55.9934 13.0796 55.9989H16.813C18.8374 55.9989 20.7907 54.4091 22.6211 51.2705C23.629 49.5897 25.4585 48.566 27.4281 48.5817H55.0694C55.5847 48.5817 56.0025 48.1666 56.0025 47.6547C56.0025 47.1425 55.5847 46.7274 55.0694 46.7274H49.8574L51.9966 44.6014C52.3504 44.2377 52.3452 43.6592 51.9855 43.3019C51.6253 42.944 51.043 42.939 50.6768 43.2904L49.4689 44.4894V41.549L51.9949 39.0393C52.3486 38.6756 52.3435 38.0971 51.9833 37.7397C51.6236 37.382 51.0412 37.3769 50.6751 37.7283L49.4689 38.926V35.986L51.9949 33.4764C52.3486 33.1127 52.3435 32.5342 51.9833 32.1764C51.6236 31.8191 51.0412 31.8139 50.6751 32.1653L48.5359 34.2913L46.3982 32.1653C46.0287 31.8381 45.466 31.8542 45.1165 32.2027C44.7666 32.5512 44.7517 33.1101 45.0823 33.4764L47.6022 35.986V38.926L46.3982 37.7283C46.0287 37.401 45.466 37.4172 45.1165 37.7656C44.7666 38.1141 44.7517 38.6731 45.0823 39.0393L47.6022 41.549V44.4894L46.3982 43.2912C46.0287 42.964 45.466 42.9806 45.1165 43.3285C44.7666 43.6771 44.7517 44.236 45.0823 44.6023L47.2177 46.7282H38.6598L40.7991 44.6023C41.1336 44.2364 41.1204 43.6741 40.7687 43.3243C40.4175 42.9742 39.8515 42.9598 39.4823 43.2912L38.2766 44.4894V41.549L40.8021 39.0393C41.1559 38.6756 41.1508 38.0971 40.7906 37.7397C40.4308 37.382 39.8485 37.3769 39.4823 37.7283L38.2766 38.926V35.986L40.8021 33.4764C41.1559 33.1127 41.1508 32.5342 40.7906 32.1764C40.4308 31.8191 39.8485 31.8139 39.4823 32.1653L37.343 34.2913L35.2037 32.1653C34.8393 31.8029 34.248 31.8024 33.8831 32.1645C33.5182 32.5265 33.5178 33.114 33.8822 33.4764L36.4077 35.986V38.926L35.2021 37.7283C34.8359 37.3769 34.2535 37.382 33.8933 37.7397C33.5336 38.0971 33.5285 38.6756 33.8822 39.0393L36.4077 41.549V44.4894L35.2021 43.2912C34.8359 42.9398 34.2535 42.9449 33.8933 43.3027C33.5336 43.6601 33.5285 44.2385 33.8822 44.6023L36.0207 46.7282H27.4273C24.7916 46.7142 22.3468 48.0911 21.0057 50.3443C19.5756 52.7958 18.0862 54.1459 16.8121 54.1459H13.9465C13.1809 50.8571 12.7695 47.4964 12.7195 44.1209L54.7716 5.45795C56.0209 4.618 56.3759 2.94577 55.574 1.67631C55.1801 1.05113 54.552 0.606758 53.8282 0.441657C53.1044 0.276556 52.3439 0.403883 51.7146 0.795204C51.6659 0.826187 51.6198 0.861414 51.5766 0.900037L13.1224 36.2614C13.9188 29.8641 15.9756 23.3653 20.0926 18.5961C20.5583 18.0544 20.5746 17.2617 20.1314 16.7019C19.688 16.1416 18.9087 15.9701 18.2691 16.2922C15.2899 17.7828 8.29908 21.8748 6.20639 28.2462C4.87164 24.5902 3.19638 19.9831 2.35426 17.5939C2.15387 17.0481 1.59033 16.7222 1.01395 16.8185C0.437163 16.9145 0.0116171 17.4055 0.00136298 17.9861C-0.0443533 26.731 1.00371 47.9251 11.7394 55.7218ZM52.7695 2.33078C53.2134 2.10074 53.7607 2.2599 54.0102 2.69154C54.2593 3.12276 54.1218 3.67239 53.6983 3.93765C53.6492 3.96779 53.6035 4.00259 53.5607 4.04121L12.7229 41.591C12.7425 40.7497 12.7823 39.8997 12.8433 39.041L52.7695 2.33078ZM4.66827 29.4587C4.90625 30.1395 5.56764 30.5827 6.29226 30.5465C7.02159 30.5177 7.64709 30.0207 7.83594 29.3209C9.23605 24.2286 14.5131 20.5404 17.553 18.7892C10.0154 28.8867 9.92395 44.3676 11.8756 53.4579C3.98765 46.6654 2.2295 31.2771 1.92401 21.9265C2.79048 24.3249 3.81419 27.1333 4.66827 29.4587Z" fill="#E7E7E7"/>
</g>
<defs>
<clipPath id="clip0_2002_154">
<rect width="56" height="56" fill="white"/>
</clipPath>
</defs>
</svg>
