<svg width="56" height="56" viewBox="0 0 56 56" fill="none" xmlns="http://www.w3.org/2000/svg">
<g clip-path="url(#clip0_2002_387)">
<path d="M54.9062 53.4561H40.25C39.6461 53.4561 39.1562 53.9426 39.1562 54.5425C39.1562 55.1425 39.6461 55.629 40.25 55.629H54.9062C55.5101 55.629 55.9999 55.1425 55.9999 54.5425C55.9999 53.9426 55.5101 53.4561 54.9062 53.4561Z" fill="#E7E7E7"/>
<path d="M36.4742 53.4561H36.46C35.856 53.4561 35.3662 53.9426 35.3662 54.5425C35.3662 55.1425 35.856 55.629 36.46 55.629H36.4742C37.0781 55.629 37.5679 55.1425 37.5679 54.5425C37.5679 53.9426 37.0781 53.4561 36.4742 53.4561Z" fill="#E7E7E7"/>
<path d="M32.7461 53.4561H1.09375C0.489782 53.4561 0 53.9426 0 54.5425C0 55.1425 0.489782 55.629 1.09375 55.629H32.7461C33.3501 55.629 33.8399 55.1425 33.8399 54.5425C33.8399 53.9426 33.3501 53.4561 32.7461 53.4561Z" fill="#E7E7E7"/>
<path d="M11.6756 35.1953C11.4722 34.9932 11.19 34.877 10.9024 34.877C10.6136 34.877 10.3325 34.9932 10.1291 35.1953C9.92573 35.3974 9.80859 35.6778 9.80859 35.9634C9.80859 36.2492 9.92563 36.5295 10.1291 36.7315C10.3325 36.9337 10.6147 37.0499 10.9024 37.0499C11.19 37.0499 11.4722 36.9337 11.6756 36.7315C11.8789 36.5295 11.9961 36.2492 11.9961 35.9634C11.9961 35.6778 11.8791 35.3974 11.6756 35.1953Z" fill="#E7E7E7"/>
<path d="M28.8834 37.0552C26.5945 37.0552 24.7324 38.9049 24.7324 41.1787C24.7324 43.4524 26.5946 45.3022 28.8834 45.3022C31.1724 45.3022 33.0345 43.4524 33.0345 41.1787C33.0345 38.9049 31.1724 37.0552 28.8834 37.0552ZM28.8834 43.1292C27.8008 43.1292 26.9199 42.2541 26.9199 41.1787C26.9199 40.1033 27.8008 39.2282 28.8834 39.2282C29.9661 39.2282 30.847 40.1033 30.847 41.1787C30.847 42.2541 29.9661 43.1292 28.8834 43.1292Z" fill="#E7E7E7"/>
<path d="M54.9066 47.5887H54.6697C55.5011 46.5753 56.0009 45.2832 56.0009 43.8769C56.0009 43.8713 56.0004 43.8659 56.0004 43.8602V31.9613C56.0004 28.8131 53.7207 26.1852 50.7154 25.6173V22.0602C50.7154 21.0144 49.859 20.1636 48.8063 20.1636H48.5279V18.2478C48.5279 17.6479 48.0381 17.1613 47.4342 17.1613C46.8302 17.1613 46.3404 17.6479 46.3404 18.2478V20.1636H46.0622C45.0094 20.1636 44.1529 21.0144 44.1529 22.0602V25.5022H42.0219L36.7716 16.1908C36.5781 15.8477 36.2133 15.6353 35.8174 15.6353H23.3665C22.7625 15.6353 22.2727 16.1218 22.2727 16.7217V34.8767H14.9908C14.3868 34.8767 13.897 35.3632 13.897 35.9632C13.897 36.5631 14.3868 37.0497 14.9908 37.0497H21.4051C21.3606 37.3775 21.4681 37.7176 21.7155 37.9635L21.735 37.983C21.67 38.126 21.6095 38.2706 21.5534 38.417H21.5254C21.0151 38.417 20.5726 38.7676 20.4591 39.2617C20.3962 39.5354 20.3477 39.8126 20.3122 40.0919H2.19238V37.0497H6.45418C7.05814 37.0497 7.54793 36.5631 7.54793 35.9632C7.54793 35.3632 7.05814 34.8767 6.45418 34.8767H1.09863C0.494664 34.8767 0.00488281 35.3632 0.00488281 35.9632V41.1783C0.00488281 41.7783 0.494664 42.2648 1.09863 42.2648H6.00487L0.325242 47.9069C0.324476 47.9077 0.324039 47.9083 0.323273 47.9092C0.126617 48.1056 0.00488281 48.3763 0.00488281 48.6753C0.00488281 49.2752 0.494664 49.7617 1.09863 49.7617H54.9066C55.5106 49.7617 56.0004 49.2752 56.0004 48.6753C56.0004 48.0753 55.5106 47.5887 54.9066 47.5887ZM46.3405 22.3366H48.528V25.5022H46.3405V22.3366ZM28.7259 17.8082H35.1766L39.5148 25.5022H28.726L28.7259 17.8082ZM3.73928 47.5887L9.09864 42.2647H12.3503L6.99088 47.5887H3.73928ZM10.0844 47.5887L15.4438 42.2647H18.6954L13.3361 47.5887H10.0844ZM16.4296 47.5888L20.6054 43.4406C20.8024 43.7445 21.1449 43.9396 21.5253 43.9396H21.5533C21.6094 44.086 21.6699 44.2307 21.7349 44.3737L21.7153 44.3931C21.3545 44.7517 21.2912 45.3102 21.5626 45.7395C21.9959 46.4244 22.5301 47.049 23.1395 47.5888H16.4296ZM33.8482 45.2715C33.5933 45.5757 33.31 45.8572 33.0035 46.1105C32.6516 45.8221 32.1508 45.7789 31.7517 46.0136C31.2932 46.2826 30.8036 46.4846 30.2964 46.6143C29.8476 46.7292 29.5241 47.1105 29.4804 47.5615C29.0836 47.5975 28.6821 47.5975 28.2856 47.5615C28.2419 47.1106 27.9185 46.7292 27.4696 46.6143C26.9624 46.4846 26.4728 46.2825 26.0144 46.0136C25.6153 45.7791 25.1144 45.8219 24.7625 46.1105C24.456 45.8572 24.1727 45.5757 23.9177 45.2715C24.2083 44.9217 24.2514 44.4244 24.0154 44.0278C23.7446 43.5725 23.5412 43.0862 23.4107 42.5823C23.2951 42.1363 22.9112 41.8152 22.4572 41.7717C22.439 41.5748 22.4298 41.3769 22.4298 41.1787C22.4298 41.1784 22.4298 41.1789 22.4298 41.1787C22.4298 40.9805 22.439 40.7818 22.4572 40.5849C22.911 40.5414 23.2951 40.2203 23.4107 39.7744C23.5412 39.2704 23.7447 38.7843 24.0154 38.3288C24.2514 37.9321 24.2083 37.4348 23.9177 37.085C24.1727 36.7808 24.456 36.4994 24.7625 36.246C25.1144 36.5345 25.6152 36.5775 26.0144 36.343C26.4727 36.0739 26.9624 35.8719 27.4696 35.7422C27.9185 35.6274 28.2419 35.2461 28.2856 34.795C28.6821 34.759 29.0836 34.759 29.4804 34.795C29.5241 35.2459 29.8476 35.6274 30.2964 35.7422C30.8036 35.8719 31.2931 36.074 31.7517 36.343C32.1508 36.5774 32.6516 36.5346 33.0035 36.246C33.31 36.4994 33.5933 36.7808 33.8482 37.085C33.5578 37.4348 33.5146 37.9321 33.7506 38.3287C34.0213 38.7841 34.2248 39.2703 34.3553 39.7742C34.4709 40.2201 34.8548 40.5413 35.3087 40.5848C35.3269 40.7818 35.336 40.98 35.336 41.1783C35.336 41.3766 35.3269 41.5747 35.3087 41.7717C34.8549 41.8153 34.4709 42.1364 34.3553 42.5823C34.2248 43.0862 34.0212 43.5723 33.7506 44.0278C33.5146 44.4244 33.5577 44.9219 33.8482 45.2715ZM34.626 47.5886C35.2355 47.0488 35.7698 46.4243 36.203 45.7395C36.4744 45.3102 36.4111 44.7515 36.0503 44.393L36.0307 44.3736C36.0958 44.2306 36.1562 44.0859 36.2123 43.9395H36.2403C36.7507 43.9395 37.1933 43.5889 37.3068 43.0948C37.3696 42.8213 37.418 42.544 37.4536 42.2647H44.3806C44.2334 42.7774 44.1528 43.3178 44.1528 43.8768C44.1528 45.2831 44.6526 46.5752 45.484 47.5886H34.626ZM45.5417 40.0964C45.51 40.0937 45.4783 40.0917 45.446 40.0917H37.4538C37.4182 39.8124 37.3698 39.5351 37.307 39.2616C37.1935 38.7673 36.751 38.4168 36.2406 38.4168H36.2126C36.1565 38.2705 36.096 38.1257 36.0309 37.9827L36.0505 37.9633C36.4113 37.6047 36.4747 37.0462 36.2032 36.6169C35.5145 35.5281 34.571 34.5909 33.4749 33.9065C33.0429 33.637 32.4803 33.6996 32.1194 34.0581L32.0998 34.0776C31.9559 34.013 31.8101 33.9529 31.6627 33.8971V33.8693C31.6627 33.3623 31.3097 32.9227 30.8124 32.8101C29.5522 32.5245 28.2139 32.5245 26.9538 32.8101C26.4562 32.9227 26.1034 33.3623 26.1034 33.8693V33.8971C25.956 33.9529 25.8102 34.013 25.6663 34.0776L25.6467 34.0581C25.3314 33.7448 24.862 33.6575 24.4604 33.8204V17.8081H26.5383V26.5886C26.5383 27.1885 27.0282 27.6751 27.6321 27.6751H49.4982C51.8773 27.6751 53.8129 29.5978 53.8129 31.9612V39.3141C52.7929 38.4884 51.4923 37.992 50.0769 37.992C48.2584 37.992 46.6293 38.8111 45.5417 40.0964ZM50.0767 47.5888C48.0166 47.5887 46.3404 45.9236 46.3404 43.8769C46.3404 41.8303 48.0166 40.1652 50.0769 40.1652C52.1315 40.1652 53.8038 41.8212 53.8129 43.8602V43.8769C53.8129 43.8788 53.8131 43.8806 53.8131 43.8826C53.8101 45.9266 52.1352 47.5888 50.0767 47.5888Z" fill="#E7E7E7"/>
<path d="M46.8998 6.27022C45.8178 5.19544 44.3794 4.60352 42.8494 4.60352C41.3192 4.60352 39.8807 5.19544 38.7989 6.27022C38.3717 6.6946 38.3717 7.38247 38.7989 7.80687C39.2261 8.23104 39.9186 8.23104 40.3457 7.80687C41.0145 7.14246 41.9036 6.77663 42.8495 6.77663C43.7951 6.77663 44.6842 7.14246 45.3531 7.80687C45.5666 8.01906 45.8465 8.12509 46.1263 8.12509C46.4062 8.12509 46.6861 8.01895 46.8998 7.80687C47.3269 7.38247 47.3269 6.69471 46.8998 6.27022Z" fill="#E7E7E7"/>
<path d="M50.1775 3.01505C48.2201 1.07075 45.6178 0 42.85 0C40.0819 0 37.4797 1.07075 35.5225 3.01505C35.0954 3.43934 35.0954 4.12731 35.5225 4.5517C35.9497 4.97588 36.6421 4.97588 37.0693 4.5517C38.6133 3.01788 40.6663 2.17301 42.8501 2.17301C45.0338 2.17301 47.0867 3.01777 48.6308 4.5517C48.8444 4.76379 49.1243 4.86994 49.4041 4.86994C49.684 4.86994 49.9639 4.76379 50.1776 4.5517C50.6046 4.12742 50.6046 3.43944 50.1775 3.01505Z" fill="#E7E7E7"/>
<path d="M43.623 9.54693C43.4185 9.34486 43.1374 9.22852 42.8487 9.22852C42.5611 9.22852 42.28 9.34486 42.0754 9.54693C41.872 9.75012 41.7549 10.0293 41.7549 10.3151C41.7549 10.6008 41.8719 10.8811 42.0754 11.0832C42.2799 11.2864 42.561 11.4016 42.8487 11.4016C43.1374 11.4016 43.4185 11.2864 43.623 11.0832C43.8264 10.8811 43.9424 10.6008 43.9424 10.3151C43.9424 10.0293 43.8264 9.749 43.623 9.54693Z" fill="#E7E7E7"/>
</g>
<defs>
<clipPath id="clip0_2002_387">
<rect width="56" height="56" fill="white"/>
</clipPath>
</defs>
</svg>
