<svg width="56" height="56" viewBox="0 0 56 56" fill="none" xmlns="http://www.w3.org/2000/svg">
<path d="M55.785 20.0596C55.2344 15.922 53.0942 12.2447 49.7588 9.70524C46.4234 7.16553 42.2927 6.0687 38.1275 6.61532L37.7096 6.67008C31.0389 7.54178 17.2991 9.33854 15.7733 17.3875C10.5114 17.5724 5.45724 20.3707 2.65319 25.2335C-1.34326 32.1646 -0.0920158 37.1862 1.66138 40.1784C3.30375 42.9811 6.13054 45.3071 9.83584 46.9044C13.2463 48.3747 17.175 49.1507 21.205 49.1506C21.2434 49.1506 21.2823 49.1506 21.3209 49.1504C29.6802 49.1196 36.5695 45.8051 39.7498 40.284C40.2911 39.3443 40.6344 38.3856 40.7819 37.4102C45.8407 37.3244 50.0624 35.655 52.7196 32.6745C55.4587 29.6018 56.4901 25.3574 55.785 20.0596ZM51.0824 31.2344C48.845 33.7441 45.2041 35.1497 40.7887 35.2365C40.8018 33.9347 40.5054 32.7339 38.7848 30.5996C37.0386 28.4333 34.6732 26.0802 31.1504 23.7077C30.6505 23.3711 29.9705 23.5008 29.6317 23.9973C29.2929 24.4938 29.4235 25.1692 29.9232 25.5058C37.4864 30.5993 40.154 35.2084 37.8517 39.2051C35.064 44.0445 28.8813 46.9503 21.3128 46.9781C21.2769 46.9783 21.2422 46.9783 21.2064 46.9783C13.4085 46.9779 6.32195 43.8134 3.55127 39.0855C1.45236 35.5037 1.79798 31.0872 4.55074 26.3132C8.26281 19.8754 16.5552 17.6377 23.0361 21.3253C23.56 21.6233 24.2282 21.4432 24.5283 20.9227C24.8284 20.4021 24.647 19.7384 24.1229 19.4402C22.1786 18.334 20.0938 17.6881 17.9966 17.4656C18.6556 14.937 21.2189 12.8829 25.6332 11.3541C29.8752 9.88495 34.7615 9.2463 37.9949 8.82364L38.4142 8.76878C42.0004 8.29702 45.5567 9.24249 48.4287 11.4291C51.3006 13.6158 53.1432 16.7817 53.6174 20.3439C54.2354 24.99 53.3826 28.6542 51.0824 31.2344Z" fill="#E7E7E7"/>
<path d="M27.0286 21.1116C27.0271 21.1107 27.0256 21.1095 27.0242 21.1088C26.5089 20.8001 25.839 20.9631 25.5259 21.4743C25.2118 21.9868 25.3754 22.655 25.8913 22.9668C25.9063 22.9759 25.9215 22.9849 25.9366 22.9934C26.1067 23.0887 26.2913 23.1341 26.4736 23.1341C26.8549 23.1341 27.2254 22.9357 27.4264 22.5823C27.7206 22.0654 27.542 21.4112 27.0286 21.1116Z" fill="#E7E7E7"/>
<path d="M51.4488 20.6292C51.2228 18.931 50.6318 17.3485 49.6925 15.9253C48.5369 14.1752 46.916 12.7791 45.0046 11.8885C43.0404 10.9731 40.8605 10.6392 38.7002 10.9228C38.1016 11.0016 37.6804 11.5474 37.7596 12.142C37.8388 12.7367 38.3888 13.1549 38.9869 13.0765C42.4572 12.6206 45.9424 14.2064 47.8636 17.1165C48.6214 18.2644 49.0981 19.5421 49.2808 20.914C49.3535 21.4605 49.8231 21.858 50.3634 21.8579C50.4112 21.8579 50.4595 21.8548 50.5081 21.8484C51.1068 21.7698 51.5279 21.2239 51.4488 20.6292Z" fill="#E7E7E7"/>
<path d="M45.4827 24.4244C45.4033 23.8298 44.8538 23.4113 44.255 23.4906L44.2035 23.4975C43.6049 23.5765 43.1841 24.1225 43.2635 24.7172C43.3365 25.2633 43.8061 25.6605 44.346 25.6605C44.3939 25.6605 44.4424 25.6574 44.4913 25.6509L44.5429 25.6441C45.1413 25.5651 45.5621 25.019 45.4827 24.4244Z" fill="#E7E7E7"/>
<path d="M35.2122 18.9252C35.1327 18.3306 34.5831 17.9125 33.9845 17.9915L33.933 17.9983C33.3343 18.0774 32.9136 18.6235 32.993 19.218C33.066 19.764 33.5356 20.1612 34.0755 20.1612C34.1235 20.1612 34.1719 20.1583 34.2208 20.1517L34.2723 20.1449C34.8708 20.066 35.2916 19.5198 35.2122 18.9252Z" fill="#E7E7E7"/>
<path d="M21.9483 23.2101C20.0576 22.1344 17.9129 21.6236 15.7457 21.7301C13.6373 21.835 11.6047 22.5164 9.86741 23.701C8.45502 24.6643 7.30451 25.9065 6.44756 27.3926C6.14743 27.9132 6.32878 28.5769 6.8529 28.8751C7.02429 28.9725 7.21099 29.0189 7.39529 29.0189C7.77449 29.0189 8.14309 28.8227 8.34511 28.4725C9.03745 27.2717 9.96606 26.2688 11.1052 25.492C13.9937 23.5224 17.8233 23.3666 20.8614 25.0953C21.3856 25.3931 22.0537 25.2131 22.3536 24.6925C22.6538 24.172 22.4725 23.5083 21.9483 23.2101Z" fill="#E7E7E7"/>
<path d="M12.0586 32.7747L12.0135 32.7491C11.4898 32.4508 10.8215 32.6304 10.5211 33.1511C10.2207 33.6713 10.4017 34.3352 10.9256 34.6336L10.9707 34.6592C11.1422 34.7569 11.3291 34.8033 11.5135 34.8033C11.8925 34.8033 12.261 34.6073 12.463 34.2574C12.7634 33.737 12.5824 33.0731 12.0586 32.7747Z" fill="#E7E7E7"/>
<path d="M18.6152 40.1449L18.5702 40.1193C18.0464 39.8208 17.3782 40.0007 17.0777 40.5211C16.7773 41.0415 16.9584 41.7054 17.4823 42.0038L17.5274 42.0293C17.6987 42.127 17.8858 42.1735 18.0702 42.1735C18.4491 42.1735 18.8176 41.9775 19.0197 41.6275C19.3203 41.107 19.139 40.4433 18.6152 40.1449Z" fill="#E7E7E7"/>
<path d="M23.6611 31.5531L23.616 31.5274C23.092 31.229 22.4239 31.4089 22.1236 31.9294C21.8232 32.4497 22.0042 33.1135 22.5281 33.4119L22.5732 33.4376C22.7447 33.5352 22.9316 33.5817 23.116 33.5817C23.495 33.5817 23.8635 33.3857 24.0655 33.0358C24.366 32.5153 24.185 31.8515 23.6611 31.5531Z" fill="#E7E7E7"/>
<path d="M30.5634 38.4827L30.5183 38.4571C29.9947 38.1587 29.3263 38.3386 29.0259 38.859C28.7256 39.3793 28.9066 40.0431 29.4304 40.3415L29.4755 40.3672C29.6471 40.4648 29.8339 40.5113 30.0184 40.5113C30.3974 40.5113 30.7659 40.3153 30.9678 39.9654C31.2683 39.4449 31.0873 38.7811 30.5634 38.4827Z" fill="#E7E7E7"/>
</svg>
