<svg width="56" height="56" viewBox="0 0 56 56" fill="none" xmlns="http://www.w3.org/2000/svg">
<g clip-path="url(#clip0_2002_398)">
<path d="M24.2443 46.3573C24.0052 41.7212 21.4303 37.517 17.3955 35.1749L10.948 28.059C10.0808 27.083 8.73588 26.6725 7.46667 26.9964V14.8341C7.46667 12.7859 5.79519 11.1255 3.73333 11.1255C1.67148 11.1255 0 12.7859 0 14.8341V32.3823C0.000933333 33.801 0.364817 35.1962 1.05747 36.4367L9.33333 51.2332V54.7016C9.33333 55.2136 9.75128 55.6288 10.2667 55.6288H23.3333C23.8487 55.6288 24.2667 55.2136 24.2667 54.7016V46.3573H24.2443ZM22.4 53.7745H11.2V50.993C11.2 50.8353 11.1595 50.6803 11.0824 50.5425L2.68893 35.5347C2.15063 34.5699 1.86772 33.4853 1.86667 32.3823V14.8341C1.86667 13.8099 2.70235 12.9798 3.73333 12.9798C4.76431 12.9798 5.6 13.8099 5.6 14.8341V28.1416C4.43217 29.4898 4.459 31.4911 5.66253 32.8078L13.3093 41.1652L14.6907 39.9173L7.04387 31.5608C6.4344 30.8949 6.45901 29.8707 7.09987 29.2347C7.76183 28.5765 8.83563 28.576 9.49816 29.2337C9.51972 29.2551 9.54063 29.277 9.56107 29.2995L16.1065 36.5239C16.1899 36.6071 16.284 36.6789 16.3865 36.7372C20.1011 38.8514 22.3945 42.7768 22.4 47.0295V53.7745Z" fill="#E7E7E7"/>
<path d="M52.2667 11.1255C50.2049 11.1255 48.5334 12.7859 48.5334 14.8341V26.9964C48.2309 26.9205 47.9196 26.8837 47.6075 26.8871C46.6291 26.9087 45.7038 27.3328 45.0521 28.0581L38.6065 35.1721C34.5662 37.5103 31.989 41.7182 31.7558 46.3573H31.7334V54.7016C31.7334 55.2136 32.1513 55.6288 32.6667 55.6288H45.7334C46.2488 55.6288 46.6667 55.2136 46.6667 54.7016V51.2313L54.8399 36.5156C55.5991 35.2332 55.9996 33.7727 56.0001 32.285V14.8341C56.0001 12.7859 54.3286 11.1255 52.2667 11.1255ZM54.1334 32.285C54.132 33.4505 53.8162 34.5945 53.2187 35.5977L44.9121 50.5452C44.8373 50.6828 44.7988 50.8369 44.8001 50.993V53.7745H33.6001V47.0295C33.6115 42.7602 35.9244 38.824 39.6611 36.7149C39.748 36.6659 39.8266 36.6033 39.8935 36.5295L46.439 29.2977C47.0676 28.6064 48.1413 28.5522 48.8372 29.1767C49.5331 29.8011 49.5876 30.8677 48.959 31.559L41.3094 39.9155L42.6907 41.1652L50.3375 32.8097C51.5422 31.4926 51.569 29.4899 50.4001 28.1416V14.8341C50.4001 13.8099 51.2358 12.9798 52.2667 12.9798C53.2977 12.9798 54.1334 13.8099 54.1334 14.8341V32.285Z" fill="#E7E7E7"/>
<path d="M39.1995 23.1788H37.3329C33.9847 23.1824 30.8491 24.8091 28.9329 27.5364V21.3245H29.8662C35.5335 21.3179 40.1263 16.7556 40.1329 11.1258C40.1329 10.6138 39.7149 10.1987 39.1995 10.1987H37.3329C33.9847 10.2023 30.8491 11.829 28.9329 14.5563V8.34437H29.8662C33.988 8.33973 37.3282 5.02169 37.3329 0.927153C37.3329 0.415133 36.9149 0 36.3995 0H34.5329C31.8147 0.00162252 29.3124 1.47047 27.9995 3.8347C26.6867 1.47047 24.1843 0.00162252 21.4662 0H19.5995C19.0841 0 18.6662 0.415133 18.6662 0.927153C18.6709 5.02169 22.011 8.33973 26.1329 8.34437H27.0662V14.5563C25.15 11.829 22.0143 10.2023 18.6662 10.1987H16.7995C16.2841 10.1987 15.8662 10.6138 15.8662 11.1258C15.8728 16.7556 20.4656 21.3179 26.1329 21.3245H27.0662V27.5364C25.15 24.8091 22.0143 23.1824 18.6662 23.1788H16.7995C16.2841 23.1788 15.8662 23.5939 15.8662 24.1059C15.8728 29.7357 20.4656 34.298 26.1329 34.3047H27.0662V41.7219H28.9329V34.3047H29.8662C35.5335 34.298 40.1263 29.7357 40.1329 24.1059C40.1329 23.5939 39.7149 23.1788 39.1995 23.1788ZM37.3329 12.053H38.2149C37.7342 16.274 34.1424 19.4651 29.8662 19.4702H28.9842C29.4649 15.2493 33.0567 12.0581 37.3329 12.053ZM34.5329 1.85431H35.3887C34.9296 4.52914 32.5977 6.4867 29.8662 6.49006H29.0103C29.4695 3.81523 31.8014 1.85767 34.5329 1.85431ZM26.1329 6.49006C23.4014 6.4867 21.0695 4.52914 20.6103 1.85431H21.4662C24.1977 1.85767 26.5296 3.81523 26.9887 6.49006H26.1329ZM26.1329 19.4702C21.8567 19.4651 18.2649 16.274 17.7842 12.053H18.6662C22.9424 12.0581 26.5342 15.2493 27.0149 19.4702H26.1329ZM26.1329 32.4503C21.8567 32.4452 18.2649 29.2541 17.7842 25.0331H18.6662C22.9424 25.0383 26.5342 28.2293 27.0149 32.4503H26.1329ZM29.8662 32.4503H28.9842C29.4649 28.2293 33.0567 25.0383 37.3329 25.0331H38.2149C37.7342 29.2541 34.1424 32.4452 29.8662 32.4503Z" fill="#E7E7E7"/>
</g>
<defs>
<clipPath id="clip0_2002_398">
<rect width="56" height="56" fill="white"/>
</clipPath>
</defs>
</svg>
