<svg width="56" height="56" viewBox="0 0 56 56" fill="none" xmlns="http://www.w3.org/2000/svg">
<g clip-path="url(#clip0_2002_408)">
<path d="M7.07135 40.5464C5.26025 40.5464 3.78711 42.0102 3.78711 43.8093C3.78711 45.6084 5.26025 47.0718 7.07135 47.0718C8.88245 47.0718 10.356 45.6084 10.356 43.8093C10.356 42.0102 8.88245 40.5464 7.07135 40.5464ZM7.07135 45.4425C6.16517 45.4425 5.42774 44.7099 5.42774 43.8093C5.42774 42.9091 6.16517 42.1766 7.07135 42.1766C7.97797 42.1766 8.7154 42.9091 8.7154 43.8093C8.7154 44.7095 7.97797 45.4425 7.07135 45.4425Z" fill="#E7E7E7"/>
<path d="M37.1699 43.8093C37.1699 45.6084 38.6435 47.0718 40.4541 47.0718C42.2656 47.0718 43.7388 45.6084 43.7388 43.8093C43.7388 42.0102 42.2652 40.5464 40.4541 40.5464C38.643 40.5464 37.1699 42.0102 37.1699 43.8093ZM42.0982 43.8093C42.0982 44.7095 41.3608 45.4421 40.4541 45.4421C39.548 45.4421 38.8105 44.7095 38.8105 43.8093C38.8105 42.9087 39.548 42.1762 40.4541 42.1762C41.3608 42.1762 42.0982 42.9087 42.0982 43.8093Z" fill="#E7E7E7"/>
<path d="M54.2936 4.01501C52.8675 3.40937 51.211 4.06891 50.6013 5.48519L48.2485 10.9504C48.0703 11.3642 48.2634 11.843 48.68 12.0199C49.097 12.1969 49.5789 12.0051 49.7571 11.5913L52.11 6.12605C52.3637 5.53569 53.0541 5.2611 53.648 5.5132C54.2423 5.76573 54.5192 6.45158 54.2649 7.04152L41.4313 36.8526C41.2609 36.8293 41.0891 36.8118 40.9152 36.8003L40.1898 33.8137L48.4792 14.5588C48.6574 14.145 48.4643 13.6662 48.0476 13.4893C47.6307 13.3122 47.1492 13.5041 46.971 13.918L39.5464 31.1636L39.3195 30.2291C38.5128 26.9072 35.2342 24.8017 31.8537 25.4361L30.1208 25.7609L29.2741 22.1936C28.7943 20.1734 26.9998 18.7622 24.9106 18.7622H21.6277C19.5379 18.7622 17.7435 20.1734 17.2638 22.1936L16.4503 25.6216C16.346 26.0596 16.6194 26.4985 17.0604 26.6016C17.5013 26.7052 17.9426 26.4335 18.0468 25.9956L18.8608 22.5679C19.165 21.2866 20.3027 20.3919 21.6277 20.3919H24.9106C26.2354 20.3919 27.3733 21.2866 27.6774 22.5679L28.5072 26.0634L10.5739 29.427C8.44537 29.8264 6.82056 31.527 6.53089 33.6588C6.40185 34.6074 6.25232 35.7096 6.09765 36.8526C2.6579 37.3258 0 40.2645 0 43.8096C0 47.6833 3.17273 50.8349 7.0722 50.8349C7.52551 50.8349 7.89252 50.4704 7.89252 50.0201C7.89252 49.5702 7.52551 49.2052 7.0722 49.2052C4.07721 49.2052 1.64062 46.7847 1.64062 43.8096C1.64062 40.8345 4.07721 38.414 7.0722 38.414C10.0672 38.414 12.5038 40.8345 12.5038 43.8096C12.5038 45.6761 11.5532 47.3844 9.96081 48.3801C9.57712 48.6195 9.46223 49.1228 9.70359 49.5035C9.94457 49.8843 10.4509 49.9992 10.8345 49.7595C12.1146 48.959 13.0754 47.8046 13.6236 46.4665H33.9105C34.968 49.0265 37.5028 50.8349 40.4559 50.8349C44.3558 50.8349 47.5286 47.6833 47.5286 43.8096C47.5286 40.84 45.6628 38.2964 43.0356 37.2702L55.7736 7.6824C56.3832 6.26611 55.7192 4.62065 54.2936 4.01501ZM7.7575 36.8178C7.90021 35.7656 8.03735 34.7555 8.15656 33.8769C8.3518 32.442 9.44552 31.2974 10.8786 31.0287L28.302 27.7607L26.8964 32.1322C26.3773 33.7466 25.1627 35.0132 23.5648 35.6065L12.7491 39.6244C11.5873 38.0736 9.79804 37.0134 7.7575 36.8178ZM14.0693 44.8371C14.3072 43.2634 13.9423 41.9023 13.5783 41.0564L24.1398 37.133C26.2115 36.3632 27.786 34.7211 28.4593 32.6279L30.1354 27.417L32.158 27.0375C34.6778 26.5647 37.1234 28.1342 37.7246 30.6111L39.249 36.8886C35.9224 37.4594 32.9261 40.3761 33.4602 44.8371H14.0693ZM45.8879 43.8096C45.8879 46.7847 43.4513 49.2052 40.4559 49.2052C37.4609 49.2052 35.0244 46.7847 35.0244 43.8096C35.0244 40.8345 37.4609 38.414 40.4559 38.414C43.4513 38.414 45.8879 40.8345 45.8879 43.8096Z" fill="#E7E7E7"/>
</g>
<defs>
<clipPath id="clip0_2002_408">
<rect width="56" height="56" fill="white"/>
</clipPath>
</defs>
</svg>
