<svg width="164" height="164" viewBox="0 0 164 164" fill="none" xmlns="http://www.w3.org/2000/svg">
<rect x="5" y="5" width="154" height="154" rx="77" fill="#14191F"/>
<rect x="5" y="5" width="154" height="154" rx="77" stroke="#E7E7E7" stroke-width="10" stroke-dasharray="5 5"/>
<g clip-path="url(#clip0_2007_852)">
<path d="M114.273 83.0909C114.273 83.697 113.788 84.1818 113.303 84.3031L107.243 85.394C106.879 86.6061 106.516 87.697 106.031 88.9091C105.909 89.2728 105.546 89.5152 105.182 89.6364C104.819 89.7576 104.334 89.6364 104.091 89.2728L98.6368 83.8182C98.2731 83.5758 98.1519 83.0909 98.2731 82.7273C101.425 70 91.7277 57.8788 78.8792 57.8788C61.3034 57.8788 52.2125 79.3334 64.8186 91.9394C69.7883 96.9091 76.9398 98.8485 83.7277 97.1515C84.0913 97.0303 84.5761 97.1515 84.9398 97.5152L90.3943 102.97C90.6368 103.212 90.758 103.697 90.758 104.061C90.6368 104.424 90.3943 104.788 90.0307 104.909C88.9398 105.394 87.8489 105.758 86.758 106L85.6671 112.061C85.5458 112.667 85.061 113.03 84.4549 113.03H73.7883C73.1822 113.03 72.6974 112.667 72.5761 112.061L71.4852 106C68.9398 105.394 66.6368 104.424 64.4549 103.091L59.364 106.606C58.8792 106.97 58.2731 106.849 57.7883 106.485L50.2731 99.2121C49.9095 98.8485 49.7883 98.1212 50.1519 97.6364L53.6671 92.5455C52.4549 90.4849 51.364 88.0606 50.758 85.6364L44.5761 84.5455C43.9701 84.4243 43.6064 83.9394 43.6064 83.3334V72.6667C43.6064 72.0606 44.0913 71.5758 44.5761 71.4546L50.6367 70.3637C51.2428 67.9394 52.2125 65.5152 53.5458 63.3334L50.0307 58.2424C49.6671 57.7576 49.7883 57.1515 50.1519 56.6667L57.6671 49.2727C58.0307 48.9091 58.758 48.7879 59.2428 49.1515L64.3337 52.6667C66.5155 51.4546 68.8186 50.3637 71.2428 49.7576L72.3337 43.697C72.4549 43.0909 72.9398 42.7273 73.5458 42.7273H84.2125C84.8186 42.7273 85.3034 43.2121 85.4246 43.697L86.5155 49.7576C88.9398 50.3637 91.364 51.3334 93.5458 52.6667L98.6368 49.1515C99.1216 48.7879 99.7277 48.9091 100.213 49.2727L107.728 56.7879C108.213 57.1515 108.213 57.8788 107.849 58.3637L104.334 63.4546C105.546 65.6364 106.637 67.9394 107.243 70.4849L113.303 71.5758C113.909 71.697 114.273 72.1818 114.273 72.7879V83.0909Z" fill="#F5F5F5"/>
<path d="M111.849 100.788C106.637 101.394 102.273 105.515 101.667 110.97L84.9399 94.0001C83.6066 92.6668 81.7884 91.9395 80.0914 92.0607C70.0308 92.9092 62.152 82.9698 65.6672 73.0304C66.0308 72.1819 67.0005 71.9395 67.6066 72.5456L75.0005 79.9395C75.6066 80.5456 76.4551 80.5456 77.0611 79.9395L81.1823 75.8183C81.7884 75.2122 81.7884 74.3638 81.1823 73.7577L73.7884 66.3638C73.1823 65.7577 73.4248 64.6668 74.2733 64.4244C83.7278 61.0304 93.9096 68.6668 93.0611 78.9698C92.9399 80.788 93.6672 82.485 95.0005 83.8183L111.849 100.788Z" fill="#F5F5F5"/>
<path d="M122.394 112.182C122.394 107.091 118.273 103.091 113.182 102.97C108.091 102.97 104.091 107.091 103.97 112.182C103.97 117.273 108.091 121.394 113.182 121.394C118.273 121.394 122.394 117.273 122.394 112.182ZM113.303 115.576C111.485 115.576 109.909 114.121 109.909 112.182C109.909 110.364 111.364 108.788 113.303 108.788C115.121 108.788 116.576 110.242 116.697 112.182C116.576 114.121 115.121 115.576 113.303 115.576Z" fill="#F5F5F5"/>
</g>
<defs>
<clipPath id="clip0_2007_852">
<rect width="80" height="80" fill="white" transform="translate(43 42)"/>
</clipPath>
</defs>
</svg>
