<svg width="100" height="80" viewBox="0 0 100 80" fill="none" xmlns="http://www.w3.org/2000/svg">
<path d="M89.7394 72.9258C90.5515 59.9203 95.4823 49.6459 95.4823 49.6459C85.7196 55.1306 83.9395 68.5973 83.6243 74.0924C84.0794 54.5539 89.9404 40.5132 89.9404 40.5132C78.4429 50.292 77.5256 69.4413 77.509 74.9626C77.3316 70.1815 75.937 55.4477 65.6096 49.6459C65.6096 49.6459 70.8927 60.6541 71.4224 74.3049C71.1288 70.6318 69.4545 63.3624 61 60.8004C61 60.8004 65.3895 66.0291 65.3895 76.4864H95.6105C95.6105 66.0291 100 60.8004 100 60.8004C92.5056 63.0714 90.3395 69.0407 89.7394 72.9258Z" fill="#C9C9C9"/>
<path d="M21.0473 69.592C19.3816 42.914 9.26703 21.8382 9.26703 21.8382C29.2931 33.0889 32.9445 60.7129 33.5913 71.985C32.6577 31.9061 20.635 3.10449 20.635 3.10449C44.2197 23.1636 46.1014 62.4442 46.1355 73.77C46.4992 63.9626 49.36 33.7395 70.5444 21.8382C70.5444 21.8382 59.7072 44.4192 58.6206 72.4209C59.223 64.8862 62.6573 49.9747 80 44.7193C80 44.7193 70.9959 55.4448 70.9959 76.8957H9.00406C9.00406 55.4448 0 44.7193 0 44.7193C15.3731 49.3778 19.8164 61.6225 21.0473 69.592Z" fill="#54595F"/>
</svg>
