<svg width="143" height="80" viewBox="0 0 143 80" fill="none" xmlns="http://www.w3.org/2000/svg">
<path d="M80.9527 69.592C82.6184 42.914 92.733 21.8382 92.733 21.8382C72.7069 33.0889 69.0555 60.7129 68.4087 71.985C69.3423 31.9061 81.365 3.10449 81.365 3.10449C57.7803 23.1636 55.8986 62.4442 55.8645 73.77C55.5008 63.9626 52.64 33.7395 31.4556 21.8382C31.4556 21.8382 42.2928 44.4192 43.3794 72.4209C42.777 64.8862 39.3427 49.9747 22 44.7193C22 44.7193 31.0041 55.4448 31.0041 76.8957H92.9959C92.9959 55.4448 102 44.7193 102 44.7193C86.6269 49.3778 82.1836 61.6225 80.9527 69.592Z" fill="#54595F"/>
<path d="M114.261 72.9258C113.449 59.9203 108.518 49.6459 108.518 49.6459C118.28 55.1306 120.06 68.5973 120.376 74.0924C119.921 54.5539 114.06 40.5132 114.06 40.5132C125.557 50.292 126.474 69.4413 126.491 74.9626C126.668 70.1815 128.063 55.4477 138.39 49.6459C138.39 49.6459 133.107 60.6541 132.578 74.3049C132.871 70.6318 134.545 63.3624 143 60.8004C143 60.8004 138.611 66.0291 138.611 76.4864H108.389C108.389 66.0291 104 60.8004 104 60.8004C111.494 63.0714 113.66 69.0407 114.261 72.9258Z" fill="#C9C9C9"/>
<path d="M10.2606 72.9258C9.44851 59.9203 4.51768 49.6459 4.51768 49.6459C14.2804 55.1306 16.0605 68.5973 16.3757 74.0924C15.9206 54.5539 10.0596 40.5132 10.0596 40.5132C21.5571 50.292 22.4744 69.4413 22.491 74.9626C22.6684 70.1815 24.063 55.4477 34.3904 49.6459C34.3904 49.6459 29.1073 60.6541 28.5776 74.3049C28.8712 70.6318 30.5455 63.3624 39 60.8004C39 60.8004 34.6105 66.0291 34.6105 76.4864H4.38948C4.38948 66.0291 0 60.8004 0 60.8004C7.4944 63.0714 9.6605 69.0407 10.2606 72.9258Z" fill="#C9C9C9"/>
</svg>
