<svg width="164" height="164" viewBox="0 0 164 164" fill="none" xmlns="http://www.w3.org/2000/svg">
<rect x="5" y="5" width="154" height="154" rx="77" fill="#14191F"/>
<rect x="5" y="5" width="154" height="154" rx="77" stroke="#E7E7E7" stroke-width="10" stroke-dasharray="5 5"/>
<path d="M106.936 58.0667C93.7177 44.8502 72.2867 44.8488 59.0672 58.0667C45.8493 71.2847 45.8507 92.7157 59.0672 105.935C72.2852 119.15 93.7162 119.152 106.936 105.935C120.152 92.7157 120.151 71.2862 106.936 58.0667ZM87.4148 96.717C87.4148 97.8879 86.9497 99.0108 86.1217 99.8388C85.2938 100.667 84.1709 101.132 83 101.132C81.8291 101.132 80.7062 100.667 79.8782 99.8388C79.0503 99.0108 78.5852 97.8879 78.5852 96.717V79.0577C78.5852 77.8869 79.0503 76.7639 79.8782 75.936C80.7062 75.1081 81.8291 74.6429 83 74.6429C84.1709 74.6429 85.2938 75.1081 86.1217 75.936C86.9497 76.7639 87.4148 77.8869 87.4148 79.0577V96.717ZM82.922 71.5113C80.379 71.5113 78.6837 69.7101 78.7367 67.4865C78.6837 65.1555 80.379 63.4087 82.9735 63.4087C85.5694 63.4087 87.2117 65.1569 87.2662 67.4865C87.2647 69.7101 85.5709 71.5113 82.922 71.5113Z" fill="#F5F5F5"/>
</svg>
