<svg width="180" height="76" viewBox="0 0 180 76" fill="none" xmlns="http://www.w3.org/2000/svg">
<g clip-path="url(#clip0_6_727)">
<path fill-rule="evenodd" clip-rule="evenodd" d="M17.9681 75.8086L22.4674 65.8719C22.7142 65.3181 22.54 64.6771 22.0465 64.3276L0 48.7372L7.24241 45.9689C7.8665 45.7359 8.20033 45.0512 7.99711 44.4245L3.59943 29.9709L17.4021 33.1763C17.9826 33.3075 18.5632 33.0306 18.8245 32.477L21.945 25.7747L28.7519 33.1618L42.1337 55.0025L38.6647 60.6412L17.9681 75.8086ZM31.9595 31.7776L27.5618 12.2098L37.4458 17.5425C37.7651 17.7174 38.0844 17.7465 38.4181 17.6445C38.7518 17.5425 38.9988 17.3239 39.1583 17.018L47.9682 0L56.7925 17.018C56.9524 17.3239 57.199 17.5425 57.533 17.6445C57.8668 17.7465 58.1861 17.7174 58.4906 17.5425L68.3892 12.2098L51.1614 40.2721L46.6909 32.9724C46.2265 32.2147 45.4572 31.7776 44.5576 31.7776H31.9595Z" fill="#E42D24"/>
<path d="M71.5956 33.5407L54.861 60.5974L40.928 60.6412L44.295 55.1631L31.0439 33.5407H43.584C44.4837 33.5407 45.253 33.9778 45.7174 34.7501L51.2618 43.7982L56.8205 34.7355C57.2993 33.9778 58.0686 33.5407 58.9686 33.5407H71.5956ZM125.921 60.5974H113.439L103.903 45.0221V56.9989L89.5928 33.5407H102.481C103.396 33.5407 104.165 33.9778 104.644 34.7501L113.12 48.7812V36.0613C113.12 34.6772 114.237 33.5407 115.63 33.5407H125.921V60.5974ZM141.857 36.0613V60.5974H128.112V33.5407H139.346C140.725 33.5407 141.857 34.6772 141.857 36.0613ZM179.985 41.9477H167.068C166.835 37.8243 153.12 39.5874 157.547 41.9186C162.626 44.6141 180.304 42.5015 179.985 52.074C179.854 56.1683 176.182 60.5974 162.205 60.5974C151.189 60.5974 143.802 57.7417 143.599 51.2727H155.645C156.211 57.2466 172.656 54.012 167.373 51.4183C162.017 48.7812 143.599 49.8739 143.599 41.6562C143.599 31.1221 179.622 30.1605 179.985 41.9477ZM87.5465 33.5407L104.078 60.5974H90.1443L87.8223 56.7655H73.4244L71.1168 60.5831L57.1978 60.5974L73.7873 33.5407H87.5465ZM84.3098 50.9522L80.6522 44.993L76.9366 50.9522H84.3098Z" fill="#14191F"/>
<path d="M92.4964 31.8361C92.1627 31.8361 91.8722 31.8215 91.6112 31.8069C91.3498 31.7924 91.1029 31.7487 90.8419 31.7049C90.5805 31.6467 90.3627 31.5738 90.1888 31.501C90.0146 31.4136 89.8695 31.297 89.7676 31.1513C89.6517 31.0056 89.5938 30.8453 89.5938 30.6559V28.9366C89.5938 28.7326 89.6661 28.5432 89.7824 28.3829C89.8983 28.2227 90.0582 28.0915 90.2612 27.9895C90.4498 27.9021 90.682 27.8293 90.9434 27.7564C91.2191 27.6981 91.4805 27.6544 91.7271 27.6399C91.9449 27.6107 92.2063 27.6107 92.5108 27.6107C93.3381 27.6107 94.1218 27.6544 94.8767 27.7419V28.4849C94.1945 28.3684 93.3961 28.3101 92.5108 28.3101C91.5093 28.3101 91.0013 28.5141 91.0013 28.9366V30.583C91.0013 30.787 91.132 30.9327 91.4078 31.0056C91.6835 31.093 92.09 31.1367 92.6415 31.1367C92.9317 31.1367 93.251 31.1076 93.5851 31.0493V30.0876H92.6271V29.4465H94.9203V31.5738C94.6154 31.6467 94.2381 31.7195 93.7737 31.7632C93.3093 31.8069 92.8881 31.8361 92.4964 31.8361Z" fill="#E42D24"/>
<path d="M97.5915 27.6685H99.2896L101.394 31.7773H99.9718L99.4491 30.6991H97.3301L96.8222 31.7773H95.4434L97.5915 27.6685ZM99.1445 30.0434L98.4188 28.499H98.3752L97.6494 30.0434H99.1445Z" fill="#E42D24"/>
<path d="M102.031 27.6685H104.658C105.427 27.6685 105.993 27.7414 106.342 27.8725C106.69 28.0036 106.864 28.2222 106.864 28.5427V29.2567C106.864 29.5043 106.734 29.6938 106.487 29.8249C106.255 29.956 105.935 30.0434 105.529 30.0872L107.213 31.7773H105.602L104.078 30.16H103.439V31.7773H102.031V27.6685ZM104.629 29.5043C104.963 29.5043 105.181 29.4752 105.311 29.4169C105.427 29.3587 105.485 29.2421 105.485 29.0672V28.7759C105.485 28.6156 105.427 28.5136 105.297 28.4553C105.166 28.397 104.948 28.3679 104.629 28.3679H103.439V29.5043H104.629Z" fill="#E42D24"/>
<path d="M108.027 27.6685H110.494C111.176 27.6685 111.713 27.7122 112.105 27.7851C112.511 27.8579 112.802 27.9891 112.976 28.1639C113.165 28.3533 113.266 28.601 113.266 28.9216V30.5825C113.266 30.9031 113.179 31.1362 113.005 31.3111C112.831 31.4859 112.541 31.6025 112.148 31.6753C111.757 31.7336 111.205 31.7773 110.509 31.7773H108.027V27.6685ZM110.45 31.0779C110.828 31.0779 111.118 31.0634 111.307 31.0342C111.51 31.0196 111.641 30.976 111.728 30.9031C111.815 30.8303 111.858 30.7283 111.858 30.5825V28.8924C111.858 28.703 111.757 28.5719 111.539 28.4844C111.321 28.4116 110.973 28.3679 110.494 28.3679H109.42V31.0779H110.45Z" fill="#E42D24"/>
<path d="M114.383 27.6685H118.825V28.3679H115.791V29.315H118.534V30.0143H115.791V31.0779H118.912V31.7773H114.383V27.6685Z" fill="#E42D24"/>
<path d="M119.855 27.6685H121.277L124.093 30.466V27.6685H125.341V31.7773H123.919L121.103 28.9361V31.7773H119.855V27.6685Z" fill="#E42D24"/>
<path d="M128.65 27.6685H133.091V28.3679H130.043V29.315H132.786V30.0143H130.043V31.0779H133.178V31.7773H128.65V27.6685Z" fill="#E42D24"/>
<path d="M136.749 31.8361C136.43 31.8361 136.125 31.8215 135.849 31.7924C135.588 31.7632 135.298 31.7195 135.007 31.6467C134.688 31.5738 134.441 31.4427 134.267 31.2678C134.078 31.1076 133.991 30.889 133.991 30.6559V28.8492C133.991 28.6452 134.064 28.4703 134.195 28.3101C134.311 28.1498 134.485 28.0187 134.688 27.9312C134.862 27.8584 135.08 27.7856 135.341 27.7273C135.617 27.669 135.849 27.6399 136.081 27.6253C136.299 27.6107 136.517 27.6107 136.749 27.6107C137.025 27.6107 137.257 27.6107 137.46 27.6253C137.663 27.6399 137.896 27.6836 138.142 27.7273C138.433 27.7856 138.665 27.8584 138.853 27.9312C139.042 28.0187 139.187 28.1352 139.318 28.2955C139.448 28.4412 139.521 28.6306 139.521 28.8492V29.9711C139.521 30.5976 139.275 30.9619 138.781 31.0638H140.058V31.7778H138.142C138.084 31.7778 137.881 31.7924 137.533 31.8069C137.199 31.8215 136.938 31.8361 136.749 31.8361ZM136.764 31.1367C136.967 31.1367 137.126 31.1367 137.257 31.1221C137.402 31.1076 137.533 31.093 137.678 31.0638C137.823 31.0347 137.925 30.9764 138.012 30.9182C138.084 30.8453 138.113 30.7579 138.113 30.6559V28.8492C138.113 28.6598 138.012 28.5141 137.779 28.4412C137.562 28.3538 137.228 28.3101 136.749 28.3101C136.284 28.3101 135.951 28.3538 135.718 28.4266C135.501 28.5141 135.399 28.6452 135.399 28.8492V30.6559C135.399 30.7579 135.428 30.8453 135.515 30.9182C135.588 30.9764 135.704 31.0347 135.849 31.0638C135.994 31.093 136.139 31.1076 136.27 31.1221C136.401 31.1367 136.56 31.1367 136.764 31.1367Z" fill="#E42D24"/>
<path d="M143.251 31.8356C141.582 31.8356 140.74 31.4422 140.74 30.6554V27.6685H142.133V30.6554C142.133 30.8303 142.221 30.9614 142.395 31.0342C142.554 31.1071 142.859 31.1362 143.28 31.1362C143.686 31.1362 143.977 31.1071 144.136 31.0342C144.296 30.9614 144.383 30.8303 144.383 30.6554V27.6685H145.776V30.6554C145.776 31.4422 144.935 31.8356 143.251 31.8356Z" fill="#E42D24"/>
<path d="M147.025 27.6685H148.418V31.7773H147.025V27.6685Z" fill="#E42D24"/>
<path d="M149.681 27.6685H152.003C152.569 27.6685 153.019 27.6977 153.353 27.756C153.687 27.8142 153.933 27.9016 154.078 28.0473C154.238 28.1785 154.311 28.3679 154.311 28.6156V29.3878C154.311 29.6646 154.224 29.8686 154.064 30.0289C153.904 30.1746 153.643 30.2766 153.28 30.3494C152.932 30.4077 152.453 30.4369 151.843 30.4369H151.074V31.7773H149.681V27.6685ZM151.959 29.7666C152.322 29.7666 152.584 29.7375 152.729 29.6792C152.874 29.6063 152.961 29.5043 152.961 29.3587V28.703C152.961 28.5719 152.888 28.4844 152.743 28.4407C152.598 28.397 152.337 28.3679 151.945 28.3679H151.074V29.7666H151.959Z" fill="#E42D24"/>
<path d="M155.299 27.6685H157.287L158.724 30.6117L160.132 27.6685H162.019V31.7773H160.741V28.7467H160.727L159.247 31.7773H158.129L156.619 28.7467H156.576V31.7773H155.299V27.6685Z" fill="#E42D24"/>
<path d="M163.266 27.6685H167.707V28.3679H164.66V29.315H167.403V30.0143H164.66V31.0779H167.795V31.7773H163.266V27.6685Z" fill="#E42D24"/>
<path d="M168.738 27.6685H170.146L172.961 30.466V27.6685H174.21V31.7773H172.802L169.986 28.9361V31.7773H168.738V27.6685Z" fill="#E42D24"/>
<path d="M176.807 28.3679H175.022V27.6685H180V28.3679H178.215V31.7773H176.807V28.3679Z" fill="#E42D24"/>
</g>
<defs>
<clipPath id="clip0_6_727">
<rect width="180" height="76" fill="white"/>
</clipPath>
</defs>
</svg>
