<svg width="180" height="76" viewBox="0 0 180 76" fill="none" xmlns="http://www.w3.org/2000/svg">
<g clip-path="url(#clip0_24_1487)">
<path fill-rule="evenodd" clip-rule="evenodd" d="M17.9681 75.8086L22.4674 65.8719C22.7142 65.3181 22.54 64.6771 22.0465 64.3276L0 48.7372L7.24241 45.9689C7.8665 45.7359 8.20033 45.0512 7.99711 44.4245L3.59943 29.9709L17.4021 33.1763C17.9826 33.3075 18.5632 33.0306 18.8245 32.477L21.945 25.7747L28.7519 33.1618L42.1337 55.0025L38.6647 60.6412L17.9681 75.8086ZM31.9595 31.7776L27.5618 12.2098L37.4458 17.5425C37.7651 17.7174 38.0844 17.7465 38.4181 17.6445C38.7518 17.5425 38.9988 17.3239 39.1583 17.018L47.9682 0L56.7925 17.018C56.9524 17.3239 57.199 17.5425 57.533 17.6445C57.8668 17.7465 58.1861 17.7174 58.4906 17.5425L68.3892 12.2098L51.1614 40.2721L46.6909 32.9724C46.2265 32.2147 45.4572 31.7776 44.5576 31.7776H31.9595Z" fill="#E42D24"/>
<path d="M71.5956 33.5409L54.861 60.5975L40.928 60.6413L44.295 55.1632L31.0439 33.5409H43.584C44.4837 33.5409 45.253 33.978 45.7174 34.7502L51.2618 43.7983L56.8205 34.7356C57.2993 33.978 58.0686 33.5409 58.9686 33.5409H71.5956ZM125.921 60.5975H113.439L103.903 45.0222V56.999L89.5928 33.5409H102.481C103.396 33.5409 104.165 33.978 104.644 34.7502L113.12 48.7813V36.0614C113.12 34.6774 114.237 33.5409 115.63 33.5409H125.921V60.5975ZM141.857 36.0614V60.5975H128.112V33.5409H139.346C140.725 33.5409 141.857 34.6774 141.857 36.0614ZM179.985 41.9478H167.068C166.835 37.8244 153.12 39.5875 157.547 41.9188C162.626 44.6142 180.304 42.5017 179.985 52.0741C179.854 56.1684 176.182 60.5975 162.205 60.5975C151.189 60.5975 143.802 57.7418 143.599 51.2729H155.645C156.211 57.2467 172.656 54.0121 167.373 51.4184C162.017 48.7813 143.599 49.874 143.599 41.6563C143.599 31.1222 179.622 30.1606 179.985 41.9478ZM87.5465 33.5409L104.078 60.5975H90.1443L87.8223 56.7656H73.4244L71.1168 60.5832L57.1978 60.5975L73.7873 33.5409H87.5465ZM84.3098 50.9524L80.6522 44.9932L76.9366 50.9524H84.3098Z" fill="white"/>
<path d="M92.4964 31.8357C92.1627 31.8357 91.8722 31.8211 91.6112 31.8066C91.3498 31.792 91.1029 31.7483 90.8419 31.7046C90.5805 31.6463 90.3627 31.5735 90.1888 31.5006C90.0146 31.4132 89.8695 31.2966 89.7676 31.1509C89.6517 31.0052 89.5938 30.8449 89.5938 30.6555V28.9362C89.5938 28.7322 89.6661 28.5429 89.7824 28.3826C89.8983 28.2223 90.0582 28.0912 90.2612 27.9892C90.4498 27.9017 90.682 27.8289 90.9434 27.756C91.2191 27.6977 91.4805 27.6541 91.7271 27.6395C91.9449 27.6104 92.2063 27.6104 92.5108 27.6104C93.3381 27.6104 94.1218 27.6541 94.8767 27.7415V28.4846C94.1945 28.368 93.3961 28.3097 92.5108 28.3097C91.5093 28.3097 91.0013 28.5137 91.0013 28.9362V30.5827C91.0013 30.7867 91.132 30.9324 91.4078 31.0052C91.6835 31.0926 92.09 31.1364 92.6415 31.1364C92.9317 31.1364 93.251 31.1072 93.5851 31.0489V30.0873H92.6271V29.4462H94.9203V31.5735C94.6154 31.6463 94.2381 31.7192 93.7737 31.7629C93.3093 31.8066 92.8881 31.8357 92.4964 31.8357Z" fill="#E42D24"/>
<path d="M97.5915 27.6689H99.2896L101.394 31.7777H99.9718L99.4491 30.6996H97.3301L96.8222 31.7777H95.4434L97.5915 27.6689ZM99.1445 30.0439L98.4188 28.4995H98.3752L97.6494 30.0439H99.1445Z" fill="#E42D24"/>
<path d="M102.031 27.6689H104.658C105.427 27.6689 105.993 27.7418 106.342 27.8729C106.69 28.0041 106.864 28.2226 106.864 28.5432V29.2571C106.864 29.5048 106.734 29.6942 106.487 29.8253C106.255 29.9565 105.935 30.0439 105.529 30.0876L107.213 31.7777H105.602L104.078 30.1605H103.439V31.7777H102.031V27.6689ZM104.629 29.5048C104.963 29.5048 105.181 29.4757 105.311 29.4174C105.427 29.3591 105.485 29.2425 105.485 29.0677V28.7763C105.485 28.616 105.427 28.514 105.297 28.4557C105.166 28.3975 104.948 28.3683 104.629 28.3683H103.439V29.5048H104.629Z" fill="#E42D24"/>
<path d="M108.027 27.6689H110.494C111.176 27.6689 111.713 27.7126 112.105 27.7855C112.511 27.8584 112.802 27.9895 112.976 28.1643C113.165 28.3537 113.266 28.6015 113.266 28.922V30.583C113.266 30.9035 113.179 31.1367 113.005 31.3115C112.831 31.4863 112.541 31.6029 112.148 31.6758C111.757 31.734 111.205 31.7777 110.509 31.7777H108.027V27.6689ZM110.45 31.0784C110.828 31.0784 111.118 31.0638 111.307 31.0347C111.51 31.0201 111.641 30.9764 111.728 30.9035C111.815 30.8307 111.858 30.7287 111.858 30.583V28.8928C111.858 28.7034 111.757 28.5723 111.539 28.4849C111.321 28.412 110.973 28.3683 110.494 28.3683H109.42V31.0784H110.45Z" fill="#E42D24"/>
<path d="M114.383 27.6689H118.825V28.3683H115.791V29.3154H118.534V30.0148H115.791V31.0784H118.912V31.7777H114.383V27.6689Z" fill="#E42D24"/>
<path d="M119.855 27.6689H121.277L124.093 30.4664V27.6689H125.341V31.7777H123.919L121.103 28.9366V31.7777H119.855V27.6689Z" fill="#E42D24"/>
<path d="M128.65 27.6689H133.091V28.3683H130.043V29.3154H132.786V30.0148H130.043V31.0784H133.178V31.7777H128.65V27.6689Z" fill="#E42D24"/>
<path d="M136.749 31.8357C136.43 31.8357 136.125 31.8211 135.849 31.792C135.588 31.7629 135.298 31.7192 135.007 31.6463C134.688 31.5735 134.441 31.4423 134.267 31.2675C134.078 31.1072 133.991 30.8886 133.991 30.6555V28.8488C133.991 28.6448 134.064 28.47 134.195 28.3097C134.311 28.1494 134.485 28.0183 134.688 27.9309C134.862 27.858 135.08 27.7852 135.341 27.7269C135.617 27.6686 135.849 27.6395 136.081 27.6249C136.299 27.6104 136.517 27.6104 136.749 27.6104C137.025 27.6104 137.257 27.6104 137.46 27.6249C137.663 27.6395 137.896 27.6832 138.142 27.7269C138.433 27.7852 138.665 27.858 138.853 27.9309C139.042 28.0183 139.187 28.1349 139.318 28.2951C139.448 28.4409 139.521 28.6303 139.521 28.8488V29.9707C139.521 30.5973 139.275 30.9615 138.781 31.0635H140.058V31.7774H138.142C138.084 31.7774 137.881 31.792 137.533 31.8066C137.199 31.8211 136.938 31.8357 136.749 31.8357ZM136.764 31.1364C136.967 31.1364 137.126 31.1364 137.257 31.1218C137.402 31.1072 137.533 31.0926 137.678 31.0635C137.823 31.0344 137.925 30.9761 138.012 30.9178C138.084 30.8449 138.113 30.7575 138.113 30.6555V28.8488C138.113 28.6594 138.012 28.5137 137.779 28.4409C137.562 28.3534 137.228 28.3097 136.749 28.3097C136.284 28.3097 135.951 28.3534 135.718 28.4263C135.501 28.5137 135.399 28.6448 135.399 28.8488V30.6555C135.399 30.7575 135.428 30.8449 135.515 30.9178C135.588 30.9761 135.704 31.0344 135.849 31.0635C135.994 31.0926 136.139 31.1072 136.27 31.1218C136.401 31.1364 136.56 31.1364 136.764 31.1364Z" fill="#E42D24"/>
<path d="M143.251 31.836C141.582 31.836 140.74 31.4426 140.74 30.6559V27.6689H142.133V30.6559C142.133 30.8307 142.221 30.9618 142.395 31.0347C142.554 31.1075 142.859 31.1367 143.28 31.1367C143.686 31.1367 143.977 31.1075 144.136 31.0347C144.296 30.9618 144.383 30.8307 144.383 30.6559V27.6689H145.776V30.6559C145.776 31.4426 144.935 31.836 143.251 31.836Z" fill="#E42D24"/>
<path d="M147.025 27.6689H148.418V31.7777H147.025V27.6689Z" fill="#E42D24"/>
<path d="M149.681 27.6689H152.003C152.569 27.6689 153.019 27.6981 153.353 27.7564C153.687 27.8146 153.933 27.9021 154.078 28.0478C154.238 28.1789 154.311 28.3683 154.311 28.616V29.3882C154.311 29.6651 154.224 29.869 154.064 30.0293C153.904 30.175 153.643 30.277 153.28 30.3498C152.932 30.4081 152.453 30.4373 151.843 30.4373H151.074V31.7777H149.681V27.6689ZM151.959 29.767C152.322 29.767 152.584 29.7379 152.729 29.6796C152.874 29.6068 152.961 29.5048 152.961 29.3591V28.7034C152.961 28.5723 152.888 28.4849 152.743 28.4412C152.598 28.3975 152.337 28.3683 151.945 28.3683H151.074V29.767H151.959Z" fill="#E42D24"/>
<path d="M155.299 27.6689H157.287L158.724 30.6121L160.132 27.6689H162.019V31.7777H160.741V28.7471H160.727L159.247 31.7777H158.129L156.619 28.7471H156.576V31.7777H155.299V27.6689Z" fill="#E42D24"/>
<path d="M163.266 27.6689H167.707V28.3683H164.66V29.3154H167.403V30.0148H164.66V31.0784H167.795V31.7777H163.266V27.6689Z" fill="#E42D24"/>
<path d="M168.738 27.6689H170.146L172.961 30.4664V27.6689H174.21V31.7777H172.802L169.986 28.9366V31.7777H168.738V27.6689Z" fill="#E42D24"/>
<path d="M176.807 28.3683H175.022V27.6689H180V28.3683H178.215V31.7777H176.807V28.3683Z" fill="#E42D24"/>
</g>
<defs>
<clipPath id="clip0_24_1487">
<rect width="180" height="76" fill="white"/>
</clipPath>
</defs>
</svg>
