<svg width="164" height="164" viewBox="0 0 164 164" fill="none" xmlns="http://www.w3.org/2000/svg">
<rect x="5" y="5" width="154" height="154" rx="77" fill="#14191F"/>
<rect x="5" y="5" width="154" height="154" rx="77" stroke="#E7E7E7" stroke-width="10" stroke-dasharray="5 5"/>
<path d="M92.375 46.6875H87.9759L87.422 45.1266C86.7583 43.2566 84.9822 42 83 42C81.0178 42 79.2417 43.2566 78.578 45.1266L78.0241 46.6875H73.625C71.0361 46.6875 68.9375 48.7861 68.9375 51.375V53.7188C68.9375 55.0131 69.9869 56.0625 71.2812 56.0625H94.7188C96.0131 56.0625 97.0625 55.0131 97.0625 53.7188V51.375C97.0625 48.7861 94.9639 46.6875 92.375 46.6875Z" fill="#F5F5F5"/>
<path d="M106.438 51.375H101.75V53.7188C101.75 57.5959 98.5959 60.75 94.7188 60.75H71.2812C67.4041 60.75 64.25 57.5959 64.25 53.7188V51.375H59.5625C55.6853 51.375 52.5312 54.5291 52.5312 58.4062V114.656C52.5312 118.533 55.6853 122 59.5625 122H106.438C110.315 122 113.469 118.533 113.469 114.656V58.4062C113.469 54.5291 110.315 51.375 106.438 51.375ZM79.9695 102.251L70.5945 111.626C70.1367 112.084 69.537 112.312 68.9375 112.312C68.338 112.312 67.7381 112.084 67.2805 111.626L62.593 106.938C61.6775 106.023 61.6775 104.54 62.593 103.624C63.5084 102.709 64.9917 102.709 65.9072 103.624L68.9375 106.655L76.6555 98.9366C77.5709 98.0211 79.0542 98.0211 79.9697 98.9366C80.8852 99.852 80.8852 101.335 79.9695 102.251ZM79.9695 85.8445L70.5945 95.2195C70.1367 95.6773 69.537 95.9062 68.9375 95.9062C68.338 95.9062 67.7381 95.6773 67.2805 95.2195L62.593 90.532C61.6775 89.6166 61.6775 88.1333 62.593 87.2178C63.5084 86.3023 64.9917 86.3023 65.9072 87.2178L68.9375 90.2483L76.6555 82.5303C77.5709 81.6148 79.0542 81.6148 79.9697 82.5303C80.8852 83.4458 80.8852 84.9291 79.9695 85.8445ZM79.9695 69.4383L70.5945 78.8133C70.1367 79.2711 69.537 79.5 68.9375 79.5C68.338 79.5 67.7381 79.2711 67.2805 78.8133L62.593 74.1258C61.6775 73.2103 61.6775 71.727 62.593 70.8116C63.5084 69.8961 64.9917 69.8961 65.9072 70.8116L68.9375 73.842L76.6555 66.1241C77.5709 65.2086 79.0542 65.2086 79.9697 66.1241C80.8852 67.0395 80.8852 68.5228 79.9695 69.4383ZM101.75 107.625H87.6875C86.392 107.625 85.3438 106.577 85.3438 105.281C85.3438 103.986 86.392 102.938 87.6875 102.938H101.75C103.045 102.938 104.094 103.986 104.094 105.281C104.094 106.577 103.045 107.625 101.75 107.625ZM101.75 91.2188H87.6875C86.392 91.2188 85.3438 90.1705 85.3438 88.875C85.3438 87.5795 86.392 86.5312 87.6875 86.5312H101.75C103.045 86.5312 104.094 87.5795 104.094 88.875C104.094 90.1705 103.045 91.2188 101.75 91.2188ZM101.75 74.8125H87.6875C86.392 74.8125 85.3438 73.7642 85.3438 72.4688C85.3438 71.1733 86.392 70.125 87.6875 70.125H101.75C103.045 70.125 104.094 71.1733 104.094 72.4688C104.094 73.7642 103.045 74.8125 101.75 74.8125Z" fill="#F5F5F5"/>
</svg>
